<?xml version="1.0" encoding="UTF-8"?>
<svg id="Layer_1" data-name="Layer 1" xmlns="http://www.w3.org/2000/svg" viewBox="0 0 949.71 314.83">
  <defs>
    <style>
      .cls-1 {
        fill: none;
      }

      .cls-1, .cls-2 {
        stroke: #231f20;
        stroke-miterlimit: 10;
      }

      .cls-3 {
        fill: #231f20;
      }

      .cls-2 {
        fill: #fff;
      }
    </style>
  </defs>
  <circle class="cls-2" cx="292.4" cy="118.07" r="41.55"/>
  <circle class="cls-2" cx="483.79" cy="118.07" r="41.55"/>
  <g>
    <path class="cls-3" d="M267.22,121.99c-.26,0-.53-.03-.79-.08-.26-.05-.51-.14-.73-.27s-.43-.29-.61-.49c-.18-.2-.32-.42-.43-.66-.11-.24-.18-.49-.22-.75-.04-.26-.06-.53-.06-.79v-1.75c0-.26.02-.53.06-.79.04-.26.11-.51.22-.75.11-.24.25-.46.43-.66.18-.2.38-.36.61-.49.22-.13.47-.22.73-.27.26-.05.53-.08.79-.08s.53.03.79.08c.26.05.51.14.73.27.22.13.43.29.61.49.18.2.32.42.43.66.11.24.18.49.22.75s.06.53.06.79v1.75c0,.26-.02.53-.06.79s-.11.51-.22.75c-.11.24-.25.46-.43.66-.18.2-.38.36-.61.49-.22.13-.47.22-.73.27-.26.05-.53.08-.79.08ZM267.22,120.97c.17,0,.33-.02.5-.06.17-.04.32-.1.45-.2s.26-.21.36-.34c.1-.14.18-.28.24-.44.06-.16.1-.32.12-.48s.03-.33.03-.5v-1.75c0-.17,0-.33-.03-.5-.02-.17-.06-.33-.12-.48-.06-.16-.14-.3-.24-.44s-.22-.25-.36-.34c-.14-.09-.29-.16-.45-.2-.17-.04-.33-.06-.5-.06s-.33.02-.5.06c-.17.04-.32.1-.45.2-.14.09-.26.21-.36.34s-.18.28-.24.44c-.06.16-.1.32-.12.48-.02.17-.03.33-.03.5v1.75c0,.17,0,.33.03.5.02.17.06.33.12.48.06.16.14.3.24.44.1.14.22.25.36.34.14.09.29.16.45.2s.33.06.5.06Z"/>
    <path class="cls-3" d="M273.44,121.87v-5.88h-1.62v-1.04h1.62v-1.55c0-.19.01-.39.04-.59.02-.2.07-.39.15-.58.07-.18.17-.36.29-.53.12-.17.26-.3.43-.41.17-.11.35-.18.55-.23.19-.04.39-.07.58-.07.27,0,.54.04.81.12.27.08.49.22.68.42s.32.43.41.69c.09.26.13.53.13.8v.12h-1.14v-.06c0-.14-.01-.27-.04-.39s-.08-.25-.16-.36c-.08-.11-.18-.19-.3-.25-.12-.05-.25-.08-.39-.08-.16,0-.3.04-.43.13-.13.09-.23.2-.3.34s-.11.28-.14.44c-.02.16-.04.31-.04.47v1.55h2.41v1.02h-2.41v5.89h-1.13Z"/>
    <path class="cls-3" d="M280.75,121.87v-5.88h-1.62v-1.04h1.62v-1.55c0-.19.01-.39.04-.59.02-.2.07-.39.15-.58.07-.18.17-.36.29-.53.12-.17.26-.3.43-.41.17-.11.35-.18.55-.23.19-.04.39-.07.58-.07.27,0,.54.04.81.12.27.08.49.22.68.42s.32.43.41.69c.09.26.13.53.13.8v.12h-1.14v-.06c0-.14-.01-.27-.04-.39s-.08-.25-.16-.36c-.08-.11-.18-.19-.3-.25-.12-.05-.25-.08-.39-.08-.16,0-.3.04-.43.13-.13.09-.23.2-.3.34s-.11.28-.14.44c-.02.16-.04.31-.04.47v1.55h2.41v1.02h-2.41v5.89h-1.13Z"/>
    <path class="cls-3" d="M289.19,121.99c-.26,0-.53-.02-.79-.07s-.51-.14-.74-.27c-.23-.13-.43-.3-.61-.5-.18-.2-.33-.42-.44-.66-.11-.24-.19-.49-.23-.75-.04-.26-.06-.53-.06-.79v-1.75c0-.26.02-.53.06-.79.04-.26.11-.51.22-.75.11-.24.25-.46.43-.66.18-.2.38-.36.61-.49.22-.13.47-.22.73-.27.26-.05.53-.08.79-.08s.53.03.79.08c.26.05.51.14.73.27.22.13.43.29.61.49.18.2.32.42.43.66.11.24.18.49.22.75s.06.53.06.79v1.39h-4.53v.37c0,.17,0,.33.03.5.02.17.06.33.12.48.06.16.15.3.25.44.1.14.22.25.37.34s.29.16.46.2.33.06.5.06c.18,0,.37-.02.56-.06.19-.04.36-.11.52-.2.16-.1.29-.23.39-.39.1-.17.16-.35.17-.54h1.14c0,.22-.05.44-.12.65-.07.21-.18.4-.31.59s-.29.34-.47.47c-.18.13-.37.24-.58.31-.2.08-.42.13-.64.16s-.44.04-.66.04ZM290.85,117.56v-.37c0-.17,0-.33-.03-.5-.02-.17-.06-.33-.12-.48-.06-.16-.14-.3-.24-.44s-.22-.25-.36-.34c-.14-.09-.29-.16-.45-.2-.17-.04-.33-.06-.5-.06s-.33.02-.5.06c-.17.04-.32.1-.45.2-.14.09-.26.21-.36.34s-.18.28-.24.44c-.06.16-.1.32-.12.48-.02.17-.03.33-.03.5v.37h3.39Z"/>
    <path class="cls-3" d="M294.63,121.87v-7.6h1.14v1.58c.07-.21.15-.42.26-.63.1-.2.23-.39.39-.56s.34-.29.56-.38c.21-.09.43-.13.66-.13.18,0,.37.02.55.07.18.04.34.12.49.22s.27.23.37.39c.1.16.18.32.23.49.06.17.1.35.12.53.02.18.03.36.03.55h-1.14c0-.15-.01-.29-.04-.43-.02-.14-.07-.28-.15-.4-.07-.13-.18-.22-.31-.28-.13-.06-.27-.1-.42-.1-.2,0-.38.04-.56.12-.18.08-.33.2-.45.34-.12.15-.22.31-.3.49-.08.18-.14.37-.18.56-.04.19-.07.38-.08.58s-.02.39-.02.57v4.04h-1.14Z"/>
    <path class="cls-3" d="M301.22,121.87v-1.02h2.09v-5.56h-1.89v-1.02h3.03v6.58h1.89v1.02h-5.12ZM303.85,112.98c-.13,0-.25-.02-.37-.05-.12-.03-.22-.09-.31-.18-.09-.09-.15-.19-.18-.31-.03-.12-.05-.24-.05-.37s.02-.25.05-.37c.03-.12.09-.22.18-.31.09-.09.19-.15.31-.19.12-.04.24-.06.37-.06s.25.02.37.06c.12.04.22.1.31.19.09.09.15.19.19.31.04.12.06.24.06.37s-.02.25-.06.37c-.04.12-.1.22-.19.31s-.19.15-.31.18c-.12.03-.24.05-.37.05Z"/>
    <path class="cls-3" d="M308.37,121.87v-7.6h1.14v1.33c.08-.2.18-.4.31-.58s.28-.35.46-.48c.18-.14.38-.23.6-.29s.44-.09.65-.09c.24,0,.48.03.72.1.23.07.44.18.62.33.18.15.33.33.46.54.13.21.23.43.3.66.07.23.12.46.15.7.02.24.04.48.04.71v4.68h-1.14v-4.68c0-.17,0-.33-.03-.49-.02-.16-.05-.32-.1-.47-.05-.15-.12-.29-.21-.43-.09-.14-.2-.25-.33-.35-.13-.1-.27-.17-.42-.21-.16-.04-.32-.07-.48-.07s-.33.02-.48.07-.3.11-.42.21-.24.21-.33.35c-.09.14-.16.28-.21.43-.05.15-.08.31-.1.47-.02.16-.03.32-.03.49v4.68h-1.14Z"/>
    <path class="cls-3" d="M318.36,125.13c-.22,0-.45-.02-.67-.05-.22-.03-.43-.09-.64-.18-.2-.08-.39-.19-.57-.34-.18-.14-.32-.3-.45-.49-.12-.19-.21-.39-.28-.6-.06-.21-.1-.43-.11-.66h1.14c0,.19.06.38.14.55.08.17.2.31.35.43.15.12.32.2.5.24.18.04.38.07.57.07.17,0,.33-.02.49-.06.16-.04.31-.11.44-.2.13-.1.24-.21.34-.35.09-.14.17-.28.22-.44.05-.16.09-.31.11-.48.02-.16.03-.32.03-.49v-1.55c-.08.2-.18.4-.31.59-.13.19-.28.35-.46.48-.18.13-.38.23-.6.29s-.44.09-.67.09c-.24,0-.48-.03-.72-.1-.24-.07-.46-.18-.65-.32-.2-.15-.36-.32-.49-.53-.13-.2-.24-.42-.31-.65-.08-.23-.13-.47-.16-.71-.03-.24-.04-.49-.04-.73v-1.75c0-.24.01-.49.04-.73.03-.24.08-.48.16-.71.08-.23.18-.45.31-.65.13-.2.29-.38.49-.53.19-.15.41-.25.65-.32.24-.07.48-.1.72-.1.22,0,.45.03.67.09s.42.15.6.29c.18.13.33.29.46.48.13.19.23.39.31.59v-1.33h1.14v7.82c0,.26-.02.52-.06.78-.04.26-.11.51-.21.75-.1.24-.24.46-.41.66-.17.2-.37.37-.59.5-.22.13-.47.22-.72.28-.26.05-.51.08-.77.08ZM318.39,120.97c.17,0,.33-.02.49-.06.16-.04.3-.11.43-.2.13-.1.24-.22.33-.36.09-.14.16-.29.21-.44.05-.15.08-.31.1-.47.02-.16.03-.32.03-.49v-1.75c0-.17,0-.33-.03-.49-.02-.16-.05-.32-.1-.47-.05-.15-.12-.3-.21-.44-.09-.14-.2-.26-.33-.36-.13-.1-.27-.17-.43-.2-.16-.04-.32-.06-.49-.06s-.33.02-.49.06c-.16.04-.31.1-.45.2-.14.09-.26.21-.36.34s-.18.28-.24.44c-.06.16-.1.32-.12.48-.02.17-.03.33-.03.5v1.75c0,.17,0,.33.03.5.02.17.06.33.12.48.06.16.14.3.24.44.1.14.22.25.36.34.14.09.28.16.45.2.16.04.32.06.49.06Z"/>
  </g>
  <g>
    <path class="cls-3" d="M457.5,121.99c-.29,0-.58-.04-.86-.13-.28-.09-.52-.24-.72-.45-.2-.21-.34-.46-.42-.75-.08-.28-.12-.57-.12-.86,0-.24.03-.49.1-.73.06-.24.17-.46.33-.66.16-.2.34-.36.55-.49.21-.13.43-.24.67-.31.24-.08.48-.13.72-.16.24-.03.49-.04.75-.04h1.3v-.72c0-.2-.03-.41-.1-.61s-.18-.38-.34-.51c-.16-.14-.34-.23-.54-.29s-.41-.09-.61-.09-.39.02-.58.06c-.19.04-.36.11-.52.22-.16.11-.28.25-.37.42-.09.18-.13.36-.13.54h-1.14c0-.22.03-.44.09-.66.06-.21.16-.41.29-.6.13-.19.28-.34.46-.48.18-.13.37-.24.58-.32.2-.08.42-.14.64-.17.22-.03.45-.04.67-.04s.47.02.7.05c.23.03.46.1.67.2.21.1.41.22.59.38s.33.34.45.54.2.42.25.66c.05.23.07.47.07.7v5.19h-1.14v-1.26c-.09.21-.21.41-.37.59-.16.18-.34.33-.55.45s-.42.21-.66.26c-.23.05-.47.07-.7.07ZM457.94,120.97c.23,0,.47-.03.71-.09.24-.06.45-.18.62-.34.18-.16.3-.36.39-.58s.12-.47.12-.71v-.82h-1.3c-.15,0-.29,0-.45.02s-.3.04-.44.07c-.14.03-.28.08-.42.15s-.26.14-.37.24c-.11.1-.19.22-.23.36-.05.14-.07.29-.07.43,0,.18.03.35.1.53s.17.32.31.44c.14.12.29.2.48.24.18.04.36.07.55.07Z"/>
    <path class="cls-3" d="M462.8,121.87v-7.6h1.14v1.33c.08-.2.18-.4.31-.58s.28-.35.46-.48c.18-.14.38-.23.6-.29.22-.06.44-.09.65-.09.24,0,.48.03.72.1.23.07.44.18.62.33.18.15.33.33.46.54.13.21.23.43.3.66.07.23.12.46.15.7s.04.48.04.71v4.68h-1.14v-4.68c0-.17,0-.33-.03-.49-.02-.16-.05-.32-.1-.47-.05-.15-.12-.29-.21-.43-.09-.14-.2-.25-.33-.35-.13-.1-.27-.17-.42-.21-.16-.04-.32-.07-.48-.07s-.33.02-.48.07c-.16.04-.3.11-.42.21-.13.1-.24.21-.33.35-.09.14-.16.28-.21.43-.05.15-.08.31-.1.47-.02.16-.03.32-.03.49v4.68h-1.14Z"/>
    <path class="cls-3" d="M472.81,121.99c-.21,0-.43-.01-.64-.04-.21-.02-.42-.07-.63-.15-.21-.07-.4-.17-.58-.29-.19-.12-.34-.26-.48-.43-.13-.17-.23-.36-.3-.57s-.1-.42-.1-.64v-.04h1.14c0,.2.05.37.15.53.1.16.23.28.39.37.16.09.32.15.5.18.18.03.36.04.55.04.17,0,.35-.01.53-.04.18-.03.35-.08.5-.17.16-.08.29-.2.4-.35.11-.15.17-.31.17-.49s-.05-.34-.14-.49c-.09-.15-.21-.28-.34-.37-.14-.1-.29-.17-.45-.23-.16-.05-.32-.1-.49-.14s-.33-.08-.49-.12c-.16-.04-.32-.09-.48-.15-.16-.06-.32-.12-.47-.2-.15-.07-.29-.16-.43-.26-.14-.1-.26-.22-.37-.34-.11-.13-.21-.27-.29-.42-.08-.15-.14-.31-.18-.48-.04-.17-.07-.33-.07-.5,0-.21.03-.42.1-.62.06-.2.16-.39.29-.56.13-.17.28-.31.45-.43.18-.12.36-.21.56-.29.19-.07.4-.12.61-.15s.42-.04.62-.04.42.01.63.04c.21.02.41.07.61.15.2.07.38.17.56.29.17.12.32.27.45.43.13.17.22.35.29.56.06.2.09.41.09.61v.04h-1.14c0-.19-.04-.35-.13-.5-.09-.15-.2-.27-.35-.37-.15-.09-.3-.15-.48-.18s-.34-.04-.52-.04-.33.01-.5.04-.33.09-.48.18c-.15.09-.27.2-.37.35-.1.15-.15.31-.15.48,0,.21.06.39.19.56.13.17.28.31.45.4.18.1.36.17.56.21.2.04.4.09.6.14.2.05.39.1.58.17.19.06.37.15.55.25.18.1.34.22.5.35.16.13.29.28.4.45.11.17.2.35.26.55.06.2.1.4.1.6s-.03.42-.1.63-.17.39-.31.56c-.14.17-.29.31-.47.43-.18.12-.37.21-.58.28-.2.07-.41.11-.63.14-.21.02-.43.04-.64.04Z"/>
    <path class="cls-3" d="M478.19,121.87l-1.24-7.6h1.16l.69,6.49.77-4.36h1.14l.78,4.36.69-6.49h1.16l-1.24,7.6h-1.13l-.82-4.06-.82,4.06h-1.13Z"/>
    <path class="cls-3" d="M487.48,121.99c-.26,0-.53-.02-.79-.07-.26-.05-.51-.14-.74-.27-.23-.13-.43-.3-.61-.5-.18-.2-.33-.42-.44-.66s-.19-.49-.23-.75-.06-.53-.06-.79v-1.75c0-.26.02-.53.06-.79s.11-.51.22-.75c.11-.24.25-.46.43-.66.18-.2.38-.36.61-.49.22-.13.47-.22.73-.27.26-.05.53-.08.79-.08s.53.03.79.08c.26.05.51.14.73.27.22.13.43.29.61.49.18.2.32.42.43.66.11.24.18.49.22.75s.06.53.06.79v1.39h-4.53v.37c0,.17,0,.33.03.5.02.17.06.33.12.48.06.16.15.3.25.44.1.14.22.25.37.34.14.09.29.16.46.2s.33.06.5.06c.19,0,.37-.02.56-.06.19-.04.36-.11.52-.21.16-.1.29-.23.39-.39.1-.17.16-.35.17-.54h1.14c0,.22-.05.44-.12.65-.07.21-.18.4-.31.58-.13.18-.29.34-.47.47-.18.13-.37.24-.58.31-.21.08-.42.13-.64.16-.22.03-.44.04-.66.04ZM489.15,117.56v-.37c0-.17,0-.33-.03-.5s-.06-.33-.12-.48c-.06-.16-.14-.3-.24-.44-.1-.14-.22-.25-.36-.34-.14-.09-.29-.16-.45-.2-.17-.04-.33-.06-.5-.06s-.33.02-.5.06c-.17.04-.32.1-.45.2-.14.09-.26.21-.36.34-.1.14-.18.28-.24.44-.06.16-.1.32-.12.48s-.03.33-.03.5v.37h3.39Z"/>
    <path class="cls-3" d="M492.92,121.87v-7.6h1.14v1.58c.07-.21.15-.42.26-.63s.23-.39.39-.56c.16-.17.34-.29.56-.38.21-.09.43-.13.66-.13.18,0,.37.02.55.07s.34.12.49.22c.15.1.27.23.37.39.1.16.18.32.23.49.06.17.1.35.12.53.02.18.03.36.03.55h-1.14c0-.15-.01-.29-.04-.43-.02-.14-.07-.27-.15-.4-.07-.13-.17-.22-.31-.29s-.27-.1-.42-.1c-.2,0-.38.04-.56.12-.18.08-.33.2-.45.34-.12.15-.22.31-.3.49s-.14.37-.17.56c-.04.19-.07.38-.08.58s-.02.39-.02.57v4.04h-1.14Z"/>
    <path class="cls-3" d="M502.1,121.99c-.26,0-.53-.02-.79-.07s-.51-.14-.74-.27c-.23-.13-.43-.3-.61-.5s-.33-.42-.44-.66c-.11-.24-.19-.49-.23-.75-.04-.26-.06-.53-.06-.79v-1.75c0-.26.02-.53.06-.79.04-.26.11-.51.22-.75s.25-.46.43-.66.38-.36.61-.49c.22-.13.47-.22.73-.27.26-.05.53-.08.79-.08s.53.03.79.08c.26.05.51.14.73.27.22.13.43.29.61.49s.32.42.43.66.18.49.22.75c.04.26.06.53.06.79v1.39h-4.53v.37c0,.17,0,.33.03.5.02.17.06.33.12.48.06.16.15.3.25.44.1.14.22.25.37.34.14.09.29.16.46.2.17.04.33.06.5.06.18,0,.37-.02.56-.06s.36-.11.52-.21c.16-.1.29-.23.39-.39.1-.17.16-.35.17-.54h1.14c-.01.22-.05.44-.12.65-.07.21-.17.4-.31.58-.13.18-.29.34-.47.47-.18.13-.37.24-.58.31-.2.08-.42.13-.64.16-.22.03-.44.04-.66.04ZM503.77,117.56v-.37c0-.17-.01-.33-.03-.5-.02-.17-.06-.33-.12-.48-.06-.16-.14-.3-.24-.44-.1-.14-.22-.25-.36-.34-.14-.09-.29-.16-.45-.2-.17-.04-.33-.06-.5-.06s-.33.02-.5.06c-.17.04-.32.1-.45.2-.14.09-.26.21-.36.34-.1.14-.18.28-.24.44-.06.16-.1.32-.12.48s-.03.33-.03.5v.37h3.39Z"/>
    <path class="cls-3" d="M508.93,121.99c-.24,0-.49-.03-.72-.1-.24-.07-.46-.18-.65-.32-.19-.15-.36-.32-.49-.53s-.24-.42-.31-.65c-.08-.23-.13-.47-.16-.71s-.04-.49-.04-.73v-1.75c0-.24.01-.49.04-.73s.08-.48.16-.71c.08-.23.18-.45.31-.65.13-.21.29-.38.49-.53.2-.15.41-.25.65-.32.24-.07.48-.1.72-.1.22,0,.45.03.67.09.22.06.42.15.6.29.18.13.33.29.46.48.13.19.23.39.31.59v-4.47h1.14v10.75h-1.14v-1.33c-.08.2-.18.4-.31.59-.13.19-.28.35-.46.48-.18.13-.38.23-.6.29-.22.06-.44.09-.67.09ZM509.37,120.97c.17,0,.33-.02.49-.07.16-.04.3-.11.43-.21.13-.1.24-.21.33-.35.09-.14.16-.28.21-.43.05-.15.08-.31.1-.47.02-.16.03-.32.03-.49v-1.75c0-.17,0-.33-.03-.49-.02-.16-.05-.32-.1-.47-.05-.15-.12-.3-.21-.44-.09-.14-.2-.26-.33-.36-.13-.1-.27-.17-.43-.2-.16-.04-.32-.06-.49-.06s-.33.02-.49.06c-.16.04-.31.1-.45.2-.14.09-.26.21-.36.34-.1.14-.18.28-.24.44-.06.16-.1.32-.12.48s-.03.33-.03.5v1.75c0,.17,0,.33.03.5.02.17.06.33.12.48.06.16.14.3.24.44.1.14.22.25.36.34.14.09.29.16.45.2.16.04.32.06.49.06Z"/>
  </g>
  <circle class="cls-2" cx="695.72" cy="118.01" r="41.55"/>
  <g>
    <path class="cls-3" d="M666.43,121.93c-.25,0-.51-.03-.77-.08-.26-.05-.51-.15-.73-.28-.22-.13-.42-.3-.59-.5-.17-.2-.31-.42-.42-.66-.11-.24-.18-.49-.22-.75s-.06-.52-.06-.78v-1.75c0-.26.02-.52.06-.78s.11-.51.22-.75.25-.46.42-.66c.17-.2.37-.37.59-.5.22-.13.47-.22.73-.28.26-.05.52-.08.77-.08s.49.02.73.07.48.12.69.23c.22.11.42.25.59.42.17.17.32.36.44.58.12.21.2.44.26.68s.08.48.08.72v.03h-1.14c0-.24-.03-.46-.1-.67-.07-.21-.18-.4-.34-.56-.16-.16-.34-.28-.56-.35-.21-.07-.43-.11-.66-.11-.17,0-.33.02-.49.06-.16.04-.31.11-.45.2-.14.1-.25.21-.34.35-.09.14-.17.28-.23.43-.06.15-.1.31-.12.48s-.03.33-.03.5v1.75c0,.17,0,.33.03.5.02.17.06.32.12.48.06.15.13.29.23.43.09.14.21.25.34.35.14.1.29.17.45.21s.32.06.49.06c.22,0,.44-.04.66-.11.21-.07.4-.19.56-.35s.27-.35.34-.56c.07-.21.1-.43.1-.66h0s1.14-.01,1.14-.01v.03c0,.24-.03.49-.08.72s-.14.47-.26.68c-.12.21-.26.41-.44.58-.18.17-.37.31-.59.42-.22.11-.45.18-.69.23s-.49.07-.73.07Z"/>
    <path class="cls-3" d="M673.79,121.93c-.26,0-.53-.03-.79-.08-.26-.05-.51-.14-.73-.27-.22-.13-.43-.29-.61-.49-.18-.2-.32-.42-.43-.66s-.18-.49-.22-.75-.06-.53-.06-.79v-1.75c0-.26.02-.53.06-.79s.11-.51.22-.75.25-.46.43-.66c.18-.2.38-.36.61-.49s.47-.22.73-.27c.26-.05.53-.08.79-.08s.53.03.79.08c.26.05.51.14.73.27.22.13.43.29.61.49s.32.42.43.66c.11.24.18.49.22.75s.06.53.06.79v1.75c0,.26-.02.53-.06.79s-.11.51-.22.75c-.11.24-.25.46-.43.66s-.38.36-.61.49c-.22.13-.47.22-.73.27-.26.05-.53.08-.79.08ZM673.79,120.91c.17,0,.33-.02.5-.06.17-.04.32-.1.45-.2.14-.09.26-.21.36-.34.1-.14.18-.28.24-.44.06-.16.1-.32.12-.48.02-.17.03-.33.03-.5v-1.75c0-.17,0-.33-.03-.5s-.06-.33-.12-.48c-.06-.16-.14-.3-.24-.44-.1-.14-.22-.25-.36-.34-.14-.09-.29-.16-.45-.2-.17-.04-.33-.06-.5-.06s-.33.02-.5.06c-.17.04-.32.1-.45.2-.14.09-.26.21-.36.34-.1.14-.18.28-.24.44-.06.16-.1.32-.12.48s-.03.33-.03.5v1.75c0,.17,0,.33.03.5.02.17.06.33.12.48.06.16.14.3.24.44.1.14.22.25.36.34.14.09.29.16.45.2s.33.06.5.06Z"/>
    <path class="cls-3" d="M678.38,121.81v-7.6h1.14v1.33c.08-.2.18-.4.31-.58.13-.19.28-.35.46-.48.18-.14.38-.23.6-.29.22-.06.44-.09.65-.09.24,0,.48.03.72.1.23.07.44.18.62.33.18.15.33.33.46.54.13.21.23.43.3.66s.12.46.15.7.04.48.04.71v4.68h-1.14v-4.68c0-.17,0-.33-.03-.49-.02-.16-.05-.32-.1-.47-.05-.15-.12-.29-.21-.43-.09-.14-.2-.25-.33-.35-.13-.1-.27-.17-.42-.21-.16-.04-.32-.07-.48-.07s-.33.02-.48.07-.3.11-.42.21c-.13.1-.24.21-.33.35-.09.14-.16.28-.21.43-.05.15-.08.31-.1.47-.02.16-.03.32-.03.49v4.68h-1.14Z"/>
    <path class="cls-3" d="M685.69,121.81v-7.6h1.14v1.33c.08-.2.18-.4.31-.58.13-.19.28-.35.46-.48.18-.14.38-.23.6-.29.22-.06.44-.09.65-.09.24,0,.48.03.72.1.23.07.44.18.62.33.18.15.33.33.46.54.13.21.23.43.3.66s.12.46.15.7.04.48.04.71v4.68h-1.14v-4.68c0-.17,0-.33-.03-.49-.02-.16-.05-.32-.1-.47-.05-.15-.12-.29-.21-.43-.09-.14-.2-.25-.33-.35-.13-.1-.27-.17-.42-.21-.16-.04-.32-.07-.48-.07s-.33.02-.48.07-.3.11-.42.21c-.13.1-.24.21-.33.35-.09.14-.16.28-.21.43-.05.15-.08.31-.1.47-.02.16-.03.32-.03.49v4.68h-1.14Z"/>
    <path class="cls-3" d="M695.75,121.93c-.26,0-.53-.02-.79-.07-.26-.05-.51-.14-.74-.27-.23-.13-.43-.3-.61-.5-.18-.2-.33-.42-.44-.66-.11-.24-.19-.49-.23-.75s-.06-.53-.06-.79v-1.75c0-.26.02-.53.06-.79s.11-.51.22-.75.25-.46.43-.66c.18-.2.38-.36.61-.49s.47-.22.73-.27c.26-.05.53-.08.79-.08s.53.03.79.08c.26.05.51.14.73.27.22.13.43.29.61.49s.32.42.43.66c.11.24.18.49.22.75s.06.53.06.79v1.39h-4.53v.37c0,.17,0,.33.03.5.02.17.06.33.12.48.06.16.15.3.25.44.1.14.22.25.37.34.14.09.29.16.46.2s.33.06.5.06c.19,0,.37-.02.56-.06.19-.04.36-.11.52-.21.16-.1.29-.23.39-.39.1-.17.16-.35.17-.54h1.14c0,.22-.05.44-.12.65-.07.21-.18.4-.31.58-.13.18-.29.34-.47.47-.18.13-.37.24-.58.31-.21.08-.42.13-.64.16s-.44.04-.66.04ZM697.42,117.5v-.37c0-.17,0-.33-.03-.5s-.06-.33-.12-.48c-.06-.16-.14-.3-.24-.44-.1-.14-.22-.25-.36-.34-.14-.09-.29-.16-.45-.2-.17-.04-.33-.06-.5-.06s-.33.02-.5.06c-.17.04-.32.1-.45.2-.14.09-.26.21-.36.34-.1.14-.18.28-.24.44-.06.16-.1.32-.12.48s-.03.33-.03.5v.37h3.39Z"/>
    <path class="cls-3" d="M702.99,121.93c-.25,0-.51-.03-.77-.08-.26-.05-.51-.15-.73-.28-.22-.13-.42-.3-.59-.5-.17-.2-.31-.42-.42-.66-.11-.24-.18-.49-.22-.75s-.06-.52-.06-.78v-1.75c0-.26.02-.52.06-.78s.11-.51.22-.75.25-.46.42-.66c.17-.2.37-.37.59-.5.22-.13.47-.22.73-.28.26-.05.52-.08.77-.08s.49.02.73.07.48.12.69.23c.22.11.42.25.59.42.17.17.32.36.44.58.12.21.2.44.26.68s.08.48.08.72v.03h-1.14c0-.24-.03-.46-.1-.67-.07-.21-.18-.4-.34-.56-.16-.16-.34-.28-.56-.35-.21-.07-.43-.11-.66-.11-.17,0-.33.02-.49.06-.16.04-.31.11-.45.2-.14.1-.25.21-.34.35-.09.14-.17.28-.23.43-.06.15-.1.31-.12.48s-.03.33-.03.5v1.75c0,.17,0,.33.03.5.02.17.06.32.12.48.06.15.13.29.23.43.09.14.21.25.34.35.14.1.29.17.45.21s.32.06.49.06c.22,0,.44-.04.66-.11.21-.07.4-.19.56-.35s.27-.35.34-.56c.07-.21.1-.43.1-.66h0s1.14-.01,1.14-.01v.03c0,.24-.03.49-.08.72s-.14.47-.26.68c-.12.21-.26.41-.44.58-.18.17-.37.31-.59.42-.22.11-.45.18-.69.23s-.49.07-.73.07Z"/>
    <path class="cls-3" d="M711.31,121.93c-.21,0-.43-.03-.65-.08-.22-.05-.42-.15-.6-.28-.18-.13-.33-.29-.46-.48-.13-.19-.23-.38-.3-.59s-.12-.42-.15-.64-.04-.44-.04-.67v-3.96h-1.4v-1.02h1.4v-3.14h1.14v3.14h2.57v1.02h-2.57v3.96c0,.13,0,.25.01.38,0,.13.03.25.06.37s.07.24.12.36c.05.12.11.22.2.31.08.09.19.16.31.21.12.05.24.07.36.07s.23-.02.34-.06c.11-.04.21-.1.29-.18.08-.08.15-.17.21-.28.05-.11.1-.21.13-.32.03-.11.06-.22.07-.34.01-.12.02-.23.02-.35v-.09h1.14v.15c0,.2-.02.41-.06.62-.04.21-.1.41-.18.6s-.18.37-.31.54c-.13.17-.29.31-.46.42-.17.11-.37.19-.57.23-.2.04-.41.07-.63.07Z"/>
    <path class="cls-3" d="M717.69,121.93c-.26,0-.53-.02-.79-.07-.26-.05-.51-.14-.74-.27-.23-.13-.43-.3-.61-.5-.18-.2-.33-.42-.44-.66-.11-.24-.19-.49-.23-.75s-.06-.53-.06-.79v-1.75c0-.26.02-.53.06-.79s.11-.51.22-.75.25-.46.43-.66c.18-.2.38-.36.61-.49s.47-.22.73-.27c.26-.05.53-.08.79-.08s.53.03.79.08c.26.05.51.14.73.27.22.13.43.29.61.49s.32.42.43.66c.11.24.18.49.22.75s.06.53.06.79v1.39h-4.53v.37c0,.17,0,.33.03.5.02.17.06.33.12.48.06.16.15.3.25.44.1.14.22.25.37.34.14.09.29.16.46.2s.33.06.5.06c.19,0,.37-.02.56-.06.19-.04.36-.11.52-.21.16-.1.29-.23.39-.39.1-.17.16-.35.17-.54h1.14c0,.22-.05.44-.12.65-.07.21-.18.4-.31.58-.13.18-.29.34-.47.47-.18.13-.37.24-.58.31-.21.08-.42.13-.64.16s-.44.04-.66.04ZM719.35,117.5v-.37c0-.17,0-.33-.03-.5s-.06-.33-.12-.48c-.06-.16-.14-.3-.24-.44-.1-.14-.22-.25-.36-.34-.14-.09-.29-.16-.45-.2-.17-.04-.33-.06-.5-.06s-.33.02-.5.06c-.17.04-.32.1-.45.2-.14.09-.26.21-.36.34-.1.14-.18.28-.24.44-.06.16-.1.32-.12.48s-.03.33-.03.5v.37h3.39Z"/>
    <path class="cls-3" d="M724.52,121.93c-.24,0-.49-.03-.72-.1-.24-.07-.46-.18-.65-.32-.2-.15-.36-.32-.49-.53s-.24-.42-.31-.65c-.08-.23-.13-.47-.16-.71s-.04-.49-.04-.73v-1.75c0-.24.01-.49.04-.73s.08-.48.16-.71c.08-.23.18-.45.31-.65.13-.21.29-.38.49-.53.19-.15.41-.25.65-.32.24-.07.48-.1.72-.1.22,0,.45.03.67.09.22.06.42.15.6.29.18.13.33.29.46.48s.23.39.31.59v-4.47h1.14v10.75h-1.14v-1.33c-.08.2-.18.4-.31.59-.13.19-.28.35-.46.48-.18.13-.38.23-.6.29-.22.06-.44.09-.67.09ZM724.95,120.91c.17,0,.33-.02.49-.07.16-.04.3-.11.43-.21.13-.1.24-.21.33-.35.09-.14.16-.28.21-.43.05-.15.08-.31.1-.47.02-.16.03-.32.03-.49v-1.75c0-.17,0-.33-.03-.49-.02-.16-.05-.32-.1-.47-.05-.15-.12-.3-.21-.44-.09-.14-.2-.26-.33-.36-.13-.1-.27-.17-.43-.2-.16-.04-.32-.06-.49-.06s-.33.02-.49.06c-.16.04-.31.1-.45.2-.14.09-.26.21-.36.34-.1.14-.18.28-.24.44-.06.16-.1.32-.12.48s-.03.33-.03.5v1.75c0,.17,0,.33.03.5.02.17.06.33.12.48.06.16.14.3.24.44.1.14.22.25.36.34.14.09.29.16.45.2.16.04.32.06.49.06Z"/>
  </g>
  <g>
    <path class="cls-3" d="M342.39,107.82v-7.6h1.14v1.58c.07-.21.15-.42.26-.63.1-.2.23-.39.39-.56.16-.17.34-.29.56-.38.21-.09.43-.13.66-.13.19,0,.37.02.55.07.18.04.34.12.49.22.15.1.27.23.37.39.1.16.18.32.23.49.06.17.1.35.12.53.02.18.03.36.03.55h-1.14c0-.15-.01-.29-.04-.43-.02-.14-.07-.27-.15-.4-.07-.13-.18-.22-.31-.29s-.27-.1-.42-.1c-.19,0-.38.04-.56.12-.18.08-.33.2-.45.34-.12.15-.22.31-.3.49s-.14.37-.18.56c-.04.19-.07.38-.08.58s-.02.39-.02.57v4.04h-1.14Z"/>
    <path class="cls-3" d="M351.57,107.94c-.26,0-.53-.02-.79-.07-.26-.05-.51-.14-.74-.27-.23-.13-.43-.3-.61-.5-.18-.2-.33-.42-.44-.66-.11-.24-.19-.49-.23-.75-.04-.26-.06-.53-.06-.79v-1.75c0-.26.02-.53.06-.79.04-.26.11-.51.22-.75.11-.24.25-.46.43-.66.18-.2.38-.36.61-.49s.47-.22.73-.27.53-.08.79-.08.53.03.79.08.51.14.73.27.43.29.61.49c.18.2.32.42.43.66.11.24.18.49.22.75.04.26.06.53.06.79v1.39h-4.53v.37c0,.17,0,.33.03.5.02.17.06.33.12.48.06.16.15.3.25.44.1.14.22.25.37.34.14.09.29.16.46.2.17.04.33.06.5.06.19,0,.37-.02.56-.06.19-.04.36-.11.52-.21.16-.1.29-.23.39-.39.1-.17.16-.35.17-.54h1.14c-.01.22-.05.44-.12.65-.07.21-.18.4-.31.58-.13.18-.29.34-.47.47-.18.13-.37.24-.58.31-.2.08-.42.13-.64.16s-.44.04-.66.04ZM353.24,103.5v-.37c0-.17-.01-.33-.03-.5-.02-.17-.06-.33-.12-.48-.06-.16-.14-.3-.24-.44-.1-.14-.22-.25-.36-.34-.14-.09-.29-.16-.45-.2-.17-.04-.33-.06-.5-.06s-.33.02-.5.06c-.17.04-.32.1-.45.2-.14.09-.26.21-.36.34-.1.14-.18.28-.24.44-.06.16-.1.32-.12.48s-.03.33-.03.5v.37h3.39Z"/>
    <path class="cls-3" d="M358.81,107.94c-.25,0-.51-.03-.77-.08-.26-.05-.51-.15-.73-.28-.22-.13-.42-.3-.59-.5-.17-.2-.31-.42-.42-.66-.11-.24-.18-.49-.22-.75-.04-.26-.06-.52-.06-.78v-1.75c0-.26.02-.52.06-.78.04-.26.11-.51.22-.75.11-.24.25-.46.42-.66.17-.2.37-.37.59-.5.22-.13.47-.22.73-.28s.52-.08.77-.08.49.02.73.07.48.12.69.23c.22.11.42.25.59.42.18.17.32.36.44.58.12.21.2.44.26.68s.08.48.08.72v.03h-1.14c0-.24-.03-.46-.1-.67s-.18-.4-.34-.56c-.16-.16-.34-.28-.56-.35-.21-.07-.43-.11-.66-.11-.17,0-.33.02-.49.06-.16.04-.31.11-.45.2-.14.1-.25.21-.34.35-.09.14-.17.28-.23.43-.06.15-.1.31-.12.48s-.03.33-.03.5v1.75c0,.17,0,.33.03.5.02.17.06.32.12.48.06.15.13.29.23.43.09.14.21.25.34.35.14.1.29.17.45.21.16.04.32.06.49.06.22,0,.44-.04.66-.11.21-.07.4-.19.56-.35.16-.16.27-.35.34-.56s.1-.43.1-.66h0s1.14-.01,1.14-.01v.03c0,.24-.03.49-.08.72s-.14.47-.26.68c-.12.21-.26.41-.44.58-.18.17-.37.31-.59.42s-.45.18-.69.23-.49.07-.73.07Z"/>
    <path class="cls-3" d="M365.5,107.82l-2.35-7.6h1.2l1.46,5.07c.06.2.12.41.18.61.06.2.12.41.18.63.06-.21.12-.42.18-.63s.12-.41.18-.61l1.46-5.07h1.2l-2.35,7.6h-1.32Z"/>
    <path class="cls-3" d="M370.75,108.84v-1.02h5.44v1.02h-5.44Z"/>
    <path class="cls-3" d="M380.08,107.94c-.29,0-.58-.04-.86-.13-.28-.09-.52-.24-.72-.45-.2-.21-.34-.46-.42-.75-.08-.28-.12-.57-.12-.86,0-.24.03-.49.1-.73.06-.24.17-.46.33-.66.16-.2.34-.36.55-.49.21-.13.43-.24.67-.31.24-.08.48-.13.72-.16.24-.03.49-.04.75-.04h1.3v-.72c0-.2-.03-.41-.1-.61s-.18-.38-.34-.51c-.16-.14-.34-.23-.54-.29-.21-.06-.41-.09-.61-.09s-.39.02-.58.06c-.19.04-.36.11-.52.22-.16.11-.28.25-.37.42-.09.18-.13.36-.13.54h-1.14c0-.22.03-.44.09-.66.06-.21.16-.41.29-.6.13-.19.28-.34.46-.48.18-.13.37-.24.58-.32.21-.08.42-.14.64-.17.22-.03.45-.04.67-.04s.47.02.7.05c.23.03.46.1.67.2.21.1.41.22.59.38.18.16.33.34.45.54s.2.42.25.66c.05.23.07.47.07.7v5.19h-1.14v-1.26c-.09.21-.21.41-.37.59-.16.18-.34.33-.55.45-.2.12-.42.21-.66.26-.23.05-.47.07-.7.07ZM380.52,106.91c.23,0,.47-.03.71-.09.24-.06.45-.18.62-.34.17-.16.3-.36.39-.58.08-.23.12-.47.12-.71v-.82h-1.3c-.15,0-.29,0-.45.02-.15.01-.3.04-.44.07s-.28.08-.42.15c-.14.06-.26.14-.37.24s-.19.22-.23.36c-.05.14-.07.29-.07.43,0,.18.03.35.1.53.07.18.17.32.31.44.14.12.29.2.48.24.18.04.36.07.55.07Z"/>
    <path class="cls-3" d="M385.38,107.82v-7.6h1.14v1.33c.08-.2.18-.4.31-.58s.28-.35.46-.48c.18-.14.38-.23.6-.29.22-.06.44-.09.65-.09.24,0,.48.03.72.1.23.07.44.18.62.33.18.15.33.33.46.54.13.21.23.43.3.66.07.23.12.46.15.7s.04.48.04.71v4.68h-1.14v-4.68c0-.17,0-.33-.03-.49-.02-.16-.05-.32-.1-.47-.05-.15-.12-.29-.21-.43-.09-.14-.2-.25-.33-.35-.13-.1-.27-.17-.42-.21-.16-.04-.32-.07-.48-.07s-.33.02-.48.07c-.16.04-.3.11-.42.21-.13.1-.24.21-.33.35-.09.14-.16.28-.21.43-.05.15-.08.31-.1.47-.02.16-.03.32-.03.49v4.68h-1.14Z"/>
    <path class="cls-3" d="M395.39,107.94c-.21,0-.43-.01-.64-.04-.21-.02-.42-.07-.63-.15-.2-.07-.4-.17-.58-.29-.19-.12-.34-.26-.48-.43s-.23-.36-.3-.57-.1-.42-.1-.64v-.04h1.14c0,.2.05.37.15.53.1.16.23.28.39.37.16.09.32.15.5.18.18.03.36.04.55.04.18,0,.35-.01.53-.04.18-.03.35-.08.5-.17.16-.08.29-.2.4-.35.11-.15.17-.31.17-.49s-.05-.34-.14-.49c-.09-.15-.21-.28-.34-.37-.14-.1-.29-.17-.45-.23-.16-.05-.32-.1-.49-.14-.17-.04-.33-.08-.49-.12s-.32-.09-.48-.15c-.16-.06-.32-.12-.47-.2-.15-.07-.29-.16-.43-.26-.14-.1-.26-.22-.37-.34-.11-.13-.21-.27-.29-.42-.08-.15-.14-.31-.18-.48-.04-.17-.07-.33-.07-.5,0-.21.03-.42.09-.62s.16-.39.29-.56.28-.31.45-.43c.18-.12.36-.21.56-.29.2-.07.4-.12.61-.15.21-.02.42-.04.62-.04s.42.01.63.04.41.07.61.15c.2.07.39.17.56.29.17.12.32.27.45.43.13.17.22.35.29.56.06.2.09.41.09.61v.04h-1.14c0-.19-.04-.35-.13-.5-.09-.15-.21-.27-.35-.37-.15-.09-.3-.15-.47-.18-.17-.03-.34-.04-.52-.04-.17,0-.33.01-.5.04-.17.03-.33.09-.48.18-.15.09-.27.2-.37.35-.1.15-.15.31-.15.48,0,.21.06.39.19.56.13.17.28.31.45.4.17.1.36.17.56.21s.4.09.6.14.39.1.58.17.37.15.55.25c.18.1.34.22.5.35.16.13.29.28.4.45.11.17.2.35.26.55.06.2.09.4.09.6s-.03.42-.1.63-.17.39-.31.56-.29.31-.48.43c-.18.12-.37.21-.58.28-.21.07-.42.11-.63.14-.21.02-.43.04-.64.04Z"/>
    <path class="cls-3" d="M400.77,107.82l-1.24-7.6h1.16l.69,6.49.77-4.36h1.14l.78,4.36.69-6.49h1.16l-1.24,7.6h-1.13l-.82-4.06-.82,4.06h-1.13Z"/>
    <path class="cls-3" d="M410.06,107.94c-.26,0-.53-.02-.79-.07s-.51-.14-.74-.27c-.23-.13-.43-.3-.61-.5s-.33-.42-.44-.66c-.11-.24-.19-.49-.23-.75-.04-.26-.06-.53-.06-.79v-1.75c0-.26.02-.53.06-.79.04-.26.11-.51.22-.75s.25-.46.43-.66.38-.36.61-.49c.22-.13.47-.22.73-.27.26-.05.53-.08.79-.08s.53.03.79.08c.26.05.51.14.73.27.22.13.43.29.61.49s.32.42.43.66.18.49.22.75c.04.26.06.53.06.79v1.39h-4.53v.37c0,.17,0,.33.03.5.02.17.06.33.12.48.06.16.15.3.25.44.1.14.22.25.37.34.14.09.29.16.46.2.17.04.33.06.5.06.18,0,.37-.02.56-.06s.36-.11.52-.21c.16-.1.29-.23.39-.39.1-.17.16-.35.17-.54h1.14c-.01.22-.05.44-.12.65-.07.21-.17.4-.31.58-.13.18-.29.34-.47.47-.18.13-.37.24-.58.31-.2.08-.42.13-.64.16-.22.03-.44.04-.66.04ZM411.73,103.5v-.37c0-.17-.01-.33-.03-.5-.02-.17-.06-.33-.12-.48-.06-.16-.14-.3-.24-.44-.1-.14-.22-.25-.36-.34-.14-.09-.29-.16-.45-.2-.17-.04-.33-.06-.5-.06s-.33.02-.5.06c-.17.04-.32.1-.45.2-.14.09-.26.21-.36.34-.1.14-.18.28-.24.44-.06.16-.1.32-.12.48s-.03.33-.03.5v.37h3.39Z"/>
    <path class="cls-3" d="M415.5,107.82v-7.6h1.14v1.58c.07-.21.15-.42.26-.63s.23-.39.39-.56c.16-.17.34-.29.56-.38.21-.09.43-.13.66-.13.18,0,.37.02.55.07s.34.12.49.22c.15.1.27.23.37.39.1.16.18.32.23.49.06.17.1.35.12.53.02.18.03.36.03.55h-1.14c0-.15-.01-.29-.04-.43-.02-.14-.07-.27-.15-.4-.07-.13-.17-.22-.31-.29s-.27-.1-.42-.1c-.2,0-.38.04-.56.12-.18.08-.33.2-.45.34-.12.15-.22.31-.3.49s-.14.37-.17.56c-.04.19-.07.38-.08.58s-.02.39-.02.57v4.04h-1.14Z"/>
    <path class="cls-3" d="M426.44,110.17c-.42-.23-.81-.51-1.18-.83-.37-.32-.7-.67-.99-1.05-.29-.39-.54-.8-.75-1.24-.2-.44-.37-.89-.5-1.35s-.22-.94-.27-1.42-.08-.96-.08-1.44.03-.96.08-1.44c.05-.48.14-.96.27-1.42.13-.46.29-.91.5-1.35.21-.44.45-.85.75-1.24.29-.39.62-.74.99-1.05.37-.32.76-.59,1.18-.83l.56.89c-.54.31-1.02.71-1.44,1.18-.42.48-.77,1-1.03,1.57-.26.57-.45,1.17-.55,1.8s-.15,1.26-.15,1.88.05,1.25.15,1.88c.1.63.29,1.23.55,1.8.26.57.61,1.09,1.03,1.57s.9.87,1.44,1.18l-.56.89Z"/>
    <path class="cls-3" d="M430.18,110.17l-.56-.89c.54-.31,1.02-.71,1.44-1.18s.77-1,1.03-1.57c.26-.57.45-1.17.55-1.8.1-.63.15-1.25.15-1.88s-.05-1.25-.15-1.88c-.1-.63-.29-1.23-.55-1.8-.26-.57-.61-1.09-1.03-1.57-.42-.48-.9-.87-1.44-1.18l.56-.89c.42.23.81.51,1.18.83.37.32.69.67.99,1.05.29.39.54.8.75,1.24.21.44.37.89.5,1.35.13.46.22.94.27,1.42.05.48.08.96.08,1.44s-.03.96-.08,1.44-.14.96-.27,1.42-.29.91-.5,1.35c-.21.44-.45.85-.75,1.24-.29.39-.62.74-.99,1.05-.37.32-.76.59-1.18.83Z"/>
  </g>
  <g>
    <path class="cls-3" d="M555.02,106.5v-7.6h1.14v1.58c.07-.21.15-.42.26-.63s.23-.39.39-.56c.16-.17.34-.29.56-.38.21-.09.43-.13.66-.13.18,0,.37.02.55.07s.34.12.49.22c.15.1.27.23.37.39.1.16.18.32.23.49.06.17.1.35.12.53.02.18.03.36.03.55h-1.14c0-.15-.01-.29-.04-.43-.02-.14-.07-.27-.15-.4-.07-.13-.17-.22-.31-.29s-.27-.1-.42-.1c-.2,0-.38.04-.56.12-.18.08-.33.2-.45.34-.12.15-.22.31-.3.49s-.14.37-.17.56c-.04.19-.07.38-.08.58s-.02.39-.02.57v4.04h-1.14Z"/>
    <path class="cls-3" d="M564.2,106.62c-.26,0-.53-.02-.79-.07-.26-.05-.51-.14-.74-.27-.23-.13-.43-.3-.61-.5-.18-.2-.33-.42-.44-.66s-.19-.49-.23-.75-.06-.53-.06-.79v-1.75c0-.26.02-.53.06-.79s.11-.51.22-.75c.11-.24.25-.46.43-.66.18-.2.38-.36.61-.49.22-.13.47-.22.73-.27.26-.05.53-.08.79-.08s.53.03.79.08c.26.05.51.14.73.27.22.13.43.29.61.49.18.2.32.42.43.66.11.24.18.49.22.75s.06.53.06.79v1.39h-4.53v.37c0,.17,0,.33.03.5.02.17.06.33.12.48.06.16.15.3.25.44.1.14.22.25.37.34.14.09.29.16.46.2s.33.06.5.06c.19,0,.37-.02.56-.06.19-.04.36-.11.52-.21.16-.1.29-.23.39-.39.1-.17.16-.35.17-.54h1.14c0,.22-.05.44-.12.65-.07.21-.18.4-.31.58-.13.18-.29.34-.47.47-.18.13-.37.24-.58.31-.21.08-.42.13-.64.16-.22.03-.44.04-.66.04ZM565.87,102.19v-.37c0-.17,0-.33-.03-.5s-.06-.33-.12-.48c-.06-.16-.14-.3-.24-.44-.1-.14-.22-.25-.36-.34-.14-.09-.29-.16-.45-.2-.17-.04-.33-.06-.5-.06s-.33.02-.5.06c-.17.04-.32.1-.45.2-.14.09-.26.21-.36.34-.1.14-.18.28-.24.44-.06.16-.1.32-.12.48s-.03.33-.03.5v.37h3.39Z"/>
    <path class="cls-3" d="M571.44,106.62c-.25,0-.51-.03-.77-.08-.26-.05-.51-.15-.73-.28-.22-.13-.42-.3-.59-.5-.17-.2-.31-.42-.42-.66-.11-.24-.18-.49-.22-.75s-.06-.52-.06-.78v-1.75c0-.26.02-.52.06-.78s.11-.51.22-.75c.11-.24.25-.46.42-.66.17-.2.37-.37.59-.5.22-.13.47-.22.73-.28.26-.05.52-.08.77-.08s.49.02.73.07c.24.04.48.12.69.23.22.11.42.25.59.42.17.17.32.36.44.58.12.21.2.44.26.68s.08.48.08.72v.03h-1.14c0-.24-.03-.46-.1-.67s-.18-.4-.34-.56c-.16-.16-.34-.28-.56-.35-.21-.07-.43-.11-.66-.11-.17,0-.33.02-.49.06-.16.04-.31.11-.45.2-.14.1-.25.21-.34.35-.09.14-.17.28-.23.43-.06.15-.1.31-.12.48s-.03.33-.03.5v1.75c0,.17,0,.33.03.5.02.17.06.32.12.48.06.15.13.29.23.43.09.14.21.25.34.35.14.1.29.17.45.21.16.04.32.06.49.06.22,0,.44-.04.66-.11.21-.07.4-.19.56-.35s.27-.35.34-.56.1-.43.1-.66h0s1.14-.01,1.14-.01v.03c0,.24-.03.49-.08.72s-.14.47-.26.68c-.12.21-.26.41-.44.58-.18.17-.37.31-.59.42-.22.11-.45.18-.69.23-.24.04-.49.07-.73.07Z"/>
    <path class="cls-3" d="M578.13,106.5l-2.35-7.6h1.2l1.46,5.07c.06.2.12.41.18.61s.12.41.18.63c.06-.21.12-.42.17-.63s.12-.41.18-.61l1.46-5.07h1.2l-2.35,7.6h-1.32Z"/>
    <path class="cls-3" d="M583.38,107.53v-1.02h5.44v1.02h-5.44Z"/>
    <path class="cls-3" d="M590.86,106.5v-1.02h2.09v-5.56h-1.89v-1.02h3.03v6.58h1.89v1.02h-5.12ZM593.49,97.61c-.13,0-.25-.02-.37-.05-.12-.03-.22-.09-.31-.18s-.15-.19-.18-.31c-.03-.12-.05-.24-.05-.37s.02-.25.05-.37c.03-.12.09-.22.18-.31s.19-.15.31-.19c.12-.04.24-.06.37-.06s.25.02.37.06c.12.04.22.1.31.19s.15.19.19.31c.04.12.06.24.06.37s-.02.25-.06.37c-.04.12-.1.22-.19.31s-.19.15-.31.18c-.12.03-.24.05-.37.05Z"/>
    <path class="cls-3" d="M600.68,106.62c-.25,0-.51-.03-.77-.08-.26-.05-.51-.15-.73-.28-.22-.13-.42-.3-.59-.5-.17-.2-.31-.42-.42-.66-.11-.24-.18-.49-.22-.75s-.06-.52-.06-.78v-1.75c0-.26.02-.52.06-.78s.11-.51.22-.75c.11-.24.25-.46.42-.66.17-.2.37-.37.59-.5.22-.13.47-.22.73-.28.26-.05.52-.08.77-.08s.49.02.73.07c.24.04.48.12.69.23.22.11.42.25.59.42.17.17.32.36.44.58.12.21.2.44.26.68s.08.48.08.72v.03h-1.14c0-.24-.03-.46-.1-.67s-.18-.4-.34-.56c-.16-.16-.34-.28-.56-.35-.21-.07-.43-.11-.66-.11-.17,0-.33.02-.49.06-.16.04-.31.11-.45.2-.14.1-.25.21-.34.35-.09.14-.17.28-.23.43-.06.15-.1.31-.12.48s-.03.33-.03.5v1.75c0,.17,0,.33.03.5.02.17.06.32.12.48.06.15.13.29.23.43.09.14.21.25.34.35.14.1.29.17.45.21.16.04.32.06.49.06.22,0,.44-.04.66-.11.21-.07.4-.19.56-.35s.27-.35.34-.56.1-.43.1-.66h0s1.14-.01,1.14-.01v.03c0,.24-.03.49-.08.72s-.14.47-.26.68c-.12.21-.26.41-.44.58-.18.17-.37.31-.59.42-.22.11-.45.18-.69.23-.24.04-.49.07-.73.07Z"/>
    <path class="cls-3" d="M608.07,106.62c-.26,0-.53-.02-.79-.07s-.51-.14-.74-.27c-.23-.13-.43-.3-.61-.5s-.33-.42-.44-.66c-.11-.24-.19-.49-.23-.75-.04-.26-.06-.53-.06-.79v-1.75c0-.26.02-.53.06-.79.04-.26.11-.51.22-.75s.25-.46.43-.66.38-.36.61-.49c.22-.13.47-.22.73-.27.26-.05.53-.08.79-.08s.53.03.79.08c.26.05.51.14.73.27.22.13.43.29.61.49s.32.42.43.66.18.49.22.75c.04.26.06.53.06.79v1.39h-4.53v.37c0,.17,0,.33.03.5.02.17.06.33.12.48.06.16.15.3.25.44.1.14.22.25.37.34.14.09.29.16.46.2.17.04.33.06.5.06.18,0,.37-.02.56-.06s.36-.11.52-.21c.16-.1.29-.23.39-.39.1-.17.16-.35.17-.54h1.14c-.01.22-.05.44-.12.65-.07.21-.17.4-.31.58-.13.18-.29.34-.47.47-.18.13-.37.24-.58.31-.2.08-.42.13-.64.16-.22.03-.44.04-.66.04ZM609.73,102.19v-.37c0-.17-.01-.33-.03-.5-.02-.17-.06-.33-.12-.48-.06-.16-.14-.3-.24-.44-.1-.14-.22-.25-.36-.34-.14-.09-.29-.16-.45-.2-.17-.04-.33-.06-.5-.06s-.33.02-.5.06c-.17.04-.32.1-.45.2-.14.09-.26.21-.36.34-.1.14-.18.28-.24.44-.06.16-.1.32-.12.48s-.03.33-.03.5v.37h3.39Z"/>
    <path class="cls-3" d="M617.13,108.86c-.42-.23-.81-.51-1.18-.83s-.69-.67-.99-1.05c-.29-.39-.54-.8-.75-1.24-.21-.44-.37-.89-.5-1.35-.13-.46-.22-.94-.27-1.42-.05-.48-.08-.96-.08-1.44s.03-.96.08-1.44c.05-.48.14-.96.27-1.42.13-.46.29-.91.5-1.35.2-.44.45-.85.75-1.24.29-.39.62-.74.99-1.05s.76-.59,1.18-.83l.56.89c-.54.31-1.02.71-1.44,1.18-.42.48-.77,1-1.03,1.57-.26.57-.45,1.17-.55,1.8-.1.63-.15,1.26-.15,1.88s.05,1.25.15,1.88c.1.63.29,1.23.55,1.8.26.57.61,1.09,1.03,1.57.42.48.9.87,1.44,1.18l-.56.89Z"/>
    <path class="cls-3" d="M620.88,108.86l-.56-.89c.54-.31,1.02-.71,1.44-1.18s.77-1,1.03-1.57c.26-.57.45-1.17.55-1.8.1-.63.15-1.25.15-1.88s-.05-1.25-.15-1.88c-.1-.63-.29-1.23-.55-1.8-.26-.57-.61-1.09-1.03-1.57-.42-.48-.9-.87-1.44-1.18l.56-.89c.42.23.81.51,1.18.83.37.32.69.67.99,1.05.29.39.54.8.75,1.24.21.44.37.89.5,1.35.13.46.22.94.27,1.42.05.48.08.96.08,1.44s-.03.96-.08,1.44-.14.96-.27,1.42-.29.91-.5,1.35c-.21.44-.45.85-.75,1.24-.29.39-.62.74-.99,1.05-.37.32-.76.59-1.18.83Z"/>
  </g>
  <g>
    <path class="cls-3" d="M673.75,12.41c-.25,0-.51-.03-.77-.08-.26-.05-.51-.15-.73-.28-.22-.13-.42-.3-.59-.5-.17-.2-.31-.42-.42-.66-.11-.24-.18-.49-.22-.75s-.06-.52-.06-.78v-1.75c0-.26.02-.52.06-.78s.11-.51.22-.75c.11-.24.25-.46.42-.66.17-.2.37-.37.59-.5.22-.13.47-.22.73-.28.26-.05.52-.08.77-.08s.49.02.73.07c.24.04.48.12.69.23.22.11.42.25.59.42.17.17.32.36.44.58.12.21.2.44.26.68s.08.48.08.72v.03h-1.14c0-.24-.03-.46-.1-.67s-.18-.4-.34-.56c-.16-.16-.34-.28-.56-.35-.21-.07-.43-.11-.66-.11-.17,0-.33.02-.49.06-.16.04-.31.11-.45.2-.14.1-.25.21-.34.35-.09.14-.17.28-.23.43-.06.15-.1.31-.12.48s-.03.33-.03.5v1.75c0,.17,0,.33.03.5.02.17.06.32.12.48.06.15.13.29.23.43.09.14.21.25.34.35.14.1.29.17.45.21.16.04.32.06.49.06.22,0,.44-.04.66-.11.21-.07.4-.19.56-.35s.27-.35.34-.56.1-.43.1-.66h0s1.14-.01,1.14-.01v.03c0,.24-.03.49-.08.72s-.14.47-.26.68c-.12.21-.26.41-.44.58-.18.17-.37.31-.59.42-.22.11-.45.18-.69.23-.24.04-.49.07-.73.07Z"/>
    <path class="cls-3" d="M678.54,12.3v-1.02h2.09V2.57h-1.89v-1.02h3.03v9.72h1.89v1.02h-5.12Z"/>
    <path class="cls-3" d="M688.41,12.41c-.26,0-.53-.03-.79-.08-.26-.05-.51-.14-.73-.27-.22-.13-.43-.29-.61-.49s-.32-.42-.43-.66-.18-.49-.22-.75c-.04-.26-.06-.53-.06-.79v-1.75c0-.26.02-.53.06-.79.04-.26.11-.51.22-.75s.25-.46.43-.66.38-.36.61-.49c.22-.13.47-.22.73-.27.26-.05.53-.08.79-.08s.53.03.79.08c.26.05.51.14.73.27.22.13.43.29.61.49s.32.42.43.66.18.49.22.75c.04.26.06.53.06.79v1.75c0,.26-.02.53-.06.79-.04.26-.11.51-.22.75s-.25.46-.43.66-.38.36-.61.49c-.22.13-.47.22-.73.27-.26.05-.53.08-.79.08ZM688.41,11.39c.17,0,.33-.02.5-.06.17-.04.32-.1.45-.2.14-.09.26-.21.36-.34.1-.14.18-.28.24-.44.06-.16.1-.32.12-.48.02-.17.03-.33.03-.5v-1.75c0-.17-.01-.33-.03-.5-.02-.17-.06-.33-.12-.48-.06-.16-.14-.3-.24-.44-.1-.14-.22-.25-.36-.34-.14-.09-.29-.16-.45-.2-.17-.04-.33-.06-.5-.06s-.33.02-.5.06c-.17.04-.32.1-.45.2-.14.09-.26.21-.36.34-.1.14-.18.28-.24.44-.06.16-.1.32-.12.48s-.03.33-.03.5v1.75c0,.17,0,.33.03.5.02.17.06.33.12.48.06.16.14.3.24.44.1.14.22.25.36.34.14.09.29.16.45.2.17.04.33.06.5.06Z"/>
    <path class="cls-3" d="M695.71,12.41c-.21,0-.43-.01-.64-.04-.21-.02-.42-.07-.63-.15-.2-.07-.4-.17-.58-.29-.19-.12-.34-.26-.48-.43s-.23-.36-.3-.57-.1-.42-.1-.64v-.04h1.14c0,.2.05.37.15.53.1.16.23.28.39.37.16.09.32.15.5.18.18.03.36.04.55.04.18,0,.35-.01.53-.04.18-.03.35-.08.5-.17.16-.08.29-.2.4-.35.11-.15.17-.31.17-.49s-.05-.34-.14-.49c-.09-.15-.21-.28-.34-.37-.14-.1-.29-.17-.45-.23-.16-.05-.32-.1-.49-.14-.17-.04-.33-.08-.49-.12s-.32-.09-.48-.15c-.16-.06-.32-.12-.47-.2-.15-.07-.29-.16-.43-.26-.14-.1-.26-.22-.37-.34-.11-.13-.21-.27-.29-.42-.08-.15-.14-.31-.18-.48-.04-.17-.07-.33-.07-.5,0-.21.03-.42.09-.62s.16-.39.29-.56.28-.31.45-.43c.18-.12.36-.21.56-.29.2-.07.4-.12.61-.15.21-.02.42-.04.62-.04s.42.01.63.04.41.07.61.15c.2.07.39.17.56.29.17.12.32.27.45.43.13.17.22.35.29.56.06.2.09.41.09.61v.04h-1.14c0-.19-.04-.35-.13-.5-.09-.15-.21-.27-.35-.37-.15-.09-.3-.15-.47-.18-.17-.03-.34-.04-.52-.04-.17,0-.33.01-.5.04-.17.03-.33.09-.48.18-.15.09-.27.2-.37.35-.1.15-.15.31-.15.48,0,.21.06.39.19.56.13.17.28.31.45.4.17.1.36.17.56.21s.4.09.6.14.39.1.58.17.37.15.55.25c.18.1.34.22.5.35.16.13.29.28.4.45.11.17.2.35.26.55.06.2.09.4.09.6s-.03.42-.1.63-.17.39-.31.56-.29.31-.48.43c-.18.12-.37.21-.58.28-.21.07-.42.11-.63.14-.21.02-.43.04-.64.04Z"/>
    <path class="cls-3" d="M703.06,12.41c-.26,0-.53-.02-.79-.07-.26-.05-.51-.14-.74-.27-.23-.13-.43-.3-.61-.5-.18-.2-.33-.42-.44-.66s-.19-.49-.23-.75-.06-.53-.06-.79v-1.75c0-.26.02-.53.06-.79s.11-.51.22-.75c.11-.24.25-.46.43-.66.18-.2.38-.36.61-.49.22-.13.47-.22.73-.27.26-.05.53-.08.79-.08s.53.03.79.08c.26.05.51.14.73.27.22.13.43.29.61.49.18.2.32.42.43.66.11.24.18.49.22.75s.06.53.06.79v1.39h-4.53v.37c0,.17,0,.33.03.5.02.17.06.33.12.48.06.16.15.3.25.44.1.14.22.25.37.34.14.09.29.16.46.2s.33.06.5.06c.19,0,.37-.02.56-.06.19-.04.36-.11.52-.21.16-.1.29-.23.39-.39.1-.17.16-.35.17-.54h1.14c0,.22-.05.44-.12.65-.07.21-.18.4-.31.58-.13.18-.29.34-.47.47-.18.13-.37.24-.58.31-.21.08-.42.13-.64.16-.22.03-.44.04-.66.04ZM704.73,7.98v-.37c0-.17,0-.33-.03-.5s-.06-.33-.12-.48c-.06-.16-.14-.3-.24-.44-.1-.14-.22-.25-.36-.34-.14-.09-.29-.16-.45-.2-.17-.04-.33-.06-.5-.06s-.33.02-.5.06c-.17.04-.32.1-.45.2-.14.09-.26.21-.36.34-.1.14-.18.28-.24.44-.06.16-.1.32-.12.48s-.03.33-.03.5v.37h3.39Z"/>
    <path class="cls-3" d="M712.13,14.65c-.42-.23-.81-.51-1.18-.83s-.69-.67-.99-1.05c-.29-.39-.54-.8-.75-1.24-.21-.44-.37-.89-.5-1.35-.13-.46-.22-.94-.27-1.42-.05-.48-.08-.96-.08-1.44s.03-.96.08-1.44c.05-.48.14-.96.27-1.42.13-.46.29-.91.5-1.35.2-.44.45-.85.75-1.24.29-.39.62-.74.99-1.05s.76-.59,1.18-.83l.56.89c-.54.31-1.02.71-1.44,1.18-.42.48-.77,1-1.03,1.57-.26.57-.45,1.17-.55,1.8-.1.63-.15,1.26-.15,1.88s.05,1.25.15,1.88c.1.63.29,1.23.55,1.8.26.57.61,1.09,1.03,1.57.42.48.9.87,1.44,1.18l-.56.89Z"/>
    <path class="cls-3" d="M715.87,14.65l-.56-.89c.54-.31,1.02-.71,1.44-1.18s.77-1,1.03-1.57c.26-.57.45-1.17.55-1.8.1-.63.15-1.25.15-1.88s-.05-1.25-.15-1.88-.29-1.23-.55-1.8c-.26-.57-.61-1.09-1.03-1.57-.42-.48-.9-.87-1.44-1.18l.56-.89c.42.23.81.51,1.18.83.37.32.69.67.99,1.05.29.39.54.8.75,1.24.2.44.37.89.5,1.35.13.46.22.94.27,1.42.05.48.08.96.08,1.44s-.03.96-.08,1.44c-.05.48-.14.96-.27,1.42-.13.46-.29.91-.5,1.35-.21.44-.45.85-.75,1.24-.29.39-.62.74-.99,1.05-.37.32-.76.59-1.18.83Z"/>
  </g>
  <g>
    <path class="cls-3" d="M450.88,229.27c-.21,0-.43-.01-.64-.04-.21-.02-.42-.07-.63-.15s-.4-.17-.58-.29-.34-.26-.48-.43c-.13-.17-.23-.36-.3-.57-.07-.21-.1-.42-.1-.64v-.04h1.14c0,.2.05.37.15.53s.23.28.39.37c.16.09.32.15.5.18s.36.04.55.04c.17,0,.35-.01.53-.04s.35-.08.5-.17c.16-.08.29-.2.4-.35.11-.15.17-.31.17-.49s-.05-.34-.14-.49c-.09-.15-.21-.28-.34-.37-.14-.1-.29-.17-.45-.23-.16-.05-.32-.1-.49-.14s-.33-.08-.49-.12c-.16-.04-.32-.09-.48-.15-.16-.06-.32-.12-.47-.2-.15-.07-.29-.16-.43-.26-.14-.1-.26-.22-.37-.34s-.21-.27-.29-.42c-.08-.15-.14-.31-.18-.47-.04-.17-.07-.33-.07-.5,0-.21.03-.42.1-.62.06-.2.16-.38.29-.56.13-.17.28-.31.45-.43.18-.12.36-.21.56-.29.19-.07.4-.12.61-.15s.42-.04.62-.04.42.01.63.04c.21.02.41.07.61.15.2.07.38.17.56.29.17.12.32.27.45.43.13.17.22.35.29.56.06.2.09.41.09.61v.04h-1.14c0-.19-.04-.35-.13-.5s-.2-.27-.35-.37c-.15-.09-.3-.15-.48-.18s-.34-.04-.52-.04-.33.01-.5.04-.33.09-.48.18c-.15.09-.27.21-.37.35-.1.15-.15.31-.15.48,0,.21.06.39.19.56s.28.3.45.4.36.17.56.21c.2.04.4.09.6.14.2.05.39.1.58.17.19.06.37.15.55.25s.34.22.5.35.29.28.4.45c.11.17.2.35.26.55s.1.39.1.6-.03.42-.1.63c-.07.2-.17.39-.31.56-.14.17-.29.31-.47.43-.18.12-.37.21-.58.28-.2.07-.41.12-.63.14-.21.02-.43.04-.64.04Z"/>
    <path class="cls-3" d="M458.23,229.27c-.26,0-.53-.02-.79-.07-.26-.05-.51-.14-.74-.27-.23-.13-.43-.3-.61-.5-.18-.2-.33-.42-.44-.66-.11-.24-.19-.49-.23-.75-.04-.26-.06-.53-.06-.79v-1.75c0-.26.02-.53.06-.79.04-.26.11-.51.22-.75.11-.24.25-.46.43-.66.18-.2.38-.36.61-.49.22-.13.47-.22.73-.27.26-.05.53-.08.79-.08s.53.03.79.08c.26.05.51.14.73.27.22.13.43.29.61.49.18.2.32.42.43.66.11.24.18.49.22.75.04.26.06.53.06.79v1.39h-4.53v.37c0,.17,0,.33.03.5s.06.33.12.48.15.3.25.44.22.25.37.34.29.16.46.2.33.06.5.06c.19,0,.37-.02.56-.06.19-.04.36-.11.52-.21.16-.1.29-.23.39-.39s.16-.35.17-.54h1.14c0,.22-.05.44-.12.65-.07.21-.18.41-.31.58-.13.18-.29.34-.47.47-.18.13-.37.24-.58.31-.21.08-.42.13-.64.16-.22.03-.44.04-.66.04ZM459.9,224.83v-.37c0-.17,0-.33-.03-.5-.02-.17-.06-.33-.12-.48-.06-.16-.14-.3-.24-.44-.1-.14-.22-.25-.36-.34-.14-.09-.29-.16-.45-.2-.17-.04-.33-.06-.5-.06s-.33.02-.5.06c-.17.04-.32.11-.45.2-.14.09-.26.21-.36.34-.1.14-.18.28-.24.44-.06.16-.1.32-.12.48-.02.17-.03.33-.03.5v.37h3.39Z"/>
    <path class="cls-3" d="M462.8,229.15v-7.6h1.14v1.33c.08-.21.18-.4.31-.58.13-.19.28-.35.46-.48.18-.14.38-.23.6-.29s.44-.09.65-.09c.24,0,.48.03.72.1s.44.18.62.33c.18.15.33.33.46.54s.23.43.3.66c.07.23.12.46.15.7.02.24.04.47.04.71v4.68h-1.14v-4.68c0-.17,0-.33-.03-.49s-.05-.32-.1-.47-.12-.29-.21-.43c-.09-.14-.2-.25-.33-.35-.13-.1-.27-.17-.42-.21s-.32-.07-.48-.07-.33.02-.48.07-.3.11-.42.21c-.13.1-.24.21-.33.35-.09.14-.16.28-.21.43s-.08.31-.1.47-.03.32-.03.49v4.68h-1.14Z"/>
    <path class="cls-3" d="M472.37,229.27c-.24,0-.48-.03-.72-.1-.24-.07-.46-.17-.65-.32s-.36-.32-.49-.53c-.13-.21-.24-.42-.31-.65-.08-.23-.13-.46-.16-.71-.03-.24-.04-.49-.04-.73v-1.75c0-.24.01-.49.04-.73.03-.24.08-.48.16-.71s.18-.45.31-.65c.13-.21.29-.38.49-.53.2-.15.41-.25.65-.32.24-.07.48-.1.72-.1.22,0,.45.03.67.09.22.06.42.15.6.29.18.13.33.29.46.48.13.19.23.39.31.59v-4.47h1.14v10.75h-1.14v-1.33c-.08.2-.18.4-.31.59s-.28.35-.46.48c-.18.13-.38.23-.6.29-.22.06-.44.09-.67.09ZM472.81,228.24c.17,0,.33-.02.49-.07.16-.04.3-.12.43-.21.13-.1.24-.21.33-.35s.16-.28.21-.43c.05-.15.08-.31.1-.47s.03-.32.03-.49v-1.75c0-.17,0-.33-.03-.49s-.05-.32-.1-.47-.12-.3-.21-.44-.2-.26-.33-.36-.27-.17-.43-.21c-.16-.04-.32-.06-.49-.06s-.33.02-.49.06c-.16.04-.31.11-.45.2-.14.09-.26.21-.36.34-.1.14-.18.28-.24.44-.06.16-.1.32-.12.48-.02.17-.03.33-.03.5v1.75c0,.17,0,.33.03.5s.06.33.12.48c.06.16.14.3.24.44.1.14.22.25.36.34s.29.16.45.2.32.06.49.06Z"/>
    <path class="cls-3" d="M477.42,230.17v-1.02h5.44v1.02h-5.44Z"/>
    <path class="cls-3" d="M484.89,229.15v-1.02h2.09v-5.56h-1.89v-1.02h3.03v6.58h1.89v1.02h-5.12ZM487.52,220.26c-.13,0-.25-.02-.37-.05-.12-.03-.22-.09-.31-.18s-.15-.19-.18-.31c-.03-.12-.05-.24-.05-.37s.02-.25.05-.37c.03-.12.09-.22.18-.31s.19-.15.31-.19c.12-.04.24-.06.37-.06s.25.02.37.06c.12.04.22.1.31.19s.15.19.19.31c.04.12.06.24.06.37s-.02.25-.06.37c-.04.12-.1.22-.19.31s-.19.15-.31.18c-.12.03-.24.05-.37.05Z"/>
    <path class="cls-3" d="M494.72,229.27c-.25,0-.51-.03-.77-.08-.26-.05-.51-.15-.73-.28-.22-.13-.42-.3-.59-.5-.17-.2-.31-.42-.42-.66-.11-.24-.18-.49-.22-.75-.04-.26-.06-.52-.06-.78v-1.75c0-.26.02-.52.06-.78.04-.26.11-.51.22-.75.11-.24.25-.46.42-.66.17-.2.37-.37.59-.5.22-.13.47-.22.73-.28.26-.05.52-.08.77-.08s.49.02.73.07c.24.04.48.12.69.23.22.11.42.25.59.42.17.17.32.36.44.58s.2.44.26.68c.05.24.08.48.08.72v.03h-1.14c0-.24-.03-.46-.1-.67-.07-.21-.18-.4-.34-.56s-.34-.28-.56-.35c-.21-.07-.43-.11-.66-.11-.17,0-.33.02-.49.06-.16.04-.31.11-.45.21s-.25.21-.34.35c-.09.14-.17.28-.23.43s-.1.31-.12.48c-.02.17-.03.33-.03.5v1.75c0,.17,0,.33.03.5s.06.32.12.47c.06.15.13.29.23.43s.21.25.34.35c.14.1.29.17.45.21.16.04.32.06.49.06.22,0,.44-.04.66-.11.21-.07.4-.19.56-.35.16-.16.27-.35.34-.56.07-.21.1-.43.1-.66h0s1.14-.01,1.14-.01v.03c0,.24-.03.49-.08.72-.05.24-.14.47-.26.68-.12.21-.26.41-.44.58-.18.17-.37.31-.59.42-.22.11-.45.18-.69.23-.24.04-.49.07-.73.07Z"/>
    <path class="cls-3" d="M502.1,229.27c-.26,0-.53-.02-.79-.07s-.51-.14-.74-.27c-.23-.13-.43-.3-.61-.5-.18-.2-.33-.42-.44-.66-.11-.24-.19-.49-.23-.75-.04-.26-.06-.53-.06-.79v-1.75c0-.26.02-.53.06-.79.04-.26.11-.51.22-.75.11-.24.25-.46.43-.66.18-.2.38-.36.61-.49.22-.13.47-.22.73-.27.26-.05.53-.08.79-.08s.53.03.79.08c.26.05.51.14.73.27.22.13.43.29.61.49.18.2.32.42.43.66.11.24.18.49.22.75.04.26.06.53.06.79v1.39h-4.53v.37c0,.17,0,.33.03.5s.06.33.12.48.15.3.25.44c.1.14.22.25.37.34.14.09.29.16.46.2.17.04.33.06.5.06.18,0,.37-.02.56-.06s.36-.11.52-.21c.16-.1.29-.23.39-.39.1-.17.16-.35.17-.54h1.14c-.01.22-.05.44-.12.65-.07.21-.17.41-.31.58-.13.18-.29.34-.47.47-.18.13-.37.24-.58.31-.2.08-.42.13-.64.16-.22.03-.44.04-.66.04ZM503.77,224.83v-.37c0-.17-.01-.33-.03-.5-.02-.17-.06-.33-.12-.48-.06-.16-.14-.3-.24-.44-.1-.14-.22-.25-.36-.34-.14-.09-.29-.16-.45-.2-.17-.04-.33-.06-.5-.06s-.33.02-.5.06c-.17.04-.32.11-.45.2-.14.09-.26.21-.36.34-.1.14-.18.28-.24.44-.06.16-.1.32-.12.48-.02.17-.03.33-.03.5v.37h3.39Z"/>
    <path class="cls-3" d="M511.17,231.5c-.42-.23-.81-.51-1.18-.83-.37-.32-.69-.67-.99-1.05-.29-.39-.54-.8-.75-1.24-.21-.44-.37-.89-.5-1.35-.13-.46-.22-.94-.27-1.42-.05-.48-.08-.96-.08-1.44s.03-.96.08-1.44c.05-.48.14-.96.27-1.42.13-.46.29-.91.5-1.35.2-.44.45-.85.75-1.24.29-.39.62-.74.99-1.05.37-.32.76-.59,1.18-.83l.56.89c-.54.31-1.02.71-1.44,1.18-.42.48-.77,1-1.03,1.57-.26.57-.45,1.17-.55,1.8-.1.63-.15,1.26-.15,1.88s.05,1.25.15,1.88c.1.63.29,1.23.55,1.8.26.57.61,1.09,1.03,1.57.42.48.9.87,1.44,1.18l-.56.89Z"/>
    <path class="cls-3" d="M514.91,231.5l-.56-.89c.54-.31,1.02-.71,1.44-1.18s.77-1,1.03-1.57c.26-.57.45-1.17.55-1.8.1-.63.15-1.25.15-1.88s-.05-1.25-.15-1.88c-.1-.63-.29-1.23-.55-1.8-.26-.57-.61-1.09-1.03-1.57s-.9-.87-1.44-1.18l.56-.89c.42.23.81.51,1.18.83.37.32.69.67.99,1.05.29.38.54.8.75,1.24s.37.89.5,1.35.22.94.27,1.42c.05.48.08.96.08,1.44s-.03.96-.08,1.44-.14.96-.27,1.42-.29.91-.5,1.35c-.21.44-.45.85-.75,1.24-.29.38-.62.74-.99,1.05-.37.32-.76.59-1.18.83Z"/>
  </g>
  <g>
    <path class="cls-3" d="M0,121.99v-7.6h1.14v1.33c.08-.2.18-.4.31-.58.13-.19.28-.35.46-.48.18-.14.38-.23.6-.29.22-.06.44-.09.65-.09.24,0,.48.03.72.1.23.07.44.18.62.33.18.15.33.33.46.54.13.21.23.43.3.66.07.23.12.46.15.7s.04.48.04.71v4.68h-1.14v-4.68c0-.17,0-.33-.03-.49-.02-.16-.05-.32-.1-.47-.05-.15-.12-.29-.21-.43-.09-.14-.2-.25-.33-.35-.13-.1-.27-.17-.42-.21-.16-.04-.32-.07-.48-.07s-.33.02-.48.07c-.16.04-.3.11-.42.21-.13.1-.24.21-.33.35-.09.14-.16.28-.21.43-.05.15-.08.31-.1.47-.02.16-.03.32-.03.49v4.68H0Z"/>
    <path class="cls-3" d="M10.06,122.11c-.26,0-.53-.02-.79-.07-.26-.05-.51-.14-.74-.27-.23-.13-.43-.3-.61-.5-.18-.2-.33-.42-.44-.66-.11-.24-.19-.49-.23-.75-.04-.26-.06-.53-.06-.79v-1.75c0-.26.02-.53.06-.79.04-.26.11-.51.22-.75.11-.24.25-.46.43-.66.18-.2.38-.36.61-.49s.47-.22.73-.27.53-.08.79-.08.53.03.79.08.51.14.73.27.43.29.61.49c.18.2.32.42.43.66.11.24.18.49.22.75.04.26.06.53.06.79v1.39h-4.53v.37c0,.17,0,.33.03.5.02.17.06.33.12.48.06.16.15.3.25.44.1.14.22.25.37.34.14.09.29.16.46.2.17.04.33.06.5.06.19,0,.37-.02.56-.06.19-.04.36-.11.52-.21.16-.1.29-.23.39-.39.1-.17.16-.35.17-.54h1.14c-.01.22-.05.44-.12.65-.07.21-.18.4-.31.58-.13.18-.29.34-.47.47-.18.13-.37.24-.58.31-.2.08-.42.13-.64.16s-.44.04-.66.04ZM11.73,117.68v-.37c0-.17-.01-.33-.03-.5-.02-.17-.06-.33-.12-.48-.06-.16-.14-.3-.24-.44-.1-.14-.22-.25-.36-.34-.14-.09-.29-.16-.45-.2-.17-.04-.33-.06-.5-.06s-.33.02-.5.06c-.17.04-.32.1-.45.2-.14.09-.26.21-.36.34-.1.14-.18.28-.24.44-.06.16-.1.32-.12.48s-.03.33-.03.5v.37h3.39Z"/>
    <path class="cls-3" d="M17.3,125.25c-.22,0-.45-.02-.67-.05-.22-.03-.43-.09-.64-.18-.21-.08-.4-.2-.57-.34-.18-.14-.32-.3-.45-.49s-.21-.39-.28-.6-.1-.43-.11-.66h1.14c0,.19.06.38.14.55.08.17.2.31.35.43.15.12.32.2.5.24.19.04.38.07.57.07.17,0,.33-.02.49-.06.16-.04.31-.11.44-.2.13-.1.24-.21.34-.35.09-.14.17-.28.22-.44.05-.16.09-.31.11-.48.02-.16.03-.32.03-.49v-1.55c-.08.2-.18.4-.31.59-.13.19-.28.35-.46.48-.18.13-.38.23-.6.29s-.44.09-.67.09c-.24,0-.48-.03-.72-.1s-.46-.18-.65-.32c-.19-.15-.36-.32-.49-.53-.13-.2-.24-.42-.31-.65-.08-.23-.13-.47-.16-.71s-.04-.49-.04-.73v-1.75c0-.24.01-.49.04-.73s.08-.48.16-.71c.08-.23.18-.45.31-.65.13-.21.29-.38.49-.53.2-.15.41-.25.65-.32s.48-.1.72-.1c.22,0,.45.03.67.09.22.06.42.15.6.29.18.13.33.29.46.48.13.19.23.39.31.59v-1.33h1.14v7.82c0,.26-.02.52-.06.78s-.11.51-.21.75c-.1.24-.24.46-.41.66s-.37.37-.59.5c-.22.13-.47.22-.72.28s-.51.08-.77.08ZM17.33,121.08c.17,0,.33-.02.49-.06s.3-.11.43-.21c.13-.1.24-.22.33-.36.09-.14.16-.29.21-.44.05-.15.08-.31.1-.47.02-.16.03-.32.03-.49v-1.75c0-.17,0-.33-.03-.49-.02-.16-.05-.32-.1-.47-.05-.15-.12-.3-.21-.44-.09-.14-.2-.26-.33-.36-.13-.1-.27-.17-.43-.2-.16-.04-.32-.06-.49-.06s-.33.02-.49.06c-.16.04-.31.1-.45.2-.14.09-.26.21-.36.34-.1.14-.18.28-.24.44-.06.16-.1.32-.12.48s-.03.33-.03.5v1.75c0,.17,0,.33.03.5.02.17.06.33.12.48.06.16.14.3.24.44.1.14.22.25.36.34.14.09.29.16.45.2.16.04.32.06.49.06Z"/>
    <path class="cls-3" d="M24.65,122.11c-.26,0-.53-.03-.79-.08-.26-.05-.51-.14-.73-.27-.22-.13-.43-.29-.61-.49-.18-.2-.32-.42-.43-.66-.11-.24-.18-.49-.22-.75-.04-.26-.06-.53-.06-.79v-1.75c0-.26.02-.53.06-.79.04-.26.11-.51.22-.75.11-.24.25-.46.43-.66.18-.2.38-.36.61-.49s.47-.22.73-.27.53-.08.79-.08.53.03.79.08.51.14.73.27.43.29.61.49c.18.2.32.42.43.66.11.24.18.49.22.75.04.26.06.53.06.79v1.75c0,.26-.02.53-.06.79-.04.26-.11.51-.22.75-.11.24-.25.46-.43.66-.18.2-.38.36-.61.49-.22.13-.47.22-.73.27-.26.05-.53.08-.79.08ZM24.65,121.08c.17,0,.33-.02.5-.06.17-.04.32-.1.45-.2.14-.09.26-.21.36-.34.1-.14.18-.28.24-.44.06-.16.1-.32.12-.48.02-.17.03-.33.03-.5v-1.75c0-.17-.01-.33-.03-.5-.02-.17-.06-.33-.12-.48-.06-.16-.14-.3-.24-.44-.1-.14-.22-.25-.36-.34-.14-.09-.29-.16-.45-.2-.17-.04-.33-.06-.5-.06s-.33.02-.5.06c-.17.04-.32.1-.45.2-.14.09-.26.21-.36.34-.1.14-.18.28-.24.44-.06.16-.1.32-.12.48s-.03.33-.03.5v1.75c0,.17,0,.33.03.5.02.17.06.33.12.48.06.16.14.3.24.44.1.14.22.25.36.34.14.09.29.16.45.2.17.04.33.06.5.06Z"/>
    <path class="cls-3" d="M32.93,122.11c-.21,0-.43-.03-.65-.08-.22-.05-.42-.15-.6-.28-.18-.13-.33-.29-.46-.48-.13-.19-.23-.38-.3-.59-.07-.21-.12-.42-.15-.64s-.04-.44-.04-.67v-3.96h-1.4v-1.02h1.4v-3.14h1.14v3.14h2.57v1.02h-2.57v3.96c0,.13,0,.25.01.38,0,.13.03.25.06.37s.07.24.12.36c.05.12.11.22.2.31.08.09.19.16.31.21.12.05.24.07.36.07s.23-.02.34-.06c.11-.04.21-.1.29-.18.08-.08.15-.17.2-.28.05-.11.1-.21.13-.32.03-.11.06-.22.07-.34.01-.12.02-.23.02-.35v-.09h1.14v.15c0,.2-.02.41-.06.62-.04.21-.1.41-.18.6s-.18.37-.31.54c-.13.17-.29.31-.46.42-.18.11-.37.19-.57.23s-.41.07-.63.07Z"/>
    <path class="cls-3" d="M36.72,121.99v-1.02h2.09v-5.56h-1.89v-1.02h3.03v6.58h1.89v1.02h-5.12ZM39.35,113.1c-.13,0-.25-.02-.37-.05-.12-.03-.22-.09-.31-.18s-.15-.19-.18-.31c-.03-.12-.05-.24-.05-.37s.02-.25.05-.37c.03-.12.09-.22.18-.31s.19-.15.31-.19c.12-.04.24-.06.37-.06s.25.02.37.06c.12.04.22.1.31.19s.15.19.19.31c.04.12.06.24.06.37s-.02.25-.06.37c-.04.12-.1.22-.19.31s-.19.15-.31.18c-.12.03-.24.05-.37.05Z"/>
    <path class="cls-3" d="M45.89,122.11c-.29,0-.58-.04-.86-.13s-.52-.24-.72-.45-.34-.46-.42-.75c-.08-.28-.12-.57-.12-.86,0-.24.03-.49.1-.73.06-.24.17-.46.33-.66.16-.2.34-.36.55-.49.21-.13.43-.24.67-.31.24-.08.48-.13.72-.16s.49-.04.75-.04h1.3v-.72c0-.2-.03-.41-.1-.61s-.18-.38-.34-.51c-.16-.14-.34-.23-.54-.29-.21-.06-.41-.09-.61-.09s-.39.02-.58.06c-.19.04-.36.11-.52.22-.16.11-.28.25-.37.42-.09.18-.13.36-.13.54h-1.14c0-.22.03-.44.09-.66.06-.21.16-.41.29-.6.13-.19.28-.34.46-.48.18-.13.37-.24.58-.32.2-.08.42-.14.64-.17s.45-.04.67-.04.47.02.7.05.46.1.67.2c.21.1.41.22.59.38.18.16.33.34.45.54s.2.42.25.66c.05.23.07.47.07.7v5.19h-1.14v-1.26c-.09.21-.21.41-.37.59-.16.18-.34.33-.55.45-.2.12-.42.21-.66.26s-.47.07-.7.07ZM46.32,121.08c.23,0,.47-.03.71-.09s.45-.18.62-.34c.18-.16.3-.36.39-.58.08-.23.12-.47.12-.71v-.82h-1.3c-.15,0-.29,0-.45.02-.15.01-.3.04-.44.07-.14.03-.28.08-.42.15-.14.06-.26.14-.37.24-.11.1-.19.22-.23.36-.05.14-.07.29-.07.43,0,.18.03.35.1.53.07.18.17.32.31.44.14.12.29.2.48.24.18.04.36.07.55.07Z"/>
    <path class="cls-3" d="M54.86,122.11c-.21,0-.43-.03-.65-.08-.22-.05-.42-.15-.6-.28-.18-.13-.33-.29-.46-.48-.13-.19-.23-.38-.3-.59-.07-.21-.12-.42-.15-.64s-.04-.44-.04-.67v-3.96h-1.4v-1.02h1.4v-3.14h1.14v3.14h2.57v1.02h-2.57v3.96c0,.13,0,.25.01.38,0,.13.03.25.06.37s.07.24.12.36c.05.12.11.22.2.31.08.09.19.16.31.21.12.05.24.07.36.07s.23-.02.34-.06c.11-.04.21-.1.29-.18.08-.08.15-.17.2-.28.05-.11.1-.21.13-.32.03-.11.06-.22.07-.34.01-.12.02-.23.02-.35v-.09h1.14v.15c0,.2-.02.41-.06.62-.04.21-.1.41-.18.6s-.18.37-.31.54c-.13.17-.29.31-.46.42-.18.11-.37.19-.57.23s-.41.07-.63.07Z"/>
    <path class="cls-3" d="M61.24,122.11c-.26,0-.53-.02-.79-.07-.26-.05-.51-.14-.74-.27-.23-.13-.43-.3-.61-.5-.18-.2-.33-.42-.44-.66-.11-.24-.19-.49-.23-.75-.04-.26-.06-.53-.06-.79v-1.75c0-.26.02-.53.06-.79.04-.26.11-.51.22-.75.11-.24.25-.46.43-.66.18-.2.38-.36.61-.49s.47-.22.73-.27.53-.08.79-.08.53.03.79.08.51.14.73.27.43.29.61.49c.18.2.32.42.43.66.11.24.18.49.22.75.04.26.06.53.06.79v1.39h-4.53v.37c0,.17,0,.33.03.5.02.17.06.33.12.48.06.16.15.3.25.44.1.14.22.25.37.34.14.09.29.16.46.2.17.04.33.06.5.06.19,0,.37-.02.56-.06.19-.04.36-.11.52-.21.16-.1.29-.23.39-.39.1-.17.16-.35.17-.54h1.14c-.01.22-.05.44-.12.65-.07.21-.18.4-.31.58-.13.18-.29.34-.47.47-.18.13-.37.24-.58.31-.2.08-.42.13-.64.16s-.44.04-.66.04ZM62.91,117.68v-.37c0-.17-.01-.33-.03-.5-.02-.17-.06-.33-.12-.48-.06-.16-.14-.3-.24-.44-.1-.14-.22-.25-.36-.34-.14-.09-.29-.16-.45-.2-.17-.04-.33-.06-.5-.06s-.33.02-.5.06c-.17.04-.32.1-.45.2-.14.09-.26.21-.36.34-.1.14-.18.28-.24.44-.06.16-.1.32-.12.48s-.03.33-.03.5v.37h3.39Z"/>
    <path class="cls-3" d="M65.8,123.01v-1.02h5.44v1.02h-5.44Z"/>
    <path class="cls-3" d="M73.11,125.13v-10.75h1.14v1.33c.08-.2.18-.4.31-.59.13-.19.28-.35.46-.48.18-.13.38-.23.6-.29.22-.06.44-.09.67-.09.24,0,.48.03.72.1s.46.18.65.32c.19.15.36.32.49.53.13.2.24.42.31.65.08.23.13.47.16.71.03.24.04.49.04.73v1.75c0,.24-.01.49-.04.73-.03.24-.08.48-.16.71-.08.23-.18.45-.31.65-.13.2-.29.38-.49.53-.2.15-.41.25-.65.32s-.48.1-.72.1c-.22,0-.45-.03-.67-.09-.22-.06-.42-.15-.6-.29-.18-.13-.33-.29-.46-.48-.13-.19-.23-.39-.31-.59v4.47h-1.14ZM75.85,121.08c.17,0,.33-.02.49-.06.16-.04.31-.1.45-.2.14-.09.26-.21.36-.34.1-.14.18-.28.24-.44.06-.16.1-.32.12-.48.02-.17.03-.33.03-.5v-1.75c0-.17-.01-.33-.03-.5-.02-.17-.06-.33-.12-.48-.06-.16-.14-.3-.24-.44-.1-.14-.22-.25-.36-.34-.14-.09-.29-.16-.45-.2-.16-.04-.32-.06-.49-.06s-.33.02-.49.06c-.16.04-.3.11-.43.2-.13.1-.24.22-.33.36-.09.14-.16.29-.21.44-.05.15-.08.31-.1.47-.02.16-.03.32-.03.49v1.75c0,.17,0,.33.03.49.02.16.05.32.1.47.05.15.12.3.21.44.09.14.2.26.33.36.13.1.27.17.43.21.16.04.32.06.49.06Z"/>
    <path class="cls-3" d="M83.17,122.11c-.26,0-.53-.02-.79-.07-.26-.05-.51-.14-.74-.27-.23-.13-.43-.3-.61-.5-.18-.2-.33-.42-.44-.66-.11-.24-.19-.49-.23-.75-.04-.26-.06-.53-.06-.79v-1.75c0-.26.02-.53.06-.79.04-.26.11-.51.22-.75.11-.24.25-.46.43-.66.18-.2.38-.36.61-.49s.47-.22.73-.27.53-.08.79-.08.53.03.79.08.51.14.73.27.43.29.61.49c.18.2.32.42.43.66.11.24.18.49.22.75.04.26.06.53.06.79v1.39h-4.53v.37c0,.17,0,.33.03.5.02.17.06.33.12.48.06.16.15.3.25.44.1.14.22.25.37.34.14.09.29.16.46.2.17.04.33.06.5.06.19,0,.37-.02.56-.06.19-.04.36-.11.52-.21.16-.1.29-.23.39-.39.1-.17.16-.35.17-.54h1.14c-.01.22-.05.44-.12.65-.07.21-.18.4-.31.58-.13.18-.29.34-.47.47-.18.13-.37.24-.58.31-.2.08-.42.13-.64.16s-.44.04-.66.04ZM84.84,117.68v-.37c0-.17-.01-.33-.03-.5-.02-.17-.06-.33-.12-.48-.06-.16-.14-.3-.24-.44-.1-.14-.22-.25-.36-.34-.14-.09-.29-.16-.45-.2-.17-.04-.33-.06-.5-.06s-.33.02-.5.06c-.17.04-.32.1-.45.2-.14.09-.26.21-.36.34-.1.14-.18.28-.24.44-.06.16-.1.32-.12.48s-.03.33-.03.5v.37h3.39Z"/>
    <path class="cls-3" d="M90.48,122.11c-.26,0-.53-.02-.79-.07-.26-.05-.51-.14-.74-.27-.23-.13-.43-.3-.61-.5-.18-.2-.33-.42-.44-.66-.11-.24-.19-.49-.23-.75-.04-.26-.06-.53-.06-.79v-1.75c0-.26.02-.53.06-.79.04-.26.11-.51.22-.75.11-.24.25-.46.43-.66.18-.2.38-.36.61-.49s.47-.22.73-.27.53-.08.79-.08.53.03.79.08.51.14.73.27.43.29.61.49c.18.2.32.42.43.66.11.24.18.49.22.75.04.26.06.53.06.79v1.39h-4.53v.37c0,.17,0,.33.03.5.02.17.06.33.12.48.06.16.15.3.25.44.1.14.22.25.37.34.14.09.29.16.46.2.17.04.33.06.5.06.19,0,.37-.02.56-.06.19-.04.36-.11.52-.21.16-.1.29-.23.39-.39.1-.17.16-.35.17-.54h1.14c-.01.22-.05.44-.12.65-.07.21-.18.4-.31.58-.13.18-.29.34-.47.47-.18.13-.37.24-.58.31-.2.08-.42.13-.64.16s-.44.04-.66.04ZM92.15,117.68v-.37c0-.17-.01-.33-.03-.5-.02-.17-.06-.33-.12-.48-.06-.16-.14-.3-.24-.44-.1-.14-.22-.25-.36-.34-.14-.09-.29-.16-.45-.2-.17-.04-.33-.06-.5-.06s-.33.02-.5.06c-.17.04-.32.1-.45.2-.14.09-.26.21-.36.34-.1.14-.18.28-.24.44-.06.16-.1.32-.12.48s-.03.33-.03.5v.37h3.39Z"/>
    <path class="cls-3" d="M95.92,121.99v-7.6h1.14v1.58c.07-.21.15-.42.26-.63.1-.2.23-.39.39-.56.16-.17.34-.29.56-.38.21-.09.43-.13.66-.13.19,0,.37.02.55.07.18.04.34.12.49.22.15.1.27.23.37.39.1.16.18.32.23.49.06.17.1.35.12.53.02.18.03.36.03.55h-1.14c0-.15-.01-.29-.04-.43-.02-.14-.07-.27-.15-.4-.07-.13-.18-.22-.31-.29s-.27-.1-.42-.1c-.19,0-.38.04-.56.12-.18.08-.33.2-.45.34-.12.15-.22.31-.3.49s-.14.37-.18.56c-.04.19-.07.38-.08.58s-.02.39-.02.57v4.04h-1.14Z"/>
    <path class="cls-3" d="M102.36,123.01v-1.02h5.44v1.02h-5.44Z"/>
    <path class="cls-3" d="M112.34,122.11c-.25,0-.51-.03-.77-.08-.26-.05-.51-.15-.73-.28-.22-.13-.42-.3-.59-.5-.17-.2-.31-.42-.42-.66-.11-.24-.18-.49-.22-.75-.04-.26-.06-.52-.06-.78v-1.75c0-.26.02-.52.06-.78.04-.26.11-.51.22-.75.11-.24.25-.46.42-.66.17-.2.37-.37.59-.5.22-.13.47-.22.73-.28s.52-.08.77-.08.49.02.73.07.48.12.69.23c.22.11.42.25.59.42.18.17.32.36.44.58.12.21.2.44.26.68s.08.48.08.72v.03h-1.14c0-.24-.03-.46-.1-.67s-.18-.4-.34-.56c-.16-.16-.34-.28-.56-.35-.21-.07-.43-.11-.66-.11-.17,0-.33.02-.49.06-.16.04-.31.11-.45.2-.14.1-.25.21-.34.35-.09.14-.17.28-.23.43-.06.15-.1.31-.12.48s-.03.33-.03.5v1.75c0,.17,0,.33.03.5.02.17.06.32.12.48.06.15.13.29.23.43.09.14.21.25.34.35.14.1.29.17.45.21.16.04.32.06.49.06.22,0,.44-.04.66-.11.21-.07.4-.19.56-.35.16-.16.27-.35.34-.56s.1-.43.1-.66h0s1.14-.01,1.14-.01v.03c0,.24-.03.49-.08.72s-.14.47-.26.68c-.12.21-.26.41-.44.58-.18.17-.37.31-.59.42s-.45.18-.69.23-.49.07-.73.07Z"/>
    <path class="cls-3" d="M119.7,122.11c-.26,0-.53-.03-.79-.08-.26-.05-.51-.14-.73-.27-.22-.13-.43-.29-.61-.49-.18-.2-.32-.42-.43-.66-.11-.24-.18-.49-.22-.75-.04-.26-.06-.53-.06-.79v-1.75c0-.26.02-.53.06-.79.04-.26.11-.51.22-.75.11-.24.25-.46.43-.66.18-.2.38-.36.61-.49s.47-.22.73-.27.53-.08.79-.08.53.03.79.08.51.14.73.27.43.29.61.49c.18.2.32.42.43.66.11.24.18.49.22.75.04.26.06.53.06.79v1.75c0,.26-.02.53-.06.79-.04.26-.11.51-.22.75-.11.24-.25.46-.43.66-.18.2-.38.36-.61.49-.22.13-.47.22-.73.27-.26.05-.53.08-.79.08ZM119.7,121.08c.17,0,.33-.02.5-.06.17-.04.32-.1.45-.2.14-.09.26-.21.36-.34.1-.14.18-.28.24-.44.06-.16.1-.32.12-.48.02-.17.03-.33.03-.5v-1.75c0-.17-.01-.33-.03-.5-.02-.17-.06-.33-.12-.48-.06-.16-.14-.3-.24-.44-.1-.14-.22-.25-.36-.34-.14-.09-.29-.16-.45-.2-.17-.04-.33-.06-.5-.06s-.33.02-.5.06c-.17.04-.32.1-.45.2-.14.09-.26.21-.36.34-.1.14-.18.28-.24.44-.06.16-.1.32-.12.48s-.03.33-.03.5v1.75c0,.17,0,.33.03.5.02.17.06.33.12.48.06.16.14.3.24.44.1.14.22.25.36.34.14.09.29.16.45.2.17.04.33.06.5.06Z"/>
    <path class="cls-3" d="M124.29,121.99v-7.6h1.14v1.33c.08-.2.18-.4.31-.58.13-.19.28-.35.46-.48.18-.14.38-.23.6-.29.22-.06.44-.09.65-.09.24,0,.48.03.72.1.23.07.44.18.62.33.18.15.33.33.46.54.13.21.23.43.3.66.07.23.12.46.15.7s.04.48.04.71v4.68h-1.14v-4.68c0-.17,0-.33-.03-.49-.02-.16-.05-.32-.1-.47-.05-.15-.12-.29-.21-.43-.09-.14-.2-.25-.33-.35-.13-.1-.27-.17-.42-.21-.16-.04-.32-.07-.48-.07s-.33.02-.48.07c-.16.04-.3.11-.42.21-.13.1-.24.21-.33.35-.09.14-.16.28-.21.43-.05.15-.08.31-.1.47-.02.16-.03.32-.03.49v4.68h-1.14Z"/>
    <path class="cls-3" d="M131.6,121.99v-7.6h1.14v1.33c.08-.2.18-.4.31-.58.13-.19.28-.35.46-.48.18-.14.38-.23.6-.29.22-.06.44-.09.65-.09.24,0,.48.03.72.1.23.07.44.18.62.33.18.15.33.33.46.54.13.21.23.43.3.66.07.23.12.46.15.7s.04.48.04.71v4.68h-1.14v-4.68c0-.17,0-.33-.03-.49-.02-.16-.05-.32-.1-.47-.05-.15-.12-.29-.21-.43-.09-.14-.2-.25-.33-.35-.13-.1-.27-.17-.42-.21-.16-.04-.32-.07-.48-.07s-.33.02-.48.07c-.16.04-.3.11-.42.21-.13.1-.24.21-.33.35-.09.14-.16.28-.21.43-.05.15-.08.31-.1.47-.02.16-.03.32-.03.49v4.68h-1.14Z"/>
    <path class="cls-3" d="M143.42,124.34c-.42-.23-.81-.51-1.18-.83-.37-.32-.69-.67-.99-1.05s-.54-.8-.75-1.24c-.2-.44-.37-.89-.5-1.35-.13-.46-.22-.94-.27-1.42-.05-.48-.08-.96-.08-1.44s.03-.96.08-1.44c.05-.48.14-.96.27-1.42.13-.46.29-.91.5-1.35.2-.44.45-.85.75-1.24s.62-.74.99-1.05c.37-.32.76-.59,1.18-.83l.56.89c-.54.31-1.02.71-1.44,1.18-.42.48-.77,1-1.03,1.57s-.45,1.17-.55,1.8c-.1.63-.15,1.26-.15,1.88s.05,1.25.15,1.88c.1.63.29,1.23.55,1.8s.61,1.09,1.03,1.57c.42.48.9.87,1.44,1.18l-.56.89Z"/>
    <path class="cls-3" d="M147.16,124.34l-.56-.89c.54-.31,1.02-.71,1.44-1.18s.77-1,1.03-1.57.45-1.17.55-1.8c.1-.63.15-1.25.15-1.88s-.05-1.25-.15-1.88c-.1-.63-.29-1.23-.55-1.8s-.61-1.09-1.03-1.57c-.42-.48-.9-.87-1.44-1.18l.56-.89c.42.23.81.51,1.18.83s.69.67.99,1.05.54.8.75,1.24c.2.44.37.89.5,1.35.13.46.22.94.27,1.42.05.48.08.96.08,1.44s-.03.96-.08,1.44c-.05.48-.14.96-.27,1.42-.13.46-.29.91-.5,1.35-.21.44-.45.85-.75,1.24s-.62.74-.99,1.05-.76.59-1.18.83Z"/>
  </g>
  <g>
    <line class="cls-1" x1="333.95" y1="118.07" x2="436.21" y2="118.07"/>
    <path class="cls-3" d="M442.24,118.07c-2.84,1.05-6.36,2.85-8.55,4.76l1.72-4.76-1.72-4.75c2.18,1.9,5.71,3.7,8.55,4.75Z"/>
  </g>
  <g>
    <line class="cls-1" x1="525.34" y1="116.44" x2="648.14" y2="116.44"/>
    <path class="cls-3" d="M654.17,116.44c-2.84,1.05-6.36,2.85-8.55,4.76l1.72-4.76-1.72-4.75c2.18,1.9,5.71,3.7,8.55,4.75Z"/>
  </g>
  <g>
    <line class="cls-1" x1="164.81" y1="118.07" x2="244.81" y2="118.07"/>
    <path class="cls-3" d="M250.85,118.07c-2.84,1.05-6.36,2.85-8.55,4.76l1.72-4.76-1.72-4.75c2.18,1.9,5.71,3.7,8.55,4.75Z"/>
  </g>
  <g>
    <path class="cls-1" d="M507.77,152.04c13.24,13.24,13.24,34.71,0,47.95-13.24,13.24-34.71,13.24-47.95,0-11.79-11.79-13.08-30.1-3.88-43.32"/>
    <path class="cls-3" d="M459.82,152.04c-.99,2.86-1.83,6.73-1.75,9.62l-2.59-4.35-4.77-1.69c2.86-.48,6.48-2.06,9.1-3.59Z"/>
  </g>
  <g>
    <path class="cls-3" d="M662.81,229.27c-.21,0-.43-.01-.64-.04-.21-.02-.42-.07-.63-.15s-.4-.17-.58-.29-.34-.26-.48-.43c-.13-.17-.23-.36-.3-.57-.07-.21-.1-.42-.1-.64v-.04h1.14c0,.2.05.37.15.53s.23.28.39.37c.16.09.32.15.5.18s.36.04.55.04c.17,0,.35-.01.53-.04s.35-.08.5-.17c.16-.08.29-.2.4-.35.11-.15.17-.31.17-.49s-.05-.34-.14-.49c-.09-.15-.21-.28-.34-.37-.14-.1-.29-.17-.45-.23-.16-.05-.32-.1-.49-.14s-.33-.08-.49-.12c-.16-.04-.32-.09-.48-.15-.16-.06-.32-.12-.47-.2-.15-.07-.29-.16-.43-.26-.14-.1-.26-.22-.37-.34s-.21-.27-.29-.42c-.08-.15-.14-.31-.18-.47-.04-.17-.07-.33-.07-.5,0-.21.03-.42.1-.62.06-.2.16-.38.29-.56.13-.17.28-.31.45-.43.18-.12.36-.21.56-.29.19-.07.4-.12.61-.15s.42-.04.62-.04.42.01.63.04c.21.02.41.07.61.15.2.07.38.17.56.29.17.12.32.27.45.43.13.17.22.35.29.56.06.2.09.41.09.61v.04h-1.14c0-.19-.04-.35-.13-.5s-.2-.27-.35-.37c-.15-.09-.3-.15-.48-.18s-.34-.04-.52-.04-.33.01-.5.04-.33.09-.48.18c-.15.09-.27.21-.37.35-.1.15-.15.31-.15.48,0,.21.06.39.19.56s.28.3.45.4.36.17.56.21c.2.04.4.09.6.14.2.05.39.1.58.17.19.06.37.15.55.25s.34.22.5.35.29.28.4.45c.11.17.2.35.26.55s.1.39.1.6-.03.42-.1.63c-.07.2-.17.39-.31.56-.14.17-.29.31-.47.43-.18.12-.37.21-.58.28-.2.07-.41.12-.63.14-.21.02-.43.04-.64.04Z"/>
    <path class="cls-3" d="M670.16,229.27c-.26,0-.53-.02-.79-.07-.26-.05-.51-.14-.74-.27-.23-.13-.43-.3-.61-.5-.18-.2-.33-.42-.44-.66-.11-.24-.19-.49-.23-.75-.04-.26-.06-.53-.06-.79v-1.75c0-.26.02-.53.06-.79.04-.26.11-.51.22-.75.11-.24.25-.46.43-.66.18-.2.38-.36.61-.49.22-.13.47-.22.73-.27.26-.05.53-.08.79-.08s.53.03.79.08c.26.05.51.14.73.27.22.13.43.29.61.49.18.2.32.42.43.66.11.24.18.49.22.75.04.26.06.53.06.79v1.39h-4.53v.37c0,.17,0,.33.03.5s.06.33.12.48.15.3.25.44.22.25.37.34.29.16.46.2.33.06.5.06c.19,0,.37-.02.56-.06.19-.04.36-.11.52-.21.16-.1.29-.23.39-.39s.16-.35.17-.54h1.14c0,.22-.05.44-.12.65-.07.21-.18.41-.31.58-.13.18-.29.34-.47.47-.18.13-.37.24-.58.31-.21.08-.42.13-.64.16-.22.03-.44.04-.66.04ZM671.83,224.83v-.37c0-.17,0-.33-.03-.5-.02-.17-.06-.33-.12-.48-.06-.16-.14-.3-.24-.44-.1-.14-.22-.25-.36-.34-.14-.09-.29-.16-.45-.2-.17-.04-.33-.06-.5-.06s-.33.02-.5.06c-.17.04-.32.11-.45.2-.14.09-.26.21-.36.34-.1.14-.18.28-.24.44-.06.16-.1.32-.12.48-.02.17-.03.33-.03.5v.37h3.39Z"/>
    <path class="cls-3" d="M674.73,229.15v-7.6h1.14v1.33c.08-.21.18-.4.31-.58.13-.19.28-.35.46-.48.18-.14.38-.23.6-.29s.44-.09.65-.09c.24,0,.48.03.72.1s.44.18.62.33c.18.15.33.33.46.54s.23.43.3.66c.07.23.12.46.15.7.02.24.04.47.04.71v4.68h-1.14v-4.68c0-.17,0-.33-.03-.49s-.05-.32-.1-.47-.12-.29-.21-.43c-.09-.14-.2-.25-.33-.35-.13-.1-.27-.17-.42-.21s-.32-.07-.48-.07-.33.02-.48.07-.3.11-.42.21c-.13.1-.24.21-.33.35-.09.14-.16.28-.21.43s-.08.31-.1.47-.03.32-.03.49v4.68h-1.14Z"/>
    <path class="cls-3" d="M684.3,229.27c-.24,0-.48-.03-.72-.1-.24-.07-.46-.17-.65-.32s-.36-.32-.49-.53c-.13-.21-.24-.42-.31-.65-.08-.23-.13-.46-.16-.71-.03-.24-.04-.49-.04-.73v-1.75c0-.24.01-.49.04-.73.03-.24.08-.48.16-.71s.18-.45.31-.65c.13-.21.29-.38.49-.53.2-.15.41-.25.65-.32.24-.07.48-.1.72-.1.22,0,.45.03.67.09.22.06.42.15.6.29.18.13.33.29.46.48.13.19.23.39.31.59v-4.47h1.14v10.75h-1.14v-1.33c-.08.2-.18.4-.31.59s-.28.35-.46.48c-.18.13-.38.23-.6.29-.22.06-.44.09-.67.09ZM684.74,228.24c.17,0,.33-.02.49-.07.16-.04.3-.12.43-.21.13-.1.24-.21.33-.35s.16-.28.21-.43c.05-.15.08-.31.1-.47s.03-.32.03-.49v-1.75c0-.17,0-.33-.03-.49s-.05-.32-.1-.47-.12-.3-.21-.44-.2-.26-.33-.36-.27-.17-.43-.21c-.16-.04-.32-.06-.49-.06s-.33.02-.49.06c-.16.04-.31.11-.45.2-.14.09-.26.21-.36.34-.1.14-.18.28-.24.44-.06.16-.1.32-.12.48-.02.17-.03.33-.03.5v1.75c0,.17,0,.33.03.5s.06.33.12.48c.06.16.14.3.24.44.1.14.22.25.36.34s.29.16.45.2.32.06.49.06Z"/>
    <path class="cls-3" d="M689.35,230.17v-1.02h5.44v1.02h-5.44Z"/>
    <path class="cls-3" d="M696.82,229.15v-1.02h2.09v-5.56h-1.89v-1.02h3.03v6.58h1.89v1.02h-5.12ZM699.45,220.26c-.13,0-.25-.02-.37-.05-.12-.03-.22-.09-.31-.18s-.15-.19-.18-.31c-.03-.12-.05-.24-.05-.37s.02-.25.05-.37c.03-.12.09-.22.18-.31s.19-.15.31-.19c.12-.04.24-.06.37-.06s.25.02.37.06c.12.04.22.1.31.19s.15.19.19.31c.04.12.06.24.06.37s-.02.25-.06.37c-.04.12-.1.22-.19.31s-.19.15-.31.18c-.12.03-.24.05-.37.05Z"/>
    <path class="cls-3" d="M706.65,229.27c-.25,0-.51-.03-.77-.08-.26-.05-.51-.15-.73-.28-.22-.13-.42-.3-.59-.5-.17-.2-.31-.42-.42-.66-.11-.24-.18-.49-.22-.75-.04-.26-.06-.52-.06-.78v-1.75c0-.26.02-.52.06-.78.04-.26.11-.51.22-.75.11-.24.25-.46.42-.66.17-.2.37-.37.59-.5.22-.13.47-.22.73-.28.26-.05.52-.08.77-.08s.49.02.73.07c.24.04.48.12.69.23.22.11.42.25.59.42.17.17.32.36.44.58s.2.44.26.68c.05.24.08.48.08.72v.03h-1.14c0-.24-.03-.46-.1-.67-.07-.21-.18-.4-.34-.56s-.34-.28-.56-.35c-.21-.07-.43-.11-.66-.11-.17,0-.33.02-.49.06-.16.04-.31.11-.45.21s-.25.21-.34.35c-.09.14-.17.28-.23.43s-.1.31-.12.48c-.02.17-.03.33-.03.5v1.75c0,.17,0,.33.03.5s.06.32.12.47c.06.15.13.29.23.43s.21.25.34.35c.14.1.29.17.45.21.16.04.32.06.49.06.22,0,.44-.04.66-.11.21-.07.4-.19.56-.35.16-.16.27-.35.34-.56.07-.21.1-.43.1-.66h0s1.14-.01,1.14-.01v.03c0,.24-.03.49-.08.72-.05.24-.14.47-.26.68-.12.21-.26.41-.44.58-.18.17-.37.31-.59.42-.22.11-.45.18-.69.23-.24.04-.49.07-.73.07Z"/>
    <path class="cls-3" d="M714.03,229.27c-.26,0-.53-.02-.79-.07s-.51-.14-.74-.27c-.23-.13-.43-.3-.61-.5-.18-.2-.33-.42-.44-.66-.11-.24-.19-.49-.23-.75-.04-.26-.06-.53-.06-.79v-1.75c0-.26.02-.53.06-.79.04-.26.11-.51.22-.75.11-.24.25-.46.43-.66.18-.2.38-.36.61-.49.22-.13.47-.22.73-.27.26-.05.53-.08.79-.08s.53.03.79.08c.26.05.51.14.73.27.22.13.43.29.61.49.18.2.32.42.43.66.11.24.18.49.22.75.04.26.06.53.06.79v1.39h-4.53v.37c0,.17,0,.33.03.5s.06.33.12.48.15.3.25.44c.1.14.22.25.37.34.14.09.29.16.46.2.17.04.33.06.5.06.18,0,.37-.02.56-.06s.36-.11.52-.21c.16-.1.29-.23.39-.39.1-.17.16-.35.17-.54h1.14c-.01.22-.05.44-.12.65-.07.21-.17.41-.31.58-.13.18-.29.34-.47.47-.18.13-.37.24-.58.31-.2.08-.42.13-.64.16-.22.03-.44.04-.66.04ZM715.7,224.83v-.37c0-.17-.01-.33-.03-.5-.02-.17-.06-.33-.12-.48-.06-.16-.14-.3-.24-.44-.1-.14-.22-.25-.36-.34-.14-.09-.29-.16-.45-.2-.17-.04-.33-.06-.5-.06s-.33.02-.5.06c-.17.04-.32.11-.45.2-.14.09-.26.21-.36.34-.1.14-.18.28-.24.44-.06.16-.1.32-.12.48-.02.17-.03.33-.03.5v.37h3.39Z"/>
    <path class="cls-3" d="M723.1,231.5c-.42-.23-.81-.51-1.18-.83-.37-.32-.69-.67-.99-1.05-.29-.39-.54-.8-.75-1.24-.21-.44-.37-.89-.5-1.35-.13-.46-.22-.94-.27-1.42-.05-.48-.08-.96-.08-1.44s.03-.96.08-1.44c.05-.48.14-.96.27-1.42.13-.46.29-.91.5-1.35.2-.44.45-.85.75-1.24.29-.39.62-.74.99-1.05.37-.32.76-.59,1.18-.83l.56.89c-.54.31-1.02.71-1.44,1.18-.42.48-.77,1-1.03,1.57-.26.57-.45,1.17-.55,1.8-.1.63-.15,1.26-.15,1.88s.05,1.25.15,1.88c.1.63.29,1.23.55,1.8.26.57.61,1.09,1.03,1.57.42.48.9.87,1.44,1.18l-.56.89Z"/>
    <path class="cls-3" d="M726.84,231.5l-.56-.89c.54-.31,1.02-.71,1.44-1.18s.77-1,1.03-1.57c.26-.57.45-1.17.55-1.8.1-.63.15-1.25.15-1.88s-.05-1.25-.15-1.88c-.1-.63-.29-1.23-.55-1.8-.26-.57-.61-1.09-1.03-1.57s-.9-.87-1.44-1.18l.56-.89c.42.23.81.51,1.18.83.37.32.69.67.99,1.05.29.38.54.8.75,1.24s.37.89.5,1.35.22.94.27,1.42c.05.48.08.96.08,1.44s-.03.96-.08,1.44-.14.96-.27,1.42-.29.91-.5,1.35c-.21.44-.45.85-.75,1.24-.29.38-.62.74-.99,1.05-.37.32-.76.59-1.18.83Z"/>
  </g>
  <g>
    <path class="cls-1" d="M719.7,152.04c13.24,13.24,13.24,34.71,0,47.95-13.24,13.24-34.71,13.24-47.95,0-11.79-11.79-13.08-30.1-3.88-43.32"/>
    <path class="cls-3" d="M671.75,152.04c-.99,2.86-1.83,6.73-1.75,9.62l-2.59-4.35-4.77-1.69c2.86-.48,6.48-2.06,9.1-3.59Z"/>
  </g>
  <circle class="cls-2" cx="907.65" cy="118.01" r="41.55"/>
  <circle class="cls-2" cx="907.65" cy="118.01" r="35.32"/>
  <g>
    <path class="cls-3" d="M889.33,121.93c-.25,0-.51-.03-.77-.08-.26-.05-.51-.15-.73-.28-.22-.13-.42-.3-.59-.5-.17-.2-.31-.42-.42-.66-.11-.24-.18-.49-.22-.75s-.06-.52-.06-.78v-1.75c0-.26.02-.52.06-.78s.11-.51.22-.75.25-.46.42-.66c.17-.2.37-.37.59-.5.22-.13.47-.22.73-.28.26-.05.52-.08.77-.08s.49.02.73.07.48.12.69.23c.22.11.42.25.59.42.17.17.32.36.44.58.12.21.2.44.26.68s.08.48.08.72v.03h-1.14c0-.24-.03-.46-.1-.67-.07-.21-.18-.4-.34-.56-.16-.16-.34-.28-.56-.35-.21-.07-.43-.11-.66-.11-.17,0-.33.02-.49.06-.16.04-.31.11-.45.2-.14.1-.25.21-.34.35-.09.14-.17.28-.23.43-.06.15-.1.31-.12.48s-.03.33-.03.5v1.75c0,.17,0,.33.03.5.02.17.06.32.12.48.06.15.13.29.23.43.09.14.21.25.34.35.14.1.29.17.45.21s.32.06.49.06c.22,0,.44-.04.66-.11.21-.07.4-.19.56-.35s.27-.35.34-.56c.07-.21.1-.43.1-.66h0s1.14-.01,1.14-.01v.03c0,.24-.03.49-.08.72s-.14.47-.26.68c-.12.21-.26.41-.44.58-.18.17-.37.31-.59.42-.22.11-.45.18-.69.23s-.49.07-.73.07Z"/>
    <path class="cls-3" d="M894.13,121.81v-1.02h2.09v-8.7h-1.89v-1.02h3.03v9.72h1.89v1.02h-5.12Z"/>
    <path class="cls-3" d="M904,121.93c-.26,0-.53-.03-.79-.08-.26-.05-.51-.14-.73-.27-.22-.13-.43-.29-.61-.49-.18-.2-.32-.42-.43-.66s-.18-.49-.22-.75-.06-.53-.06-.79v-1.75c0-.26.02-.53.06-.79s.11-.51.22-.75.25-.46.43-.66c.18-.2.38-.36.61-.49s.47-.22.73-.27c.26-.05.53-.08.79-.08s.53.03.79.08c.26.05.51.14.73.27.22.13.43.29.61.49s.32.42.43.66c.11.24.18.49.22.75s.06.53.06.79v1.75c0,.26-.02.53-.06.79s-.11.51-.22.75c-.11.24-.25.46-.43.66s-.38.36-.61.49c-.22.13-.47.22-.73.27-.26.05-.53.08-.79.08ZM904,120.91c.17,0,.33-.02.5-.06.17-.04.32-.1.45-.2.14-.09.26-.21.36-.34.1-.14.18-.28.24-.44.06-.16.1-.32.12-.48.02-.17.03-.33.03-.5v-1.75c0-.17,0-.33-.03-.5s-.06-.33-.12-.48c-.06-.16-.14-.3-.24-.44-.1-.14-.22-.25-.36-.34-.14-.09-.29-.16-.45-.2-.17-.04-.33-.06-.5-.06s-.33.02-.5.06c-.17.04-.32.1-.45.2-.14.09-.26.21-.36.34-.1.14-.18.28-.24.44-.06.16-.1.32-.12.48s-.03.33-.03.5v1.75c0,.17,0,.33.03.5.02.17.06.33.12.48.06.16.14.3.24.44.1.14.22.25.36.34.14.09.29.16.45.2s.33.06.5.06Z"/>
    <path class="cls-3" d="M911.29,121.93c-.21,0-.43-.01-.64-.04-.21-.02-.42-.07-.63-.15-.21-.07-.4-.17-.58-.29-.19-.12-.34-.26-.48-.43s-.23-.36-.3-.57-.1-.42-.1-.64v-.04h1.14c0,.2.05.37.15.53.1.16.23.28.39.37.16.09.32.15.5.18.18.03.36.04.55.04s.35-.01.53-.04c.18-.03.35-.08.5-.17.16-.08.29-.2.4-.35.11-.15.17-.31.17-.49s-.05-.34-.14-.49c-.09-.15-.21-.28-.34-.37-.14-.1-.29-.17-.45-.23-.16-.05-.32-.1-.49-.14s-.33-.08-.49-.12c-.16-.04-.32-.09-.48-.15-.16-.06-.32-.12-.47-.2-.15-.07-.29-.16-.43-.26-.14-.1-.26-.22-.37-.34-.11-.13-.21-.27-.29-.42-.08-.15-.14-.31-.18-.48-.04-.17-.07-.33-.07-.5,0-.21.03-.42.09-.62s.16-.39.29-.56c.13-.17.28-.31.45-.43.17-.12.36-.21.56-.29.19-.07.4-.12.61-.15s.42-.04.62-.04c.21,0,.42.01.63.04.21.02.41.07.61.15.2.07.38.17.56.29.17.12.32.27.45.43.13.17.22.35.29.56.06.2.1.41.1.61v.04h-1.14c0-.19-.04-.35-.13-.5-.09-.15-.21-.27-.35-.37-.15-.09-.31-.15-.48-.18-.17-.03-.34-.04-.52-.04-.17,0-.33.01-.5.04-.17.03-.33.09-.48.18-.15.09-.27.2-.37.35-.1.15-.15.31-.15.48,0,.21.06.39.19.56.13.17.28.31.45.4.18.1.36.17.56.21.2.04.4.09.6.14.2.05.4.1.58.17.19.06.37.15.55.25.17.1.34.22.5.35.16.13.29.28.4.45.11.17.2.35.26.55.06.2.09.4.09.6s-.03.42-.1.63c-.07.2-.17.39-.31.56s-.29.31-.47.43c-.18.12-.37.21-.58.28-.21.07-.41.11-.63.14-.21.02-.43.04-.64.04Z"/>
    <path class="cls-3" d="M918.65,121.93c-.26,0-.53-.02-.79-.07-.26-.05-.51-.14-.74-.27-.23-.13-.43-.3-.61-.5-.18-.2-.33-.42-.44-.66-.11-.24-.19-.49-.23-.75s-.06-.53-.06-.79v-1.75c0-.26.02-.53.06-.79s.11-.51.22-.75.25-.46.43-.66c.18-.2.38-.36.61-.49s.47-.22.73-.27c.26-.05.53-.08.79-.08s.53.03.79.08c.26.05.51.14.73.27.22.13.43.29.61.49s.32.42.43.66c.11.24.18.49.22.75s.06.53.06.79v1.39h-4.53v.37c0,.17,0,.33.03.5.02.17.06.33.12.48.06.16.15.3.25.44.1.14.22.25.37.34.14.09.29.16.46.2s.33.06.5.06c.19,0,.37-.02.56-.06.19-.04.36-.11.52-.21.16-.1.29-.23.39-.39.1-.17.16-.35.17-.54h1.14c0,.22-.05.44-.12.65-.07.21-.18.4-.31.58-.13.18-.29.34-.47.47-.18.13-.37.24-.58.31-.21.08-.42.13-.64.16s-.44.04-.66.04ZM920.32,117.5v-.37c0-.17,0-.33-.03-.5s-.06-.33-.12-.48c-.06-.16-.14-.3-.24-.44-.1-.14-.22-.25-.36-.34-.14-.09-.29-.16-.45-.2-.17-.04-.33-.06-.5-.06s-.33.02-.5.06c-.17.04-.32.1-.45.2-.14.09-.26.21-.36.34-.1.14-.18.28-.24.44-.06.16-.1.32-.12.48s-.03.33-.03.5v.37h3.39Z"/>
    <path class="cls-3" d="M925.48,121.93c-.24,0-.49-.03-.72-.1-.24-.07-.46-.18-.65-.32-.2-.15-.36-.32-.49-.53s-.24-.42-.31-.65c-.08-.23-.13-.47-.16-.71s-.04-.49-.04-.73v-1.75c0-.24.01-.49.04-.73s.08-.48.16-.71c.08-.23.18-.45.31-.65.13-.21.29-.38.49-.53.19-.15.41-.25.65-.32.24-.07.48-.1.72-.1.22,0,.45.03.67.09.22.06.42.15.6.29.18.13.33.29.46.48s.23.39.31.59v-4.47h1.14v10.75h-1.14v-1.33c-.08.2-.18.4-.31.59-.13.19-.28.35-.46.48-.18.13-.38.23-.6.29-.22.06-.44.09-.67.09ZM925.92,120.91c.17,0,.33-.02.49-.07.16-.04.3-.11.43-.21.13-.1.24-.21.33-.35.09-.14.16-.28.21-.43.05-.15.08-.31.1-.47.02-.16.03-.32.03-.49v-1.75c0-.17,0-.33-.03-.49-.02-.16-.05-.32-.1-.47-.05-.15-.12-.3-.21-.44-.09-.14-.2-.26-.33-.36-.13-.1-.27-.17-.43-.2-.16-.04-.32-.06-.49-.06s-.33.02-.49.06c-.16.04-.31.1-.45.2-.14.09-.26.21-.36.34-.1.14-.18.28-.24.44-.06.16-.1.32-.12.48s-.03.33-.03.5v1.75c0,.17,0,.33.03.5.02.17.06.33.12.48.06.16.14.3.24.44.1.14.22.25.36.34.14.09.29.16.45.2.16.04.32.06.49.06Z"/>
  </g>
  <g>
    <path class="cls-3" d="M779.71,106.62c-.25,0-.51-.03-.77-.08-.26-.05-.51-.15-.73-.28-.22-.13-.42-.3-.59-.5-.17-.2-.31-.42-.42-.66-.11-.24-.18-.49-.22-.75s-.06-.52-.06-.78v-1.75c0-.26.02-.52.06-.78s.11-.51.22-.75c.11-.24.25-.46.42-.66.17-.2.37-.37.59-.5.22-.13.47-.22.73-.28.26-.05.52-.08.77-.08s.49.02.73.07c.24.04.48.12.69.23.22.11.42.25.59.42.17.17.32.36.44.58.12.21.2.44.26.68s.08.48.08.72v.03h-1.14c0-.24-.03-.46-.1-.67s-.18-.4-.34-.56c-.16-.16-.34-.28-.56-.35-.21-.07-.43-.11-.66-.11-.17,0-.33.02-.49.06-.16.04-.31.11-.45.2-.14.1-.25.21-.34.35-.09.14-.17.28-.23.43-.06.15-.1.31-.12.48s-.03.33-.03.5v1.75c0,.17,0,.33.03.5.02.17.06.32.12.48.06.15.13.29.23.43.09.14.21.25.34.35.14.1.29.17.45.21.16.04.32.06.49.06.22,0,.44-.04.66-.11.21-.07.4-.19.56-.35s.27-.35.34-.56.1-.43.1-.66h0s1.14-.01,1.14-.01v.03c0,.24-.03.49-.08.72s-.14.47-.26.68c-.12.21-.26.41-.44.58-.18.17-.37.31-.59.42-.22.11-.45.18-.69.23-.24.04-.49.07-.73.07Z"/>
    <path class="cls-3" d="M784.51,106.5v-1.02h2.09v-8.7h-1.89v-1.02h3.03v9.72h1.89v1.02h-5.12Z"/>
    <path class="cls-3" d="M794.38,106.62c-.26,0-.53-.03-.79-.08-.26-.05-.51-.14-.73-.27-.22-.13-.43-.29-.61-.49s-.32-.42-.43-.66-.18-.49-.22-.75c-.04-.26-.06-.53-.06-.79v-1.75c0-.26.02-.53.06-.79.04-.26.11-.51.22-.75s.25-.46.43-.66.38-.36.61-.49c.22-.13.47-.22.73-.27.26-.05.53-.08.79-.08s.53.03.79.08c.26.05.51.14.73.27.22.13.43.29.61.49s.32.42.43.66.18.49.22.75c.04.26.06.53.06.79v1.75c0,.26-.02.53-.06.79-.04.26-.11.51-.22.75s-.25.46-.43.66-.38.36-.61.49c-.22.13-.47.22-.73.27-.26.05-.53.08-.79.08ZM794.38,105.6c.17,0,.33-.02.5-.06.17-.04.32-.1.45-.2.14-.09.26-.21.36-.34.1-.14.18-.28.24-.44.06-.16.1-.32.12-.48.02-.17.03-.33.03-.5v-1.75c0-.17-.01-.33-.03-.5-.02-.17-.06-.33-.12-.48-.06-.16-.14-.3-.24-.44-.1-.14-.22-.25-.36-.34-.14-.09-.29-.16-.45-.2-.17-.04-.33-.06-.5-.06s-.33.02-.5.06c-.17.04-.32.1-.45.2-.14.09-.26.21-.36.34-.1.14-.18.28-.24.44-.06.16-.1.32-.12.48s-.03.33-.03.5v1.75c0,.17,0,.33.03.5.02.17.06.33.12.48.06.16.14.3.24.44.1.14.22.25.36.34.14.09.29.16.45.2.17.04.33.06.5.06Z"/>
    <path class="cls-3" d="M801.67,106.62c-.21,0-.43-.01-.64-.04-.21-.02-.42-.07-.63-.15-.2-.07-.4-.17-.58-.29-.19-.12-.34-.26-.48-.43s-.23-.36-.3-.57-.1-.42-.1-.64v-.04h1.14c0,.2.05.37.15.53.1.16.23.28.39.37.16.09.32.15.5.18.18.03.36.04.55.04.18,0,.35-.01.53-.04.18-.03.35-.08.5-.17.16-.08.29-.2.4-.35.11-.15.17-.31.17-.49s-.05-.34-.14-.49c-.09-.15-.21-.28-.34-.37-.14-.1-.29-.17-.45-.23-.16-.05-.32-.1-.49-.14-.17-.04-.33-.08-.49-.12s-.32-.09-.48-.15c-.16-.06-.32-.12-.47-.2-.15-.07-.29-.16-.43-.26-.14-.1-.26-.22-.37-.34-.11-.13-.21-.27-.29-.42-.08-.15-.14-.31-.18-.48-.04-.17-.07-.33-.07-.5,0-.21.03-.42.09-.62s.16-.39.29-.56.28-.31.45-.43c.18-.12.36-.21.56-.29.2-.07.4-.12.61-.15.21-.02.42-.04.62-.04s.42.01.63.04.41.07.61.15c.2.07.39.17.56.29.17.12.32.27.45.43.13.17.22.35.29.56.06.2.09.41.09.61v.04h-1.14c0-.19-.04-.35-.13-.5-.09-.15-.21-.27-.35-.37-.15-.09-.3-.15-.47-.18-.17-.03-.34-.04-.52-.04-.17,0-.33.01-.5.04-.17.03-.33.09-.48.18-.15.09-.27.2-.37.35-.1.15-.15.31-.15.48,0,.21.06.39.19.56.13.17.28.31.45.4.17.1.36.17.56.21s.4.09.6.14.39.1.58.17.37.15.55.25c.18.1.34.22.5.35.16.13.29.28.4.45.11.17.2.35.26.55.06.2.09.4.09.6s-.03.42-.1.63-.17.39-.31.56-.29.31-.48.43c-.18.12-.37.21-.58.28-.21.07-.42.11-.63.14-.21.02-.43.04-.64.04Z"/>
    <path class="cls-3" d="M809.03,106.62c-.26,0-.53-.02-.79-.07-.26-.05-.51-.14-.74-.27-.23-.13-.43-.3-.61-.5-.18-.2-.33-.42-.44-.66s-.19-.49-.23-.75-.06-.53-.06-.79v-1.75c0-.26.02-.53.06-.79s.11-.51.22-.75c.11-.24.25-.46.43-.66.18-.2.38-.36.61-.49.22-.13.47-.22.73-.27.26-.05.53-.08.79-.08s.53.03.79.08c.26.05.51.14.73.27.22.13.43.29.61.49.18.2.32.42.43.66.11.24.18.49.22.75s.06.53.06.79v1.39h-4.53v.37c0,.17,0,.33.03.5.02.17.06.33.12.48.06.16.15.3.25.44.1.14.22.25.37.34.14.09.29.16.46.2s.33.06.5.06c.19,0,.37-.02.56-.06.19-.04.36-.11.52-.21.16-.1.29-.23.39-.39.1-.17.16-.35.17-.54h1.14c0,.22-.05.44-.12.65-.07.21-.18.4-.31.58-.13.18-.29.34-.47.47-.18.13-.37.24-.58.31-.21.08-.42.13-.64.16-.22.03-.44.04-.66.04ZM810.7,102.19v-.37c0-.17,0-.33-.03-.5s-.06-.33-.12-.48c-.06-.16-.14-.3-.24-.44-.1-.14-.22-.25-.36-.34-.14-.09-.29-.16-.45-.2-.17-.04-.33-.06-.5-.06s-.33.02-.5.06c-.17.04-.32.1-.45.2-.14.09-.26.21-.36.34-.1.14-.18.28-.24.44-.06.16-.1.32-.12.48s-.03.33-.03.5v.37h3.39Z"/>
    <path class="cls-3" d="M818.1,108.86c-.42-.23-.81-.51-1.18-.83s-.69-.67-.99-1.05c-.29-.39-.54-.8-.75-1.24-.21-.44-.37-.89-.5-1.35-.13-.46-.22-.94-.27-1.42-.05-.48-.08-.96-.08-1.44s.03-.96.08-1.44c.05-.48.14-.96.27-1.42.13-.46.29-.91.5-1.35.2-.44.45-.85.75-1.24.29-.39.62-.74.99-1.05s.76-.59,1.18-.83l.56.89c-.54.31-1.02.71-1.44,1.18-.42.48-.77,1-1.03,1.57-.26.57-.45,1.17-.55,1.8-.1.63-.15,1.26-.15,1.88s.05,1.25.15,1.88c.1.63.29,1.23.55,1.8.26.57.61,1.09,1.03,1.57.42.48.9.87,1.44,1.18l-.56.89Z"/>
    <path class="cls-3" d="M821.84,108.86l-.56-.89c.54-.31,1.02-.71,1.44-1.18s.77-1,1.03-1.57c.26-.57.45-1.17.55-1.8.1-.63.15-1.25.15-1.88s-.05-1.25-.15-1.88-.29-1.23-.55-1.8c-.26-.57-.61-1.09-1.03-1.57-.42-.48-.9-.87-1.44-1.18l.56-.89c.42.23.81.51,1.18.83.37.32.69.67.99,1.05.29.39.54.8.75,1.24.2.44.37.89.5,1.35.13.46.22.94.27,1.42.05.48.08.96.08,1.44s-.03.96-.08,1.44c-.05.48-.14.96-.27,1.42-.13.46-.29.91-.5,1.35-.21.44-.45.85-.75,1.24-.29.39-.62.74-.99,1.05-.37.32-.76.59-1.18.83Z"/>
  </g>
  <g>
    <line class="cls-1" x1="737.27" y1="116.44" x2="860.07" y2="116.44"/>
    <path class="cls-3" d="M866.1,116.44c-2.84,1.05-6.36,2.85-8.55,4.76l1.72-4.76-1.72-4.75c2.18,1.9,5.71,3.7,8.55,4.75Z"/>
  </g>
  <g>
    <path class="cls-1" d="M518.4,95.25C615.02-1.37,770.79-2.77,869.13,91.03"/>
    <path class="cls-3" d="M873.45,95.25c-2.78-1.19-6.58-2.32-9.47-2.44l4.52-2.26,2.03-4.63c.27,2.88,1.59,6.62,2.92,9.34Z"/>
  </g>
  <g>
    <path class="cls-1" d="M309.73,155.66c153.66,153.66,405.32,151.66,564.87-3.44"/>
    <path class="cls-3" d="M878.89,147.98c-1.33,2.72-2.64,6.45-2.91,9.34l-2.03-4.63-4.52-2.26c2.89-.13,6.69-1.25,9.47-2.45Z"/>
  </g>
  <g>
    <path class="cls-3" d="M564.04,289.4c-.25,0-.51-.03-.78-.08-.26-.05-.51-.15-.73-.28-.22-.13-.42-.3-.59-.5-.17-.2-.31-.42-.42-.66-.11-.24-.18-.49-.22-.75-.04-.26-.06-.52-.06-.79v-1.76c0-.26.02-.53.06-.79.04-.26.11-.51.22-.75.11-.24.25-.46.42-.66.17-.2.37-.37.59-.5.23-.13.47-.22.73-.28.26-.05.52-.08.78-.08s.49.02.73.07c.24.04.48.12.7.23.22.11.42.25.59.42.18.17.32.36.44.58.12.22.2.44.26.68.05.24.08.48.08.73v.03h-1.14c0-.24-.03-.46-.1-.67s-.18-.4-.34-.57c-.16-.16-.34-.28-.56-.35-.22-.07-.44-.11-.66-.11-.17,0-.33.02-.49.06s-.31.11-.45.21c-.14.1-.25.22-.35.35-.09.14-.17.28-.23.43-.06.15-.1.31-.12.48s-.03.33-.03.5v1.76c0,.17,0,.33.03.5.02.17.06.33.12.48.06.15.13.3.23.43.09.14.21.25.35.35.14.1.29.17.45.21s.33.06.49.06c.22,0,.44-.04.66-.11.21-.07.4-.19.56-.35.16-.16.27-.35.34-.56.07-.22.1-.44.1-.66h0s1.14-.01,1.14-.01v.03c0,.25-.03.49-.08.73-.05.24-.14.47-.26.68-.12.22-.26.41-.44.58-.18.17-.38.31-.59.42-.22.11-.45.18-.7.23-.25.04-.49.07-.73.07Z"/>
    <path class="cls-3" d="M568.86,289.28v-1.03h2.1v-8.73h-1.89v-1.03h3.04v9.76h1.89v1.03h-5.14Z"/>
    <path class="cls-3" d="M578.77,289.4c-.26,0-.53-.03-.79-.08s-.51-.14-.73-.27c-.22-.13-.43-.29-.61-.49-.18-.2-.33-.42-.43-.66-.11-.24-.18-.49-.22-.76-.04-.26-.06-.53-.06-.79v-1.76c0-.26.02-.53.06-.79.04-.26.11-.52.22-.76.11-.24.25-.46.43-.66.18-.2.38-.36.61-.49.23-.13.47-.22.73-.27.26-.05.53-.08.79-.08s.53.03.79.08c.26.05.51.14.73.27.22.13.43.29.61.49.18.2.33.42.43.66.11.24.18.49.22.76.04.26.06.53.06.79v1.76c0,.26-.02.53-.06.79-.04.26-.11.52-.22.76-.11.24-.25.46-.43.66-.18.2-.38.36-.61.49-.23.13-.47.22-.73.27-.26.05-.53.08-.79.08ZM578.77,288.37c.17,0,.33-.02.5-.06.17-.04.32-.11.46-.2.14-.09.26-.21.36-.34.1-.14.18-.28.24-.44s.1-.32.12-.48c.02-.17.03-.33.03-.5v-1.76c0-.17,0-.33-.03-.5s-.06-.33-.12-.48-.14-.3-.24-.44-.22-.25-.36-.34c-.14-.09-.29-.16-.46-.2-.17-.04-.33-.06-.5-.06s-.33.02-.5.06c-.17.04-.32.11-.46.2-.14.09-.26.21-.36.34-.1.14-.18.28-.24.44-.06.16-.1.32-.12.48s-.03.33-.03.5v1.76c0,.17,0,.33.03.5.02.17.06.33.12.48.06.16.14.3.24.44.1.14.22.25.36.34.14.09.29.16.46.2.17.04.33.06.5.06Z"/>
    <path class="cls-3" d="M586.09,289.4c-.22,0-.43-.01-.65-.04-.21-.02-.43-.07-.63-.15s-.4-.17-.59-.29c-.19-.12-.34-.26-.48-.43-.13-.17-.23-.36-.3-.57-.07-.21-.1-.42-.1-.64v-.04h1.14c0,.2.05.37.15.53.1.16.23.28.39.37.16.09.33.15.51.18.18.03.36.04.55.04.18,0,.35-.01.54-.04s.35-.09.51-.17c.16-.08.29-.2.4-.35.11-.15.17-.32.17-.49s-.05-.34-.14-.49c-.09-.15-.21-.28-.34-.37-.14-.1-.29-.17-.45-.23-.16-.05-.33-.1-.49-.14-.17-.04-.33-.08-.49-.12-.16-.04-.32-.09-.48-.15-.16-.06-.32-.12-.47-.2-.15-.07-.3-.16-.43-.26s-.26-.22-.37-.34c-.11-.13-.21-.27-.29-.42-.08-.15-.14-.31-.18-.48-.04-.17-.07-.33-.07-.5,0-.21.03-.42.1-.62.06-.2.16-.39.29-.56s.28-.32.46-.43c.18-.12.36-.21.56-.29.2-.07.4-.12.61-.15.21-.02.42-.04.62-.04s.43.01.63.04.41.07.61.15c.2.07.39.17.56.29.17.12.32.27.45.43.13.17.22.35.29.56.06.21.1.41.1.62v.04h-1.14c0-.19-.04-.35-.13-.51-.09-.15-.21-.27-.35-.37-.15-.09-.31-.15-.48-.18s-.34-.04-.52-.04-.34.01-.51.04-.33.09-.48.18c-.15.09-.27.21-.37.35s-.15.31-.15.48c0,.21.06.39.19.57.13.17.28.31.46.4s.36.17.57.21c.2.04.4.09.6.14.2.05.4.11.59.17s.37.15.55.25c.18.1.34.22.5.35.16.13.29.28.4.46s.2.35.26.55c.06.2.09.4.09.6s-.03.43-.1.63-.17.39-.31.57c-.14.17-.3.32-.48.43-.18.12-.37.21-.58.28-.21.07-.42.11-.63.14-.22.02-.43.04-.65.04Z"/>
    <path class="cls-3" d="M593.47,289.4c-.26,0-.53-.02-.79-.07s-.51-.14-.74-.27c-.23-.13-.44-.3-.62-.5-.18-.2-.33-.42-.44-.66-.11-.24-.19-.49-.23-.76-.04-.26-.06-.53-.06-.79v-1.76c0-.26.02-.53.06-.79.04-.26.11-.52.22-.76.11-.24.25-.46.43-.66.18-.2.38-.36.61-.49.23-.13.47-.22.73-.27.26-.05.53-.08.79-.08s.53.03.79.08c.26.05.51.14.73.27.22.13.43.29.61.49.18.2.33.42.43.66.11.24.18.49.22.76.04.26.06.53.06.79v1.39h-4.55v.37c0,.17,0,.33.03.5.02.17.06.33.12.48s.15.3.25.44c.1.14.23.25.37.34s.3.16.46.2c.17.04.33.06.5.06.19,0,.37-.02.56-.06.19-.04.37-.11.52-.21.16-.1.29-.23.39-.4.1-.17.16-.35.17-.54h1.14c0,.23-.05.44-.12.65-.07.21-.18.41-.31.59-.13.18-.29.34-.47.47-.18.13-.37.24-.58.32-.21.08-.42.13-.65.16-.23.03-.45.04-.66.04ZM595.15,284.95v-.37c0-.17,0-.33-.03-.5s-.06-.33-.12-.48-.14-.3-.24-.44-.22-.25-.36-.34c-.14-.09-.29-.16-.46-.2-.17-.04-.33-.06-.5-.06s-.33.02-.5.06c-.17.04-.32.11-.46.2-.14.09-.26.21-.36.34-.1.14-.18.28-.24.44-.06.16-.1.32-.12.48s-.03.33-.03.5v.37h3.41Z"/>
    <path class="cls-3" d="M602.57,291.64c-.42-.24-.81-.51-1.18-.83-.37-.32-.7-.67-.99-1.06-.29-.39-.54-.8-.75-1.24-.21-.44-.37-.89-.5-1.36s-.22-.94-.27-1.42-.08-.97-.08-1.45.03-.96.08-1.45.14-.96.27-1.42.29-.92.5-1.36c.21-.44.46-.85.75-1.24.29-.39.62-.74.99-1.06.37-.32.76-.59,1.18-.83l.56.9c-.54.31-1.02.71-1.45,1.19-.43.48-.77,1.01-1.04,1.58-.26.57-.45,1.17-.55,1.81-.1.63-.15,1.26-.15,1.89s.05,1.25.15,1.89c.1.63.29,1.23.55,1.81.26.57.61,1.1,1.04,1.58s.91.88,1.45,1.19l-.56.9Z"/>
    <path class="cls-3" d="M606.33,291.64l-.56-.9c.54-.31,1.02-.71,1.45-1.19s.77-1,1.04-1.58c.26-.57.45-1.17.55-1.81.1-.63.15-1.26.15-1.89s-.05-1.25-.15-1.89c-.1-.63-.29-1.23-.55-1.81-.26-.57-.61-1.1-1.04-1.58-.43-.48-.91-.88-1.45-1.19l.56-.9c.42.24.81.51,1.18.83.37.32.7.67.99,1.06.29.39.54.8.75,1.24s.37.89.5,1.36.22.94.27,1.42.08.97.08,1.45-.03.96-.08,1.45-.14.96-.27,1.42-.29.92-.5,1.36-.46.85-.75,1.24c-.29.39-.62.74-.99,1.06-.37.32-.76.59-1.18.83Z"/>
  </g>
</svg>