<?xml version="1.0" encoding="UTF-8"?>
<svg id="Layer_1" data-name="Layer 1" xmlns="http://www.w3.org/2000/svg" viewBox="0 0 768.4 64.54">
  <defs>
    <style>
      .cls-1 {
        fill: none;
      }

      .cls-1, .cls-2 {
        stroke: #231f20;
        stroke-miterlimit: 10;
      }

      .cls-3, .cls-4 {
        fill: #231f20;
      }

      .cls-2 {
        fill: #fff;
      }

      .cls-4 {
        font-family: IosevkaNF, 'Iosevka Nerd Font';
        font-size: 12px;
      }
    </style>
  </defs>
  <rect class="cls-2" x="10.8" y="13.1" width="73" height="38.48"/>
  <text class="cls-4" transform="translate(29.3 35.23)"><tspan x="0" y="0">client</tspan></text>
  <text class="cls-4" transform="translate(103.97 17.87)"><tspan x="0" y="0">ClientRtcMessage</tspan></text>
  <text class="cls-4" transform="translate(363.27 17.8)"><tspan x="0" y="0">Pub/Sub</tspan></text>
  <text class="cls-4" transform="translate(568.58 17.8)"><tspan x="0" y="0">ClientRtcMessage</tspan></text>
  <text class="cls-4" transform="translate(103.97 53.98)"><tspan x="0" y="0">WorkerRtcMessage</tspan></text>
  <text class="cls-4" transform="translate(568.57 51.51)"><tspan x="0" y="0">WorkerRtcMessage</tspan></text>
  <rect class="cls-2" x="684.75" y="13.03" width="73" height="38.48"/>
  <text class="cls-4" transform="translate(703.25 35.16)"><tspan x="0" y="0">worker</tspan></text>
  <rect class="cls-2" x="220.14" y="13.1" width="92.88" height="38.48"/>
  <text class="cls-4" transform="translate(233.58 35.23)"><tspan x="0" y="0">distributor</tspan></text>
  <rect class="cls-2" x="455.52" y="13.03" width="92.88" height="38.48"/>
  <text class="cls-4" transform="translate(468.96 35.16)"><tspan x="0" y="0">distributor</tspan></text>
  <g>
    <line class="cls-1" x1="83.79" y1="26.41" x2="214.1" y2="26.41"/>
    <path class="cls-3" d="M220.14,26.41c-2.84,1.05-6.36,2.85-8.55,4.76l1.72-4.76-1.72-4.75c2.18,1.9,5.71,3.7,8.55,4.75Z"/>
  </g>
  <g>
    <line class="cls-1" x1="89.83" y1="37.15" x2="220.14" y2="37.15"/>
    <path class="cls-3" d="M83.79,37.15c2.84,1.05,6.36,2.85,8.55,4.76l-1.72-4.76,1.72-4.75c-2.18,1.9-5.71,3.7-8.55,4.75Z"/>
  </g>
  <g>
    <line class="cls-1" x1="554.44" y1="37.08" x2="684.75" y2="37.08"/>
    <path class="cls-3" d="M548.4,37.08c2.84,1.05,6.36,2.85,8.55,4.76l-1.72-4.76,1.72-4.75c-2.18,1.9-5.71,3.7-8.55,4.75Z"/>
  </g>
  <g>
    <line class="cls-1" x1="548.4" y1="26.34" x2="678.71" y2="26.34"/>
    <path class="cls-3" d="M684.75,26.34c-2.84,1.05-6.36,2.85-8.55,4.76l1.72-4.76-1.72-4.75c2.18,1.9,5.71,3.7,8.55,4.75Z"/>
  </g>
  <g>
    <line class="cls-1" x1="319.05" y1="37.08" x2="455.52" y2="37.08"/>
    <path class="cls-3" d="M313.02,37.08c2.84,1.05,6.36,2.85,8.55,4.76l-1.72-4.76,1.72-4.75c-2.18,1.9-5.71,3.7-8.55,4.75Z"/>
  </g>
  <g>
    <line class="cls-1" x1="313.02" y1="26.34" x2="449.49" y2="26.34"/>
    <path class="cls-3" d="M455.52,26.34c-2.84,1.05-6.36,2.85-8.55,4.76l1.72-4.76-1.72-4.75c2.18,1.9,5.71,3.7,8.55,4.75Z"/>
  </g>
</svg>