<?xml version="1.0" encoding="UTF-8"?>
<svg id="Layer_1" data-name="Layer 1" xmlns="http://www.w3.org/2000/svg" viewBox="0 0 768.4 64.54">
  <defs>
    <style>
      .cls-1 {
        fill: none;
      }

      .cls-1, .cls-2 {
        stroke: #231f20;
        stroke-miterlimit: 10;
      }

      .cls-3 {
        fill: #231f20;
      }

      .cls-2 {
        fill: #fff;
      }
    </style>
  </defs>
  <rect class="cls-2" x="10.8" y="13.1" width="73" height="38.48"/>
  <g>
    <path class="cls-3" d="M32.26,35.33c-.21,0-.42-.02-.64-.07-.22-.04-.42-.12-.6-.23-.18-.11-.35-.24-.49-.41-.14-.16-.25-.34-.34-.54-.09-.2-.15-.4-.18-.61s-.05-.43-.05-.64v-1.44c0-.22.02-.43.05-.64s.09-.42.18-.61c.09-.2.2-.38.34-.54.14-.16.3-.3.49-.41.18-.11.38-.18.6-.23.22-.04.43-.07.64-.07s.4.02.6.05c.2.04.39.1.57.19.18.09.34.2.49.34.14.14.26.3.36.47.1.18.17.36.21.56.04.2.07.39.07.59v.02h-.94c0-.2-.03-.38-.08-.55-.06-.18-.15-.33-.28-.46-.13-.13-.28-.23-.46-.29-.18-.06-.36-.09-.54-.09-.14,0-.27.02-.4.05-.13.03-.25.09-.37.17-.11.08-.21.18-.28.29-.08.11-.14.23-.19.35-.05.12-.08.25-.1.39-.02.14-.02.27-.02.41v1.44c0,.14,0,.27.02.41.02.14.05.27.1.39s.11.24.19.35c.08.11.17.21.28.29.11.08.23.14.37.17.13.03.27.05.4.05.18,0,.36-.03.54-.09s.33-.16.46-.29.22-.29.28-.46c.06-.18.08-.36.08-.54h0s.94-.01.94-.01v.02c0,.2-.02.4-.07.59-.04.2-.11.38-.21.56-.1.18-.22.33-.36.47-.14.14-.31.25-.49.34-.18.09-.37.15-.57.19s-.4.05-.6.05Z"/>
    <path class="cls-3" d="M36.2,35.23v-.84h1.72v-7.14h-1.55v-.84h2.48v7.98h1.55v.84h-4.2Z"/>
    <path class="cls-3" d="M42.2,35.23v-.84h1.72v-4.56h-1.55v-.84h2.48v5.4h1.55v.84h-4.2ZM44.36,27.94c-.1,0-.2-.01-.3-.04s-.18-.08-.25-.15c-.07-.07-.12-.16-.15-.25-.03-.1-.04-.2-.04-.3s.01-.2.04-.3c.03-.1.08-.18.15-.25.07-.07.16-.12.25-.16.1-.03.2-.05.3-.05s.2.02.3.05c.1.03.18.08.25.16.07.07.12.16.16.25.03.1.05.2.05.3s-.02.2-.05.3c-.03.1-.08.18-.16.25-.07.07-.16.12-.25.15-.1.03-.2.04-.3.04Z"/>
    <path class="cls-3" d="M50.32,35.33c-.22,0-.43-.02-.65-.06s-.42-.11-.61-.22c-.19-.11-.36-.24-.5-.41-.15-.16-.27-.34-.36-.54-.09-.2-.15-.4-.19-.62s-.05-.43-.05-.65v-1.44c0-.22.02-.43.05-.65.03-.22.09-.42.18-.62.09-.2.21-.38.35-.54.15-.16.31-.3.5-.4.18-.1.38-.18.6-.22s.43-.07.65-.07.43.02.65.07.42.12.6.22c.18.1.35.24.5.4.15.16.27.34.35.54.09.2.15.4.18.62.03.22.05.43.05.65v1.14h-3.72v.3c0,.14,0,.27.02.41.02.14.05.27.1.4.05.13.12.25.2.36.08.11.18.21.3.28.12.08.24.13.38.16.14.03.27.05.41.05.15,0,.31-.02.46-.05.16-.03.3-.09.43-.17s.23-.19.32-.32c.08-.14.13-.28.14-.44h.94c0,.18-.04.36-.1.53-.06.17-.14.33-.25.48-.11.15-.24.28-.38.38-.15.11-.31.19-.47.26s-.34.11-.53.13c-.18.02-.36.04-.54.04ZM51.69,31.69v-.3c0-.14,0-.27-.02-.41-.02-.14-.05-.27-.1-.4s-.11-.25-.2-.36-.18-.21-.29-.28c-.11-.08-.24-.13-.37-.16-.14-.03-.27-.05-.41-.05s-.27.02-.41.05c-.14.03-.26.09-.37.16-.11.08-.21.17-.29.28s-.15.23-.2.36-.08.26-.1.4c-.02.14-.02.27-.02.41v.3h2.78Z"/>
    <path class="cls-3" d="M54.06,35.23v-6.24h.94v1.09c.06-.17.15-.33.25-.48.1-.15.23-.28.38-.4.15-.11.31-.19.49-.24.18-.05.36-.07.53-.07.2,0,.4.03.59.08.19.06.36.15.51.27.15.12.27.27.38.44.1.17.19.35.25.54.06.19.1.38.12.58.02.2.03.39.03.58v3.84h-.94v-3.84c0-.14,0-.27-.02-.4-.02-.13-.04-.26-.08-.38s-.1-.24-.17-.35c-.08-.11-.17-.21-.27-.29-.1-.08-.22-.14-.35-.17s-.26-.05-.4-.05-.27.02-.4.05-.24.09-.35.17c-.1.08-.19.18-.27.29-.08.11-.13.23-.17.35s-.07.25-.08.38c-.02.13-.02.27-.02.4v3.84h-.94Z"/>
    <path class="cls-3" d="M63.09,35.33c-.18,0-.35-.02-.53-.07-.18-.04-.34-.12-.49-.23-.15-.11-.27-.24-.38-.39s-.19-.31-.25-.49c-.06-.17-.1-.35-.12-.53-.02-.18-.03-.36-.03-.55v-3.25h-1.15v-.84h1.15v-2.58h.94v2.58h2.11v.84h-2.11v3.25c0,.1,0,.21.01.31s.02.21.05.31c.02.1.06.2.1.29.04.1.09.18.16.26.07.08.15.13.25.17.1.04.2.06.29.06s.19-.02.28-.05c.09-.03.17-.08.24-.14.07-.06.12-.14.17-.23.04-.09.08-.18.11-.26.03-.09.05-.18.06-.28.01-.1.02-.19.02-.29v-.07h.94v.12c0,.17-.02.34-.05.51-.03.17-.08.34-.14.49-.06.16-.15.3-.26.44-.11.14-.23.26-.38.35-.14.09-.3.16-.47.19s-.34.05-.52.05Z"/>
  </g>
  <g>
    <path class="cls-3" d="M106.93,17.96c-.21,0-.42-.02-.63-.06s-.41-.11-.59-.22c-.18-.1-.35-.24-.49-.4-.14-.16-.26-.34-.35-.53s-.15-.39-.18-.61c-.03-.21-.05-.42-.05-.63v-4.14c0-.21.02-.42.05-.63.03-.21.09-.41.18-.61.09-.19.2-.37.35-.53.14-.16.31-.29.49-.4.18-.1.38-.18.59-.22s.42-.06.63-.06.4.02.59.05c.2.03.38.09.56.18s.34.2.49.34c.15.14.27.29.36.47.09.18.16.36.21.55s.07.39.07.59v.04h-.94v-.02c0-.18-.03-.35-.09-.53-.06-.18-.15-.33-.28-.46s-.27-.22-.45-.28c-.18-.06-.36-.08-.54-.08-.2,0-.39.04-.58.11-.19.08-.34.19-.46.35s-.2.34-.25.53c-.04.2-.07.39-.07.59v4.14c0,.2.02.4.07.59.04.2.13.37.25.53s.27.28.46.35c.19.08.38.11.58.11.18,0,.36-.03.54-.08.18-.06.33-.15.45-.28s.22-.28.28-.46c.06-.18.09-.35.09-.53v-.02h.94v.04c0,.2-.02.4-.07.59-.05.19-.12.38-.21.55-.09.18-.21.33-.36.47-.15.14-.31.25-.49.34s-.37.15-.56.18c-.2.03-.39.05-.59.05Z"/>
    <path class="cls-3" d="M110.87,17.87v-.84h1.72v-7.14h-1.55v-.84h2.48v7.98h1.55v.84h-4.2Z"/>
    <path class="cls-3" d="M116.87,17.87v-.84h1.72v-4.56h-1.55v-.84h2.48v5.4h1.55v.84h-4.2ZM119.03,10.57c-.1,0-.2-.01-.3-.04-.1-.03-.18-.08-.25-.15-.07-.07-.12-.16-.15-.25-.03-.1-.04-.2-.04-.3s.01-.2.04-.3c.03-.1.08-.18.15-.25.07-.07.16-.12.25-.16.1-.03.2-.05.3-.05s.2.02.3.05c.1.03.18.08.25.16.07.07.12.16.16.25.03.1.05.2.05.3s-.02.2-.05.3c-.03.1-.08.18-.16.25-.07.07-.16.12-.25.15s-.2.04-.3.04Z"/>
    <path class="cls-3" d="M124.99,17.96c-.22,0-.43-.02-.65-.06s-.42-.11-.61-.22c-.19-.11-.36-.24-.5-.41-.15-.16-.27-.34-.36-.54-.09-.2-.15-.4-.19-.62-.03-.22-.05-.43-.05-.65v-1.44c0-.22.02-.43.05-.65.03-.22.09-.42.18-.62.09-.2.21-.38.35-.54.15-.16.31-.3.5-.4.18-.1.38-.18.6-.22s.43-.07.65-.07.43.02.65.07.42.12.6.22c.18.1.35.24.5.4s.27.34.35.54c.09.2.15.4.18.62.03.22.05.43.05.65v1.14h-3.72v.3c0,.14,0,.27.02.41.02.14.05.27.1.4.05.13.12.25.2.36.08.11.18.21.3.28.12.08.24.13.38.16.14.03.27.05.41.05.15,0,.31-.02.46-.05.16-.03.3-.09.43-.17s.23-.19.32-.32c.08-.14.13-.28.14-.44h.94c0,.18-.04.36-.1.53-.06.17-.14.33-.25.48s-.24.28-.38.38c-.15.11-.31.19-.47.26s-.34.11-.53.13c-.18.02-.36.04-.54.04ZM126.36,14.33v-.3c0-.14,0-.27-.02-.41-.02-.14-.05-.27-.1-.4s-.11-.25-.2-.36-.18-.21-.29-.28c-.11-.08-.24-.13-.37-.16-.14-.03-.27-.05-.41-.05s-.27.02-.41.05c-.14.03-.26.09-.37.16-.11.08-.21.17-.29.28s-.15.23-.2.36-.08.26-.1.4c-.02.14-.02.27-.02.41v.3h2.78Z"/>
    <path class="cls-3" d="M128.74,17.87v-6.24h.94v1.09c.06-.17.15-.33.25-.48.1-.15.23-.28.38-.4.15-.11.31-.19.49-.24.18-.05.36-.07.53-.07.2,0,.4.03.59.08s.36.15.51.27c.15.12.27.27.38.44.1.17.19.35.25.54.06.19.1.38.12.58.02.2.03.39.03.58v3.84h-.94v-3.84c0-.14,0-.27-.02-.4-.02-.13-.04-.26-.08-.38s-.1-.24-.17-.35c-.08-.11-.17-.21-.27-.29-.1-.08-.22-.14-.35-.17s-.26-.05-.4-.05-.27.02-.4.05-.24.09-.35.17c-.1.08-.19.18-.27.29-.08.11-.13.23-.17.35s-.07.25-.08.38c-.02.13-.02.27-.02.4v3.84h-.94Z"/>
    <path class="cls-3" d="M137.76,17.96c-.18,0-.35-.02-.53-.07-.18-.04-.34-.12-.49-.23-.15-.11-.27-.24-.38-.39-.1-.15-.19-.31-.25-.49-.06-.17-.1-.35-.12-.53-.02-.18-.03-.36-.03-.55v-3.25h-1.15v-.84h1.15v-2.58h.94v2.58h2.11v.84h-2.11v3.25c0,.1,0,.21.01.31s.02.21.05.31.06.2.1.29c.04.1.09.18.16.26.07.08.15.13.25.17.1.04.2.06.29.06s.19-.02.28-.05c.09-.03.17-.08.24-.14.07-.06.12-.14.17-.23.04-.09.08-.18.11-.26.03-.09.05-.18.06-.28.01-.1.02-.19.02-.29v-.07h.94v.12c0,.17-.02.34-.05.51-.03.17-.08.34-.14.49-.06.16-.15.3-.26.44-.11.14-.23.26-.38.35-.14.09-.3.16-.47.19s-.34.05-.52.05Z"/>
    <path class="cls-3" d="M140.74,17.87v-8.82h2.3c.22,0,.43.02.64.07s.41.13.59.25c.18.12.34.26.48.43s.25.36.33.56c.08.2.14.41.17.62.03.22.04.43.04.65,0,.27-.02.54-.07.82-.05.27-.14.52-.28.76-.14.23-.31.43-.53.6s-.46.29-.73.36l1.8,3.71h-1.02l-1.76-3.65h-1.03v3.65h-.94ZM141.67,13.38h1.37c.14,0,.27-.02.41-.06.14-.04.26-.1.37-.19.11-.08.2-.19.27-.31s.13-.25.17-.38.07-.27.08-.4c.02-.14.02-.28.02-.42,0-.14,0-.27-.02-.41s-.04-.27-.08-.4c-.04-.13-.1-.26-.17-.38-.07-.12-.16-.22-.27-.31-.11-.08-.23-.15-.37-.19-.14-.04-.27-.06-.41-.06h-1.37v3.49Z"/>
    <path class="cls-3" d="M149.76,17.96c-.18,0-.35-.02-.53-.07-.18-.04-.34-.12-.49-.23-.15-.11-.27-.24-.38-.39-.1-.15-.19-.31-.25-.49-.06-.17-.1-.35-.12-.53-.02-.18-.03-.36-.03-.55v-3.25h-1.15v-.84h1.15v-2.58h.94v2.58h2.11v.84h-2.11v3.25c0,.1,0,.21.01.31s.02.21.05.31.06.2.1.29c.04.1.09.18.16.26.07.08.15.13.25.17.1.04.2.06.29.06s.19-.02.28-.05c.09-.03.17-.08.24-.14.07-.06.12-.14.17-.23.04-.09.08-.18.11-.26.03-.09.05-.18.06-.28.01-.1.02-.19.02-.29v-.07h.94v.12c0,.17-.02.34-.05.51-.03.17-.08.34-.14.49-.06.16-.15.3-.26.44-.11.14-.23.26-.38.35-.14.09-.3.16-.47.19s-.34.05-.52.05Z"/>
    <path class="cls-3" d="M154.93,17.96c-.21,0-.42-.02-.64-.07-.22-.04-.42-.12-.6-.23-.18-.11-.35-.24-.49-.41s-.25-.34-.34-.54c-.09-.2-.15-.4-.18-.61-.03-.21-.05-.43-.05-.64v-1.44c0-.22.02-.43.05-.64.03-.21.09-.42.18-.61.09-.2.2-.38.34-.54s.3-.3.49-.41c.18-.11.38-.18.6-.23s.43-.07.64-.07.4.02.6.05c.2.04.39.1.57.19.18.09.34.2.49.34.14.14.26.3.36.47.1.18.17.36.21.56.04.2.07.39.07.59v.02h-.94c0-.2-.03-.38-.08-.55-.06-.18-.15-.33-.28-.46-.13-.13-.28-.23-.46-.29-.18-.06-.36-.09-.54-.09-.14,0-.27.02-.4.05-.13.03-.25.09-.37.17s-.21.18-.28.29c-.08.11-.14.23-.19.35-.05.12-.08.25-.1.39-.02.14-.02.27-.02.41v1.44c0,.14,0,.27.02.41.02.14.05.27.1.39s.11.24.19.35c.08.11.17.21.28.29s.23.14.37.17c.13.03.27.05.4.05.18,0,.36-.03.54-.09s.33-.16.46-.29.22-.29.28-.46c.06-.18.08-.36.08-.54h0s.94-.01.94-.01v.02c0,.2-.02.4-.07.59-.04.2-.11.38-.21.56-.1.18-.22.33-.36.47-.14.14-.31.25-.49.34-.18.09-.37.15-.57.19-.2.04-.4.05-.6.05Z"/>
    <path class="cls-3" d="M158.54,17.87v-8.82h1.13l1.3,4.84,1.3-4.84h1.13v8.82h-.94v-1.76c0-.92.01-1.84.04-2.75s.05-1.83.07-2.74l-1.24,4.61h-.72l-1.24-4.61c.02.91.04,1.83.07,2.74.03.92.04,1.83.04,2.75v1.76h-.94Z"/>
    <path class="cls-3" d="M166.99,17.96c-.22,0-.43-.02-.65-.06s-.42-.11-.61-.22c-.19-.11-.36-.24-.5-.41-.15-.16-.27-.34-.36-.54-.09-.2-.15-.4-.19-.62-.03-.22-.05-.43-.05-.65v-1.44c0-.22.02-.43.05-.65.03-.22.09-.42.18-.62.09-.2.21-.38.35-.54.15-.16.31-.3.5-.4.18-.1.38-.18.6-.22s.43-.07.65-.07.43.02.65.07.42.12.6.22c.18.1.35.24.5.4s.27.34.35.54c.09.2.15.4.18.62.03.22.05.43.05.65v1.14h-3.72v.3c0,.14,0,.27.02.41.02.14.05.27.1.4.05.13.12.25.2.36.08.11.18.21.3.28.12.08.24.13.38.16.14.03.27.05.41.05.15,0,.31-.02.46-.05.16-.03.3-.09.43-.17s.23-.19.32-.32c.08-.14.13-.28.14-.44h.94c0,.18-.04.36-.1.53-.06.17-.14.33-.25.48s-.24.28-.38.38c-.15.11-.31.19-.47.26s-.34.11-.53.13c-.18.02-.36.04-.54.04ZM168.36,14.33v-.3c0-.14,0-.27-.02-.41-.02-.14-.05-.27-.1-.4s-.11-.25-.2-.36-.18-.21-.29-.28c-.11-.08-.24-.13-.37-.16-.14-.03-.27-.05-.41-.05s-.27.02-.41.05c-.14.03-.26.09-.37.16-.11.08-.21.17-.29.28s-.15.23-.2.36-.08.26-.1.4c-.02.14-.02.27-.02.41v.3h2.78Z"/>
    <path class="cls-3" d="M172.96,17.96c-.18,0-.35-.01-.53-.03s-.35-.06-.52-.12c-.17-.06-.33-.14-.48-.23-.15-.1-.28-.21-.39-.35-.11-.14-.19-.3-.25-.47s-.08-.35-.08-.52v-.04h.94c0,.16.04.3.13.43s.19.23.32.31c.13.08.27.13.41.15.15.02.3.04.45.04.14,0,.29-.01.44-.04.15-.02.29-.07.41-.14s.24-.16.33-.29.14-.26.14-.4-.04-.28-.11-.4-.17-.23-.28-.31-.23-.14-.37-.19c-.13-.04-.27-.08-.4-.11-.14-.03-.27-.06-.4-.1s-.26-.07-.4-.12c-.13-.05-.26-.1-.38-.16s-.24-.13-.35-.22c-.11-.08-.21-.18-.31-.28-.09-.1-.17-.22-.23-.34-.06-.12-.11-.25-.15-.39-.04-.14-.05-.27-.05-.41,0-.18.03-.35.08-.51.05-.16.13-.32.23-.46.1-.14.23-.26.37-.35.14-.1.3-.17.46-.23s.33-.1.5-.12c.17-.02.34-.03.51-.03s.35.01.52.03c.17.02.33.06.5.12s.32.14.46.24c.14.1.26.22.37.35.1.14.18.29.23.46.05.17.08.34.08.5v.04h-.94c0-.16-.04-.29-.11-.41s-.17-.22-.29-.3c-.12-.08-.25-.13-.39-.15-.14-.02-.28-.04-.43-.04s-.27.01-.41.04c-.14.02-.27.07-.39.14-.12.07-.22.17-.3.29-.08.12-.12.25-.12.4,0,.17.05.32.16.46.1.14.23.25.37.33.14.08.3.14.46.17s.33.07.49.11.32.09.48.14c.16.05.31.12.45.2.14.08.28.18.41.29s.24.23.33.37c.09.14.16.29.22.45.05.16.08.32.08.49s-.03.35-.08.52c-.06.17-.14.32-.25.46-.11.14-.24.26-.39.35-.15.1-.31.17-.47.23-.17.06-.34.09-.52.11-.18.02-.35.03-.53.03Z"/>
    <path class="cls-3" d="M178.96,17.96c-.18,0-.35-.01-.53-.03s-.35-.06-.52-.12c-.17-.06-.33-.14-.48-.23-.15-.1-.28-.21-.39-.35-.11-.14-.19-.3-.25-.47s-.08-.35-.08-.52v-.04h.94c0,.16.04.3.13.43s.19.23.32.31c.13.08.27.13.41.15.15.02.3.04.45.04.14,0,.29-.01.44-.04.15-.02.29-.07.41-.14s.24-.16.33-.29.14-.26.14-.4-.04-.28-.11-.4-.17-.23-.28-.31-.23-.14-.37-.19c-.13-.04-.27-.08-.4-.11-.14-.03-.27-.06-.4-.1s-.26-.07-.4-.12c-.13-.05-.26-.1-.38-.16s-.24-.13-.35-.22c-.11-.08-.21-.18-.31-.28-.09-.1-.17-.22-.23-.34-.06-.12-.11-.25-.15-.39-.04-.14-.05-.27-.05-.41,0-.18.03-.35.08-.51.05-.16.13-.32.23-.46.1-.14.23-.26.37-.35.14-.1.3-.17.46-.23s.33-.1.5-.12c.17-.02.34-.03.51-.03s.35.01.52.03c.17.02.33.06.5.12s.32.14.46.24c.14.1.26.22.37.35.1.14.18.29.23.46.05.17.08.34.08.5v.04h-.94c0-.16-.04-.29-.11-.41s-.17-.22-.29-.3c-.12-.08-.25-.13-.39-.15-.14-.02-.28-.04-.43-.04s-.27.01-.41.04c-.14.02-.27.07-.39.14-.12.07-.22.17-.3.29-.08.12-.12.25-.12.4,0,.17.05.32.16.46.1.14.23.25.37.33.14.08.3.14.46.17s.33.07.49.11.32.09.48.14c.16.05.31.12.45.2.14.08.28.18.41.29s.24.23.33.37c.09.14.16.29.22.45.05.16.08.32.08.49s-.03.35-.08.52c-.06.17-.14.32-.25.46-.11.14-.24.26-.39.35-.15.1-.31.17-.47.23-.17.06-.34.09-.52.11-.18.02-.35.03-.53.03Z"/>
    <path class="cls-3" d="M184.39,17.96c-.24,0-.48-.04-.71-.11-.23-.07-.43-.2-.59-.37-.16-.18-.28-.38-.35-.61-.07-.23-.1-.47-.1-.71,0-.2.03-.4.08-.6.05-.2.14-.38.27-.54.13-.16.28-.29.45-.4.17-.11.36-.19.55-.26.2-.06.39-.11.59-.13.2-.02.4-.04.61-.04h1.07v-.59c0-.17-.03-.34-.08-.5-.06-.17-.15-.31-.28-.42-.13-.11-.28-.19-.44-.24-.17-.05-.34-.07-.5-.07s-.32.02-.47.05c-.16.03-.3.09-.43.18-.13.09-.23.2-.3.35s-.11.29-.11.44h-.94c0-.18.03-.36.08-.54.05-.18.13-.34.23-.49.1-.15.23-.28.38-.39.15-.11.31-.2.47-.26.17-.07.34-.11.53-.14.18-.02.37-.04.55-.04s.38.01.58.04c.19.03.38.08.55.16s.34.18.49.31c.15.13.27.28.37.44.1.17.16.35.2.54s.06.38.06.58v4.26h-.94v-1.03c-.07.18-.17.34-.31.49s-.28.27-.45.37-.35.17-.54.21c-.19.04-.38.06-.58.06ZM184.75,17.12c.19,0,.39-.03.58-.08.2-.05.37-.14.51-.28.14-.13.25-.29.32-.48.07-.19.1-.38.1-.58v-.67h-1.07c-.12,0-.24,0-.37.02s-.24.03-.36.06-.23.07-.34.12c-.11.05-.21.12-.3.2s-.15.18-.19.29c-.04.12-.06.23-.06.35,0,.14.03.29.08.43.06.14.14.26.25.36.11.1.24.16.39.2.15.04.3.05.45.05Z"/>
    <path class="cls-3" d="M190.93,20.54c-.18,0-.37-.01-.55-.04-.18-.03-.35-.08-.52-.14-.17-.07-.32-.16-.47-.28-.14-.12-.27-.25-.37-.4-.1-.15-.18-.32-.23-.49-.05-.18-.08-.36-.09-.54h.94c0,.16.05.31.11.45.07.14.16.26.29.35s.26.16.41.2c.15.04.31.05.47.05.14,0,.27-.02.4-.05.13-.03.25-.09.36-.17.11-.08.2-.18.28-.29.08-.11.14-.23.18-.36.04-.13.07-.26.09-.39.02-.13.02-.27.02-.4v-1.27c-.06.17-.15.33-.25.49-.1.16-.23.29-.38.4-.15.11-.31.19-.49.23-.18.05-.36.07-.55.07-.2,0-.4-.03-.59-.08-.2-.06-.37-.14-.53-.26s-.29-.26-.4-.43c-.11-.17-.19-.35-.26-.53-.06-.19-.11-.38-.13-.58-.02-.2-.04-.4-.04-.6v-1.44c0-.2.01-.4.04-.6.02-.2.07-.39.13-.58.06-.19.15-.37.26-.53.11-.17.24-.31.4-.43.16-.12.34-.21.53-.26s.39-.08.59-.08c.18,0,.37.02.55.07.18.05.34.13.49.23.15.11.27.24.38.4.1.16.19.32.25.49v-1.09h.94v6.42c0,.22-.02.43-.05.64-.03.21-.09.42-.17.61-.08.2-.2.38-.34.54-.14.16-.3.3-.49.41-.18.11-.38.18-.59.23-.21.04-.42.07-.63.07ZM190.96,17.12c.14,0,.27-.02.4-.05.13-.03.25-.09.35-.17s.19-.18.27-.29c.08-.12.13-.24.17-.36s.07-.25.08-.38c.02-.13.02-.27.02-.4v-1.44c0-.14,0-.27-.02-.4-.02-.13-.04-.26-.08-.38s-.1-.24-.17-.36c-.08-.12-.17-.21-.27-.29s-.22-.14-.35-.17c-.13-.03-.27-.05-.4-.05s-.27.02-.4.05c-.13.03-.25.09-.37.16-.11.08-.21.17-.29.28s-.15.23-.2.36-.08.26-.1.4c-.02.14-.02.27-.02.41v1.44c0,.14,0,.27.02.41.02.14.05.27.1.4.05.13.11.25.2.36.08.11.18.21.29.28.11.08.23.13.37.16.13.03.27.05.4.05Z"/>
    <path class="cls-3" d="M196.99,17.96c-.22,0-.43-.02-.65-.06s-.42-.11-.61-.22c-.19-.11-.36-.24-.5-.41-.15-.16-.27-.34-.36-.54-.09-.2-.15-.4-.19-.62-.03-.22-.05-.43-.05-.65v-1.44c0-.22.02-.43.05-.65.03-.22.09-.42.18-.62.09-.2.21-.38.35-.54.15-.16.31-.3.5-.4.18-.1.38-.18.6-.22s.43-.07.65-.07.43.02.65.07.42.12.6.22c.18.1.35.24.5.4s.27.34.35.54c.09.2.15.4.18.62.03.22.05.43.05.65v1.14h-3.72v.3c0,.14,0,.27.02.41.02.14.05.27.1.4.05.13.12.25.2.36.08.11.18.21.3.28.12.08.24.13.38.16.14.03.27.05.41.05.15,0,.31-.02.46-.05.16-.03.3-.09.43-.17s.23-.19.32-.32c.08-.14.13-.28.14-.44h.94c0,.18-.04.36-.1.53-.06.17-.14.33-.25.48s-.24.28-.38.38c-.15.11-.31.19-.47.26s-.34.11-.53.13c-.18.02-.36.04-.54.04ZM198.36,14.33v-.3c0-.14,0-.27-.02-.41-.02-.14-.05-.27-.1-.4s-.11-.25-.2-.36-.18-.21-.29-.28c-.11-.08-.24-.13-.37-.16-.14-.03-.27-.05-.41-.05s-.27.02-.41.05c-.14.03-.26.09-.37.16-.11.08-.21.17-.29.28s-.15.23-.2.36-.08.26-.1.4c-.02.14-.02.27-.02.41v.3h2.78Z"/>
  </g>
  <g>
    <path class="cls-3" d="M364.23,17.8v-8.82h2.11c.22,0,.43.02.65.07.22.04.43.12.62.23.19.11.36.25.5.43.14.17.26.36.35.56.09.2.15.42.18.64.03.22.05.44.05.65s-.02.45-.05.67c-.03.22-.09.43-.18.64s-.2.39-.35.56c-.14.17-.31.31-.5.43-.19.11-.4.19-.62.23-.22.04-.44.07-.65.07h-1.18v3.65h-.94ZM365.17,13.31h1.18c.14,0,.28-.02.42-.05s.26-.09.38-.17.22-.18.3-.3.15-.25.2-.38.08-.27.1-.41c.02-.14.02-.29.02-.43,0-.14,0-.28-.02-.42-.02-.14-.05-.28-.1-.41-.05-.13-.11-.26-.2-.38-.08-.12-.18-.22-.3-.3s-.24-.14-.38-.17c-.14-.04-.28-.05-.42-.05h-1.18v3.49Z"/>
    <path class="cls-3" d="M371.91,17.89c-.2,0-.4-.03-.59-.08-.19-.06-.36-.15-.51-.27-.15-.12-.27-.27-.38-.44-.1-.17-.19-.35-.25-.54-.06-.19-.1-.38-.12-.58-.02-.2-.03-.39-.03-.58v-3.84h.94v3.84c0,.14,0,.27.02.4.02.13.04.26.08.38s.1.24.17.35c.08.11.17.21.27.29.1.08.22.14.35.17.13.04.26.05.4.05s.27-.02.4-.05c.13-.04.24-.09.35-.17.1-.08.19-.18.27-.29.08-.11.13-.23.17-.35s.07-.25.08-.38c.02-.13.02-.27.02-.4v-3.84h.94v6.24h-.94v-1.09c-.06.17-.15.33-.25.48-.1.15-.23.28-.38.4-.15.11-.31.19-.49.24-.18.05-.36.07-.53.07Z"/>
    <path class="cls-3" d="M378.64,17.89c-.18,0-.37-.02-.55-.07s-.34-.13-.49-.23c-.15-.11-.27-.24-.38-.4-.1-.16-.19-.32-.25-.49v1.09h-.94v-8.82h.94v3.67c.06-.17.15-.33.25-.49.1-.16.23-.29.38-.4.15-.11.31-.19.49-.23.18-.05.36-.07.55-.07.2,0,.4.03.59.08.2.06.37.14.53.26.16.12.29.26.4.43.11.17.19.35.26.53s.11.38.13.58c.02.2.04.4.04.6v1.44c0,.2-.01.4-.04.6-.02.2-.07.39-.13.58s-.15.37-.26.53c-.11.17-.24.31-.4.43s-.34.21-.53.26c-.2.06-.39.08-.59.08ZM378.28,17.05c.14,0,.27-.02.4-.05.13-.03.25-.09.37-.16.11-.08.21-.17.29-.28.08-.11.15-.23.2-.36.05-.13.08-.26.1-.4.02-.14.02-.27.02-.41v-1.44c0-.14,0-.27-.02-.41-.02-.14-.05-.27-.1-.4s-.11-.25-.2-.36-.18-.21-.29-.28c-.11-.08-.23-.13-.37-.16-.13-.03-.27-.05-.4-.05s-.27.02-.4.05c-.13.03-.25.09-.35.17-.1.08-.19.18-.27.29-.08.12-.13.24-.17.36s-.07.25-.08.38c-.02.13-.02.27-.02.4v1.44c0,.14,0,.27.02.4.02.13.04.26.08.38s.1.24.17.36.17.21.27.29c.1.08.22.14.35.17.13.03.27.05.4.05Z"/>
    <path class="cls-3" d="M381.98,19.51l3.62-11.59h.96l-3.62,11.59h-.96Z"/>
    <path class="cls-3" d="M390.26,17.89c-.2,0-.4-.02-.59-.05-.2-.03-.39-.09-.57-.17-.18-.08-.35-.19-.5-.32s-.27-.28-.38-.46c-.1-.17-.18-.36-.23-.55-.05-.2-.07-.39-.07-.59v-.05h.94v.04c0,.18.03.36.1.53.06.17.16.32.3.44.14.12.29.21.47.26.18.05.36.08.54.08s.37-.03.55-.08c.18-.06.34-.15.47-.28.13-.13.23-.29.29-.47.06-.18.1-.37.1-.55,0-.21-.04-.41-.13-.6-.08-.19-.2-.36-.34-.51-.14-.15-.3-.28-.48-.38s-.36-.21-.54-.31c-.18-.1-.36-.2-.54-.3s-.34-.22-.5-.35-.31-.27-.45-.42c-.14-.15-.26-.32-.35-.5s-.17-.38-.22-.58c-.05-.2-.08-.4-.08-.61,0-.19.02-.39.07-.58.04-.2.11-.38.2-.56s.21-.34.35-.48c.14-.14.3-.26.47-.35s.36-.16.56-.19c.2-.04.39-.05.59-.05s.39.02.58.05c.2.03.38.09.56.17s.33.19.47.33c.14.14.26.29.35.46.1.17.17.35.21.55s.07.38.07.58v.05h-.94v-.04c0-.17-.03-.34-.08-.51s-.14-.32-.26-.44c-.12-.12-.27-.21-.44-.27-.17-.06-.35-.08-.52-.08s-.35.03-.53.1-.32.16-.44.29-.21.29-.26.46c-.06.18-.08.36-.08.54,0,.2.04.4.13.59.08.2.2.37.34.52.14.15.3.28.48.38.18.11.36.21.54.3.18.09.36.19.54.3.18.11.35.23.51.35.16.13.31.27.44.42s.25.32.35.5c.1.18.18.37.23.58.05.2.08.41.08.61s-.02.41-.07.61c-.05.2-.12.38-.22.56-.1.18-.22.34-.37.48-.15.14-.32.25-.5.34-.18.09-.37.15-.58.19-.2.04-.41.05-.61.05Z"/>
    <path class="cls-3" d="M395.91,17.89c-.2,0-.4-.03-.59-.08-.19-.06-.36-.15-.51-.27-.15-.12-.27-.27-.38-.44-.1-.17-.19-.35-.25-.54-.06-.19-.1-.38-.12-.58-.02-.2-.03-.39-.03-.58v-3.84h.94v3.84c0,.14,0,.27.02.4.02.13.04.26.08.38s.1.24.17.35c.08.11.17.21.27.29.1.08.22.14.35.17.13.04.26.05.4.05s.27-.02.4-.05c.13-.04.24-.09.35-.17.1-.08.19-.18.27-.29.08-.11.13-.23.17-.35s.07-.25.08-.38c.02-.13.02-.27.02-.4v-3.84h.94v6.24h-.94v-1.09c-.06.17-.15.33-.25.48-.1.15-.23.28-.38.4-.15.11-.31.19-.49.24-.18.05-.36.07-.53.07Z"/>
    <path class="cls-3" d="M402.64,17.89c-.18,0-.37-.02-.55-.07s-.34-.13-.49-.23c-.15-.11-.27-.24-.38-.4-.1-.16-.19-.32-.25-.49v1.09h-.94v-8.82h.94v3.67c.06-.17.15-.33.25-.49.1-.16.23-.29.38-.4.15-.11.31-.19.49-.23.18-.05.36-.07.55-.07.2,0,.4.03.59.08.2.06.37.14.53.26.16.12.29.26.4.43.11.17.19.35.26.53s.11.38.13.58c.02.2.04.4.04.6v1.44c0,.2-.01.4-.04.6-.02.2-.07.39-.13.58s-.15.37-.26.53c-.11.17-.24.31-.4.43s-.34.21-.53.26c-.2.06-.39.08-.59.08ZM402.28,17.05c.14,0,.27-.02.4-.05.13-.03.25-.09.37-.16.11-.08.21-.17.29-.28.08-.11.15-.23.2-.36.05-.13.08-.26.1-.4.02-.14.02-.27.02-.41v-1.44c0-.14,0-.27-.02-.41-.02-.14-.05-.27-.1-.4s-.11-.25-.2-.36-.18-.21-.29-.28c-.11-.08-.23-.13-.37-.16-.13-.03-.27-.05-.4-.05s-.27.02-.4.05c-.13.03-.25.09-.35.17-.1.08-.19.18-.27.29-.08.12-.13.24-.17.36s-.07.25-.08.38c-.02.13-.02.27-.02.4v1.44c0,.14,0,.27.02.4.02.13.04.26.08.38s.1.24.17.36.17.21.27.29c.1.08.22.14.35.17.13.03.27.05.4.05Z"/>
  </g>
  <g>
    <path class="cls-3" d="M571.54,17.89c-.21,0-.42-.02-.63-.06s-.41-.11-.59-.22c-.18-.1-.35-.24-.49-.4-.14-.16-.26-.34-.35-.53s-.15-.39-.18-.61c-.03-.21-.05-.42-.05-.63v-4.14c0-.21.02-.42.05-.63.03-.21.09-.41.18-.61.09-.19.2-.37.35-.53.14-.16.31-.29.49-.4.18-.1.38-.18.59-.22s.42-.06.63-.06.4.02.59.05c.2.03.38.09.56.18s.34.2.49.34c.15.14.27.29.36.47.09.18.16.36.21.55s.07.39.07.59v.04h-.94v-.02c0-.18-.03-.35-.09-.53-.06-.18-.15-.33-.28-.46s-.27-.22-.45-.28c-.18-.06-.36-.08-.54-.08-.2,0-.39.04-.58.11-.19.08-.34.19-.46.35s-.2.34-.25.53c-.04.2-.07.39-.07.59v4.14c0,.2.02.4.07.59.04.2.13.37.25.53s.27.28.46.35c.19.08.38.11.58.11.18,0,.36-.03.54-.08.18-.06.33-.15.45-.28s.22-.28.28-.46c.06-.18.09-.35.09-.53v-.02h.94v.04c0,.2-.02.4-.07.59-.05.19-.12.38-.21.55-.09.18-.21.33-.36.47-.15.14-.31.25-.49.34s-.37.15-.56.18c-.2.03-.39.05-.59.05Z"/>
    <path class="cls-3" d="M575.48,17.8v-.84h1.72v-7.14h-1.55v-.84h2.48v7.98h1.55v.84h-4.2Z"/>
    <path class="cls-3" d="M581.48,17.8v-.84h1.72v-4.56h-1.55v-.84h2.48v5.4h1.55v.84h-4.2ZM583.64,10.5c-.1,0-.2-.01-.3-.04-.1-.03-.18-.08-.25-.15-.07-.07-.12-.16-.15-.25-.03-.1-.04-.2-.04-.3s.01-.2.04-.3c.03-.1.08-.18.15-.25.07-.07.16-.12.25-.16.1-.03.2-.05.3-.05s.2.02.3.05c.1.03.18.08.25.16.07.07.12.16.16.25.03.1.05.2.05.3s-.02.2-.05.3c-.03.1-.08.18-.16.25-.07.07-.16.12-.25.15s-.2.04-.3.04Z"/>
    <path class="cls-3" d="M589.6,17.89c-.22,0-.43-.02-.65-.06s-.42-.11-.61-.22c-.19-.11-.36-.24-.5-.41-.15-.16-.27-.34-.36-.54-.09-.2-.15-.4-.19-.62-.03-.22-.05-.43-.05-.65v-1.44c0-.22.02-.43.05-.65.03-.22.09-.42.18-.62.09-.2.21-.38.35-.54.15-.16.31-.3.5-.4.18-.1.38-.18.6-.22s.43-.07.65-.07.43.02.65.07.42.12.6.22c.18.1.35.24.5.4s.27.34.35.54c.09.2.15.4.18.62.03.22.05.43.05.65v1.14h-3.72v.3c0,.14,0,.27.02.41.02.14.05.27.1.4.05.13.12.25.2.36.08.11.18.21.3.28.12.08.24.13.38.16.14.03.27.05.41.05.15,0,.31-.02.46-.05.16-.03.3-.09.43-.17s.23-.19.32-.32c.08-.14.13-.28.14-.44h.94c0,.18-.04.36-.1.53-.06.17-.14.33-.25.48s-.24.28-.38.38c-.15.11-.31.19-.47.26s-.34.11-.53.13c-.18.02-.36.04-.54.04ZM590.97,14.26v-.3c0-.14,0-.27-.02-.41-.02-.14-.05-.27-.1-.4s-.11-.25-.2-.36-.18-.21-.29-.28c-.11-.08-.24-.13-.37-.16-.14-.03-.27-.05-.41-.05s-.27.02-.41.05c-.14.03-.26.09-.37.16-.11.08-.21.17-.29.28s-.15.23-.2.36-.08.26-.1.4c-.02.14-.02.27-.02.41v.3h2.78Z"/>
    <path class="cls-3" d="M593.34,17.8v-6.24h.94v1.09c.06-.17.15-.33.25-.48.1-.15.23-.28.38-.4.15-.11.31-.19.49-.24.18-.05.36-.07.53-.07.2,0,.4.03.59.08s.36.15.51.27c.15.12.27.27.38.44.1.17.19.35.25.54.06.19.1.38.12.58.02.2.03.39.03.58v3.84h-.94v-3.84c0-.14,0-.27-.02-.4-.02-.13-.04-.26-.08-.38s-.1-.24-.17-.35c-.08-.11-.17-.21-.27-.29-.1-.08-.22-.14-.35-.17s-.26-.05-.4-.05-.27.02-.4.05-.24.09-.35.17c-.1.08-.19.18-.27.29-.08.11-.13.23-.17.35s-.07.25-.08.38c-.02.13-.02.27-.02.4v3.84h-.94Z"/>
    <path class="cls-3" d="M602.37,17.89c-.18,0-.35-.02-.53-.07-.18-.04-.34-.12-.49-.23-.15-.11-.27-.24-.38-.39-.1-.15-.19-.31-.25-.49-.06-.17-.1-.35-.12-.53-.02-.18-.03-.36-.03-.55v-3.25h-1.15v-.84h1.15v-2.58h.94v2.58h2.11v.84h-2.11v3.25c0,.1,0,.21.01.31s.02.21.05.31.06.2.1.29c.04.1.09.18.16.26.07.08.15.13.25.17.1.04.2.06.29.06s.19-.02.28-.05c.09-.03.17-.08.24-.14.07-.06.12-.14.17-.23.04-.09.08-.18.11-.26.03-.09.05-.18.06-.28.01-.1.02-.19.02-.29v-.07h.94v.12c0,.17-.02.34-.05.51-.03.17-.08.34-.14.49-.06.16-.15.3-.26.44-.11.14-.23.26-.38.35-.14.09-.3.16-.47.19s-.34.05-.52.05Z"/>
    <path class="cls-3" d="M605.34,17.8v-8.82h2.3c.22,0,.43.02.64.07s.41.13.59.25c.18.12.34.26.48.43s.25.36.33.56c.08.2.14.41.17.62.03.22.04.43.04.65,0,.27-.02.54-.07.82-.05.27-.14.52-.28.76-.14.23-.31.43-.53.6s-.46.29-.73.36l1.8,3.71h-1.02l-1.76-3.65h-1.03v3.65h-.94ZM606.28,13.31h1.37c.14,0,.27-.02.41-.06.14-.04.26-.1.37-.19.11-.08.2-.19.27-.31s.13-.25.17-.38.07-.27.08-.4c.02-.14.02-.28.02-.42,0-.14,0-.27-.02-.41s-.04-.27-.08-.4c-.04-.13-.1-.26-.17-.38-.07-.12-.16-.22-.27-.31-.11-.08-.23-.15-.37-.19-.14-.04-.27-.06-.41-.06h-1.37v3.49Z"/>
    <path class="cls-3" d="M614.37,17.89c-.18,0-.35-.02-.53-.07-.18-.04-.34-.12-.49-.23-.15-.11-.27-.24-.38-.39-.1-.15-.19-.31-.25-.49-.06-.17-.1-.35-.12-.53-.02-.18-.03-.36-.03-.55v-3.25h-1.15v-.84h1.15v-2.58h.94v2.58h2.11v.84h-2.11v3.25c0,.1,0,.21.01.31s.02.21.05.31.06.2.1.29c.04.1.09.18.16.26.07.08.15.13.25.17.1.04.2.06.29.06s.19-.02.28-.05c.09-.03.17-.08.24-.14.07-.06.12-.14.17-.23.04-.09.08-.18.11-.26.03-.09.05-.18.06-.28.01-.1.02-.19.02-.29v-.07h.94v.12c0,.17-.02.34-.05.51-.03.17-.08.34-.14.49-.06.16-.15.3-.26.44-.11.14-.23.26-.38.35-.14.09-.3.16-.47.19s-.34.05-.52.05Z"/>
    <path class="cls-3" d="M619.54,17.89c-.21,0-.42-.02-.64-.07-.22-.04-.42-.12-.6-.23-.18-.11-.35-.24-.49-.41s-.25-.34-.34-.54c-.09-.2-.15-.4-.18-.61-.03-.21-.05-.43-.05-.64v-1.44c0-.22.02-.43.05-.64.03-.21.09-.42.18-.61.09-.2.2-.38.34-.54s.3-.3.49-.41c.18-.11.38-.18.6-.23s.43-.07.64-.07.4.02.6.05c.2.04.39.1.57.19.18.09.34.2.49.34.14.14.26.3.36.47.1.18.17.36.21.56.04.2.07.39.07.59v.02h-.94c0-.2-.03-.38-.08-.55-.06-.18-.15-.33-.28-.46-.13-.13-.28-.23-.46-.29-.18-.06-.36-.09-.54-.09-.14,0-.27.02-.4.05-.13.03-.25.09-.37.17s-.21.18-.28.29c-.08.11-.14.23-.19.35-.05.12-.08.25-.1.39-.02.14-.02.27-.02.41v1.44c0,.14,0,.27.02.41.02.14.05.27.1.39s.11.24.19.35c.08.11.17.21.28.29s.23.14.37.17c.13.03.27.05.4.05.18,0,.36-.03.54-.09s.33-.16.46-.29.22-.29.28-.46c.06-.18.08-.36.08-.54h0s.94-.01.94-.01v.02c0,.2-.02.4-.07.59-.04.2-.11.38-.21.56-.1.18-.22.33-.36.47-.14.14-.31.25-.49.34-.18.09-.37.15-.57.19-.2.04-.4.05-.6.05Z"/>
    <path class="cls-3" d="M623.15,17.8v-8.82h1.13l1.3,4.84,1.3-4.84h1.13v8.82h-.94v-1.76c0-.92.01-1.84.04-2.75s.05-1.83.07-2.74l-1.24,4.61h-.72l-1.24-4.61c.02.91.04,1.83.07,2.74.03.92.04,1.83.04,2.75v1.76h-.94Z"/>
    <path class="cls-3" d="M631.6,17.89c-.22,0-.43-.02-.65-.06s-.42-.11-.61-.22c-.19-.11-.36-.24-.5-.41-.15-.16-.27-.34-.36-.54-.09-.2-.15-.4-.19-.62-.03-.22-.05-.43-.05-.65v-1.44c0-.22.02-.43.05-.65.03-.22.09-.42.18-.62.09-.2.21-.38.35-.54.15-.16.31-.3.5-.4.18-.1.38-.18.6-.22s.43-.07.65-.07.43.02.65.07.42.12.6.22c.18.1.35.24.5.4s.27.34.35.54c.09.2.15.4.18.62.03.22.05.43.05.65v1.14h-3.72v.3c0,.14,0,.27.02.41.02.14.05.27.1.4.05.13.12.25.2.36.08.11.18.21.3.28.12.08.24.13.38.16.14.03.27.05.41.05.15,0,.31-.02.46-.05.16-.03.3-.09.43-.17s.23-.19.32-.32c.08-.14.13-.28.14-.44h.94c0,.18-.04.36-.1.53-.06.17-.14.33-.25.48s-.24.28-.38.38c-.15.11-.31.19-.47.26s-.34.11-.53.13c-.18.02-.36.04-.54.04ZM632.97,14.26v-.3c0-.14,0-.27-.02-.41-.02-.14-.05-.27-.1-.4s-.11-.25-.2-.36-.18-.21-.29-.28c-.11-.08-.24-.13-.37-.16-.14-.03-.27-.05-.41-.05s-.27.02-.41.05c-.14.03-.26.09-.37.16-.11.08-.21.17-.29.28s-.15.23-.2.36-.08.26-.1.4c-.02.14-.02.27-.02.41v.3h2.78Z"/>
    <path class="cls-3" d="M637.56,17.89c-.18,0-.35-.01-.53-.03s-.35-.06-.52-.12c-.17-.06-.33-.14-.48-.23-.15-.1-.28-.21-.39-.35-.11-.14-.19-.3-.25-.47s-.08-.35-.08-.52v-.04h.94c0,.16.04.3.13.43s.19.23.32.31c.13.08.27.13.41.15.15.02.3.04.45.04.14,0,.29-.01.44-.04.15-.02.29-.07.41-.14s.24-.16.33-.29.14-.26.14-.4-.04-.28-.11-.4-.17-.23-.28-.31-.23-.14-.37-.19c-.13-.04-.27-.08-.4-.11-.14-.03-.27-.06-.4-.1s-.26-.07-.4-.12c-.13-.05-.26-.1-.38-.16s-.24-.13-.35-.22c-.11-.08-.21-.18-.31-.28-.09-.1-.17-.22-.23-.34-.06-.12-.11-.25-.15-.39-.04-.14-.05-.27-.05-.41,0-.18.03-.35.08-.51.05-.16.13-.32.23-.46.1-.14.23-.26.37-.35.14-.1.3-.17.46-.23s.33-.1.5-.12c.17-.02.34-.03.51-.03s.35.01.52.03c.17.02.33.06.5.12s.32.14.46.24c.14.1.26.22.37.35.1.14.18.29.23.46.05.17.08.34.08.5v.04h-.94c0-.16-.04-.29-.11-.41s-.17-.22-.29-.3c-.12-.08-.25-.13-.39-.15-.14-.02-.28-.04-.43-.04s-.27.01-.41.04c-.14.02-.27.07-.39.14-.12.07-.22.17-.3.29-.08.12-.12.25-.12.4,0,.17.05.32.16.46.1.14.23.25.37.33.14.08.3.14.46.17s.33.07.49.11.32.09.48.14c.16.05.31.12.45.2.14.08.28.18.41.29s.24.23.33.37c.09.14.16.29.22.45.05.16.08.32.08.49s-.03.35-.08.52c-.06.17-.14.32-.25.46-.11.14-.24.26-.39.35-.15.1-.31.17-.47.23-.17.06-.34.09-.52.11-.18.02-.35.03-.53.03Z"/>
    <path class="cls-3" d="M643.56,17.89c-.18,0-.35-.01-.53-.03s-.35-.06-.52-.12c-.17-.06-.33-.14-.48-.23-.15-.1-.28-.21-.39-.35-.11-.14-.19-.3-.25-.47s-.08-.35-.08-.52v-.04h.94c0,.16.04.3.13.43s.19.23.32.31c.13.08.27.13.41.15.15.02.3.04.45.04.14,0,.29-.01.44-.04.15-.02.29-.07.41-.14s.24-.16.33-.29.14-.26.14-.4-.04-.28-.11-.4-.17-.23-.28-.31-.23-.14-.37-.19c-.13-.04-.27-.08-.4-.11-.14-.03-.27-.06-.4-.1s-.26-.07-.4-.12c-.13-.05-.26-.1-.38-.16s-.24-.13-.35-.22c-.11-.08-.21-.18-.31-.28-.09-.1-.17-.22-.23-.34-.06-.12-.11-.25-.15-.39-.04-.14-.05-.27-.05-.41,0-.18.03-.35.08-.51.05-.16.13-.32.23-.46.1-.14.23-.26.37-.35.14-.1.3-.17.46-.23s.33-.1.5-.12c.17-.02.34-.03.51-.03s.35.01.52.03c.17.02.33.06.5.12s.32.14.46.24c.14.1.26.22.37.35.1.14.18.29.23.46.05.17.08.34.08.5v.04h-.94c0-.16-.04-.29-.11-.41s-.17-.22-.29-.3c-.12-.08-.25-.13-.39-.15-.14-.02-.28-.04-.43-.04s-.27.01-.41.04c-.14.02-.27.07-.39.14-.12.07-.22.17-.3.29-.08.12-.12.25-.12.4,0,.17.05.32.16.46.1.14.23.25.37.33.14.08.3.14.46.17s.33.07.49.11.32.09.48.14c.16.05.31.12.45.2.14.08.28.18.41.29s.24.23.33.37c.09.14.16.29.22.45.05.16.08.32.08.49s-.03.35-.08.52c-.06.17-.14.32-.25.46-.11.14-.24.26-.39.35-.15.1-.31.17-.47.23-.17.06-.34.09-.52.11-.18.02-.35.03-.53.03Z"/>
    <path class="cls-3" d="M649,17.89c-.24,0-.48-.04-.71-.11-.23-.07-.43-.2-.59-.37-.16-.18-.28-.38-.35-.61-.07-.23-.1-.47-.1-.71,0-.2.03-.4.08-.6.05-.2.14-.38.27-.54.13-.16.28-.29.45-.4.17-.11.36-.19.55-.26.2-.06.39-.11.59-.13.2-.02.4-.04.61-.04h1.07v-.59c0-.17-.03-.34-.08-.5-.06-.17-.15-.31-.28-.42-.13-.11-.28-.19-.44-.24-.17-.05-.34-.07-.5-.07s-.32.02-.47.05c-.16.03-.3.09-.43.18-.13.09-.23.2-.3.35s-.11.29-.11.44h-.94c0-.18.03-.36.08-.54.05-.18.13-.34.23-.49.1-.15.23-.28.38-.39.15-.11.31-.2.47-.26.17-.07.34-.11.53-.14.18-.02.37-.04.55-.04s.38.01.58.04c.19.03.38.08.55.16s.34.18.49.31c.15.13.27.28.37.44.1.17.16.35.2.54s.06.38.06.58v4.26h-.94v-1.03c-.07.18-.17.34-.31.49s-.28.27-.45.37-.35.17-.54.21c-.19.04-.38.06-.58.06ZM649.36,17.05c.19,0,.39-.03.58-.08.2-.05.37-.14.51-.28.14-.13.25-.29.32-.48.07-.19.1-.38.1-.58v-.67h-1.07c-.12,0-.24,0-.37.02s-.24.03-.36.06-.23.07-.34.12c-.11.05-.21.12-.3.2s-.15.18-.19.29c-.04.12-.06.23-.06.35,0,.14.03.29.08.43.06.14.14.26.25.36.11.1.24.16.39.2.15.04.3.05.45.05Z"/>
    <path class="cls-3" d="M655.54,20.47c-.18,0-.37-.01-.55-.04-.18-.03-.35-.08-.52-.14-.17-.07-.32-.16-.47-.28-.14-.12-.27-.25-.37-.4-.1-.15-.18-.32-.23-.49-.05-.18-.08-.36-.09-.54h.94c0,.16.05.31.11.45.07.14.16.26.29.35s.26.16.41.2c.15.04.31.05.47.05.14,0,.27-.02.4-.05.13-.03.25-.09.36-.17.11-.08.2-.18.28-.29.08-.11.14-.23.18-.36.04-.13.07-.26.09-.39.02-.13.02-.27.02-.4v-1.27c-.06.17-.15.33-.25.49-.1.16-.23.29-.38.4-.15.11-.31.19-.49.23-.18.05-.36.07-.55.07-.2,0-.4-.03-.59-.08-.2-.06-.37-.14-.53-.26s-.29-.26-.4-.43c-.11-.17-.19-.35-.26-.53-.06-.19-.11-.38-.13-.58-.02-.2-.04-.4-.04-.6v-1.44c0-.2.01-.4.04-.6.02-.2.07-.39.13-.58.06-.19.15-.37.26-.53.11-.17.24-.31.4-.43.16-.12.34-.21.53-.26s.39-.08.59-.08c.18,0,.37.02.55.07.18.05.34.13.49.23.15.11.27.24.38.4.1.16.19.32.25.49v-1.09h.94v6.42c0,.22-.02.43-.05.64-.03.21-.09.42-.17.61-.08.2-.2.38-.34.54-.14.16-.3.3-.49.41-.18.11-.38.18-.59.23-.21.04-.42.07-.63.07ZM655.56,17.05c.14,0,.27-.02.4-.05.13-.03.25-.09.35-.17s.19-.18.27-.29c.08-.12.13-.24.17-.36s.07-.25.08-.38c.02-.13.02-.27.02-.4v-1.44c0-.14,0-.27-.02-.4-.02-.13-.04-.26-.08-.38s-.1-.24-.17-.36c-.08-.12-.17-.21-.27-.29s-.22-.14-.35-.17c-.13-.03-.27-.05-.4-.05s-.27.02-.4.05c-.13.03-.25.09-.37.16-.11.08-.21.17-.29.28s-.15.23-.2.36-.08.26-.1.4c-.02.14-.02.27-.02.41v1.44c0,.14,0,.27.02.41.02.14.05.27.1.4.05.13.11.25.2.36.08.11.18.21.29.28.11.08.23.13.37.16.13.03.27.05.4.05Z"/>
    <path class="cls-3" d="M661.6,17.89c-.22,0-.43-.02-.65-.06s-.42-.11-.61-.22c-.19-.11-.36-.24-.5-.41-.15-.16-.27-.34-.36-.54-.09-.2-.15-.4-.19-.62-.03-.22-.05-.43-.05-.65v-1.44c0-.22.02-.43.05-.65.03-.22.09-.42.18-.62.09-.2.21-.38.35-.54.15-.16.31-.3.5-.4.18-.1.38-.18.6-.22s.43-.07.65-.07.43.02.65.07.42.12.6.22c.18.1.35.24.5.4s.27.34.35.54c.09.2.15.4.18.62.03.22.05.43.05.65v1.14h-3.72v.3c0,.14,0,.27.02.41.02.14.05.27.1.4.05.13.12.25.2.36.08.11.18.21.3.28.12.08.24.13.38.16.14.03.27.05.41.05.15,0,.31-.02.46-.05.16-.03.3-.09.43-.17s.23-.19.32-.32c.08-.14.13-.28.14-.44h.94c0,.18-.04.36-.1.53-.06.17-.14.33-.25.48s-.24.28-.38.38c-.15.11-.31.19-.47.26s-.34.11-.53.13c-.18.02-.36.04-.54.04ZM662.97,14.26v-.3c0-.14,0-.27-.02-.41-.02-.14-.05-.27-.1-.4s-.11-.25-.2-.36-.18-.21-.29-.28c-.11-.08-.24-.13-.37-.16-.14-.03-.27-.05-.41-.05s-.27.02-.41.05c-.14.03-.26.09-.37.16-.11.08-.21.17-.29.28s-.15.23-.2.36-.08.26-.1.4c-.02.14-.02.27-.02.41v.3h2.78Z"/>
  </g>
  <g>
    <path class="cls-3" d="M105.37,53.98l-1.02-8.82h.94l.58,7.55.64-5.08h.94l.64,5.08.58-7.55h.94l-1.02,8.82h-.92l-.67-4.73-.67,4.73h-.92Z"/>
    <path class="cls-3" d="M112.97,54.08c-.22,0-.43-.02-.65-.07-.22-.04-.42-.12-.6-.22-.18-.1-.35-.24-.5-.4-.15-.16-.27-.34-.35-.54-.09-.2-.15-.4-.18-.62-.03-.22-.05-.43-.05-.65v-1.44c0-.22.02-.43.05-.65.03-.22.09-.42.18-.62.09-.2.21-.38.35-.54.15-.16.31-.3.5-.4.18-.1.38-.18.6-.22s.43-.07.65-.07.43.02.65.07.42.12.6.22c.18.1.35.24.5.4s.27.34.35.54c.09.2.15.4.18.62.03.22.05.43.05.65v1.44c0,.22-.02.43-.05.65s-.09.42-.18.62c-.09.2-.21.38-.35.54-.15.16-.31.3-.5.4-.18.1-.38.18-.6.22-.22.04-.43.07-.65.07ZM112.97,53.24c.14,0,.27-.02.41-.05.14-.03.26-.09.37-.16.11-.08.21-.17.29-.28.08-.11.15-.23.2-.36.05-.13.08-.26.1-.4.02-.14.02-.27.02-.41v-1.44c0-.14,0-.27-.02-.41-.02-.14-.05-.27-.1-.4s-.11-.25-.2-.36-.18-.21-.29-.28c-.11-.08-.24-.13-.37-.16-.14-.03-.27-.05-.41-.05s-.27.02-.41.05c-.14.03-.26.09-.37.16-.11.08-.21.17-.29.28s-.15.23-.2.36-.08.26-.1.4c-.02.14-.02.27-.02.41v1.44c0,.14,0,.27.02.41.02.14.05.27.1.4.05.13.11.25.2.36.08.11.18.21.29.28.11.08.24.13.37.16.14.03.27.05.41.05Z"/>
    <path class="cls-3" d="M117.46,53.98v-6.24h.94v1.3c.06-.18.13-.35.21-.52s.19-.32.32-.46c.13-.14.28-.24.46-.31.18-.07.36-.11.54-.11.15,0,.3.02.45.05.15.04.28.1.4.18.12.08.22.19.3.32.08.13.14.26.19.4s.08.28.1.43c.02.15.02.3.02.45h-.94c0-.12-.01-.24-.03-.35-.02-.12-.06-.23-.12-.33-.06-.1-.14-.18-.25-.23-.11-.05-.22-.08-.34-.08-.16,0-.31.03-.46.1-.15.07-.27.16-.37.28-.1.12-.18.25-.25.4-.06.15-.11.3-.14.46-.03.16-.05.31-.07.47-.01.16-.02.32-.02.47v3.31h-.94Z"/>
    <path class="cls-3" d="M122.93,53.98v-8.82h.92v5.48l2.29-2.9h1.14l-2.24,2.84,2.24,3.4h-1.08l-1.75-2.65-.6.76v1.9h-.92Z"/>
    <path class="cls-3" d="M130.99,54.08c-.22,0-.43-.02-.65-.06s-.42-.11-.61-.22c-.19-.11-.36-.24-.5-.41-.15-.16-.27-.34-.36-.54-.09-.2-.15-.4-.19-.62-.03-.22-.05-.43-.05-.65v-1.44c0-.22.02-.43.05-.65.03-.22.09-.42.18-.62.09-.2.21-.38.35-.54.15-.16.31-.3.5-.4.18-.1.38-.18.6-.22s.43-.07.65-.07.43.02.65.07.42.12.6.22c.18.1.35.24.5.4s.27.34.35.54c.09.2.15.4.18.62.03.22.05.43.05.65v1.14h-3.72v.3c0,.14,0,.27.02.41.02.14.05.27.1.4.05.13.12.25.2.36.08.11.18.21.3.28.12.08.24.13.38.16.14.03.27.05.41.05.15,0,.31-.02.46-.05.16-.03.3-.09.43-.17s.23-.19.32-.32c.08-.14.13-.28.14-.44h.94c0,.18-.04.36-.1.53-.06.17-.14.33-.25.48s-.24.28-.38.38c-.15.11-.31.19-.47.26s-.34.11-.53.13c-.18.02-.36.04-.54.04ZM132.36,50.44v-.3c0-.14,0-.27-.02-.41-.02-.14-.05-.27-.1-.4s-.11-.25-.2-.36-.18-.21-.29-.28c-.11-.08-.24-.13-.37-.16-.14-.03-.27-.05-.41-.05s-.27.02-.41.05c-.14.03-.26.09-.37.16-.11.08-.21.17-.29.28s-.15.23-.2.36-.08.26-.1.4c-.02.14-.02.27-.02.41v.3h2.78Z"/>
    <path class="cls-3" d="M135.46,53.98v-6.24h.94v1.3c.06-.18.13-.35.21-.52s.19-.32.32-.46c.13-.14.28-.24.46-.31.18-.07.36-.11.54-.11.15,0,.3.02.45.05.15.04.28.1.4.18.12.08.22.19.3.32.08.13.14.26.19.4s.08.28.1.43c.02.15.02.3.02.45h-.94c0-.12-.01-.24-.03-.35-.02-.12-.06-.23-.12-.33-.06-.1-.14-.18-.25-.23-.11-.05-.22-.08-.34-.08-.16,0-.31.03-.46.1-.15.07-.27.16-.37.28-.1.12-.18.25-.25.4-.06.15-.11.3-.14.46-.03.16-.05.31-.07.47-.01.16-.02.32-.02.47v3.31h-.94Z"/>
    <path class="cls-3" d="M140.74,53.98v-8.82h2.3c.22,0,.43.02.64.07s.41.13.59.25c.18.12.34.26.48.43s.25.36.33.56c.08.2.14.41.17.62.03.22.04.43.04.65,0,.27-.02.54-.07.82-.05.27-.14.52-.28.76-.14.23-.31.43-.53.6s-.46.29-.73.36l1.8,3.71h-1.02l-1.76-3.65h-1.03v3.65h-.94ZM141.67,49.5h1.37c.14,0,.27-.02.41-.06.14-.04.26-.1.37-.19.11-.08.2-.19.27-.31s.13-.25.17-.38.07-.27.08-.4c.02-.14.02-.28.02-.42,0-.14,0-.27-.02-.41s-.04-.27-.08-.4c-.04-.13-.1-.26-.17-.38-.07-.12-.16-.22-.27-.31-.11-.08-.23-.15-.37-.19-.14-.04-.27-.06-.41-.06h-1.37v3.49Z"/>
    <path class="cls-3" d="M149.76,54.08c-.18,0-.35-.02-.53-.07-.18-.04-.34-.12-.49-.23-.15-.11-.27-.24-.38-.39-.1-.15-.19-.31-.25-.49-.06-.17-.1-.35-.12-.53-.02-.18-.03-.36-.03-.55v-3.25h-1.15v-.84h1.15v-2.58h.94v2.58h2.11v.84h-2.11v3.25c0,.1,0,.21.01.31s.02.21.05.31.06.2.1.29c.04.1.09.18.16.26.07.08.15.13.25.17.1.04.2.06.29.06s.19-.02.28-.05c.09-.03.17-.08.24-.14.07-.06.12-.14.17-.23.04-.09.08-.18.11-.26.03-.09.05-.18.06-.28.01-.1.02-.19.02-.29v-.07h.94v.12c0,.17-.02.34-.05.51-.03.17-.08.34-.14.49-.06.16-.15.3-.26.44-.11.14-.23.26-.38.35-.14.09-.3.16-.47.19s-.34.05-.52.05Z"/>
    <path class="cls-3" d="M154.93,54.08c-.21,0-.42-.02-.64-.07-.22-.04-.42-.12-.6-.23-.18-.11-.35-.24-.49-.41s-.25-.34-.34-.54c-.09-.2-.15-.4-.18-.61-.03-.21-.05-.43-.05-.64v-1.44c0-.22.02-.43.05-.64.03-.21.09-.42.18-.61.09-.2.2-.38.34-.54s.3-.3.49-.41c.18-.11.38-.18.6-.23s.43-.07.64-.07.4.02.6.05c.2.04.39.1.57.19.18.09.34.2.49.34.14.14.26.3.36.47.1.18.17.36.21.56.04.2.07.39.07.59v.02h-.94c0-.2-.03-.38-.08-.55-.06-.18-.15-.33-.28-.46-.13-.13-.28-.23-.46-.29-.18-.06-.36-.09-.54-.09-.14,0-.27.02-.4.05-.13.03-.25.09-.37.17s-.21.18-.28.29c-.08.11-.14.23-.19.35-.05.12-.08.25-.1.39-.02.14-.02.27-.02.41v1.44c0,.14,0,.27.02.41.02.14.05.27.1.39s.11.24.19.35c.08.11.17.21.28.29s.23.14.37.17c.13.03.27.05.4.05.18,0,.36-.03.54-.09s.33-.16.46-.29.22-.29.28-.46c.06-.18.08-.36.08-.54h0s.94-.01.94-.01v.02c0,.2-.02.4-.07.59-.04.2-.11.38-.21.56-.1.18-.22.33-.36.47-.14.14-.31.25-.49.34-.18.09-.37.15-.57.19-.2.04-.4.05-.6.05Z"/>
    <path class="cls-3" d="M158.54,53.98v-8.82h1.13l1.3,4.84,1.3-4.84h1.13v8.82h-.94v-1.76c0-.92.01-1.84.04-2.75s.05-1.83.07-2.74l-1.24,4.61h-.72l-1.24-4.61c.02.91.04,1.83.07,2.74.03.92.04,1.83.04,2.75v1.76h-.94Z"/>
    <path class="cls-3" d="M166.99,54.08c-.22,0-.43-.02-.65-.06s-.42-.11-.61-.22c-.19-.11-.36-.24-.5-.41-.15-.16-.27-.34-.36-.54-.09-.2-.15-.4-.19-.62-.03-.22-.05-.43-.05-.65v-1.44c0-.22.02-.43.05-.65.03-.22.09-.42.18-.62.09-.2.21-.38.35-.54.15-.16.31-.3.5-.4.18-.1.38-.18.6-.22s.43-.07.65-.07.43.02.65.07.42.12.6.22c.18.1.35.24.5.4s.27.34.35.54c.09.2.15.4.18.62.03.22.05.43.05.65v1.14h-3.72v.3c0,.14,0,.27.02.41.02.14.05.27.1.4.05.13.12.25.2.36.08.11.18.21.3.28.12.08.24.13.38.16.14.03.27.05.41.05.15,0,.31-.02.46-.05.16-.03.3-.09.43-.17s.23-.19.32-.32c.08-.14.13-.28.14-.44h.94c0,.18-.04.36-.1.53-.06.17-.14.33-.25.48s-.24.28-.38.38c-.15.11-.31.19-.47.26s-.34.11-.53.13c-.18.02-.36.04-.54.04ZM168.36,50.44v-.3c0-.14,0-.27-.02-.41-.02-.14-.05-.27-.1-.4s-.11-.25-.2-.36-.18-.21-.29-.28c-.11-.08-.24-.13-.37-.16-.14-.03-.27-.05-.41-.05s-.27.02-.41.05c-.14.03-.26.09-.37.16-.11.08-.21.17-.29.28s-.15.23-.2.36-.08.26-.1.4c-.02.14-.02.27-.02.41v.3h2.78Z"/>
    <path class="cls-3" d="M172.96,54.08c-.18,0-.35-.01-.53-.03s-.35-.06-.52-.12c-.17-.06-.33-.14-.48-.23-.15-.1-.28-.21-.39-.35-.11-.14-.19-.3-.25-.47s-.08-.35-.08-.52v-.04h.94c0,.16.04.3.13.43s.19.23.32.31c.13.08.27.13.41.15.15.02.3.04.45.04.14,0,.29-.01.44-.04.15-.02.29-.07.41-.14s.24-.16.33-.29.14-.26.14-.4-.04-.28-.11-.4-.17-.23-.28-.31-.23-.14-.37-.19c-.13-.04-.27-.08-.4-.11-.14-.03-.27-.06-.4-.1s-.26-.07-.4-.12c-.13-.05-.26-.1-.38-.16s-.24-.13-.35-.22c-.11-.08-.21-.18-.31-.28-.09-.1-.17-.22-.23-.34-.06-.12-.11-.25-.15-.39-.04-.14-.05-.27-.05-.41,0-.18.03-.35.08-.51.05-.16.13-.32.23-.46.1-.14.23-.26.37-.35.14-.1.3-.17.46-.23s.33-.1.5-.12c.17-.02.34-.03.51-.03s.35.01.52.03c.17.02.33.06.5.12s.32.14.46.24c.14.1.26.22.37.35.1.14.18.29.23.46.05.17.08.34.08.5v.04h-.94c0-.16-.04-.29-.11-.41s-.17-.22-.29-.3c-.12-.08-.25-.13-.39-.15-.14-.02-.28-.04-.43-.04s-.27.01-.41.04c-.14.02-.27.07-.39.14-.12.07-.22.17-.3.29-.08.12-.12.25-.12.4,0,.17.05.32.16.46.1.14.23.25.37.33.14.08.3.14.46.17s.33.07.49.11.32.09.48.14c.16.05.31.12.45.2.14.08.28.18.41.29s.24.23.33.37c.09.14.16.29.22.45.05.16.08.32.08.49s-.03.35-.08.52c-.06.17-.14.32-.25.46-.11.14-.24.26-.39.35-.15.1-.31.17-.47.23-.17.06-.34.09-.52.11-.18.02-.35.03-.53.03Z"/>
    <path class="cls-3" d="M178.96,54.08c-.18,0-.35-.01-.53-.03s-.35-.06-.52-.12c-.17-.06-.33-.14-.48-.23-.15-.1-.28-.21-.39-.35-.11-.14-.19-.3-.25-.47s-.08-.35-.08-.52v-.04h.94c0,.16.04.3.13.43s.19.23.32.31c.13.08.27.13.41.15.15.02.3.04.45.04.14,0,.29-.01.44-.04.15-.02.29-.07.41-.14s.24-.16.33-.29.14-.26.14-.4-.04-.28-.11-.4-.17-.23-.28-.31-.23-.14-.37-.19c-.13-.04-.27-.08-.4-.11-.14-.03-.27-.06-.4-.1s-.26-.07-.4-.12c-.13-.05-.26-.1-.38-.16s-.24-.13-.35-.22c-.11-.08-.21-.18-.31-.28-.09-.1-.17-.22-.23-.34-.06-.12-.11-.25-.15-.39-.04-.14-.05-.27-.05-.41,0-.18.03-.35.08-.51.05-.16.13-.32.23-.46.1-.14.23-.26.37-.35.14-.1.3-.17.46-.23s.33-.1.5-.12c.17-.02.34-.03.51-.03s.35.01.52.03c.17.02.33.06.5.12s.32.14.46.24c.14.1.26.22.37.35.1.14.18.29.23.46.05.17.08.34.08.5v.04h-.94c0-.16-.04-.29-.11-.41s-.17-.22-.29-.3c-.12-.08-.25-.13-.39-.15-.14-.02-.28-.04-.43-.04s-.27.01-.41.04c-.14.02-.27.07-.39.14-.12.07-.22.17-.3.29-.08.12-.12.25-.12.4,0,.17.05.32.16.46.1.14.23.25.37.33.14.08.3.14.46.17s.33.07.49.11.32.09.48.14c.16.05.31.12.45.2.14.08.28.18.41.29s.24.23.33.37c.09.14.16.29.22.45.05.16.08.32.08.49s-.03.35-.08.52c-.06.17-.14.32-.25.46-.11.14-.24.26-.39.35-.15.1-.31.17-.47.23-.17.06-.34.09-.52.11-.18.02-.35.03-.53.03Z"/>
    <path class="cls-3" d="M184.39,54.08c-.24,0-.48-.04-.71-.11-.23-.07-.43-.2-.59-.37-.16-.18-.28-.38-.35-.61-.07-.23-.1-.47-.1-.71,0-.2.03-.4.08-.6.05-.2.14-.38.27-.54.13-.16.28-.29.45-.4.17-.11.36-.19.55-.26.2-.06.39-.11.59-.13.2-.02.4-.04.61-.04h1.07v-.59c0-.17-.03-.34-.08-.5-.06-.17-.15-.31-.28-.42-.13-.11-.28-.19-.44-.24-.17-.05-.34-.07-.5-.07s-.32.02-.47.05c-.16.03-.3.09-.43.18-.13.09-.23.2-.3.35s-.11.29-.11.44h-.94c0-.18.03-.36.08-.54.05-.18.13-.34.23-.49.1-.15.23-.28.38-.39.15-.11.31-.2.47-.26.17-.07.34-.11.53-.14.18-.02.37-.04.55-.04s.38.01.58.04c.19.03.38.08.55.16s.34.18.49.31c.15.13.27.28.37.44.1.17.16.35.2.54s.06.38.06.58v4.26h-.94v-1.03c-.07.18-.17.34-.31.49s-.28.27-.45.37-.35.17-.54.21c-.19.04-.38.06-.58.06ZM184.75,53.24c.19,0,.39-.03.58-.08.2-.05.37-.14.51-.28.14-.13.25-.29.32-.48.07-.19.1-.38.1-.58v-.67h-1.07c-.12,0-.24,0-.37.02s-.24.03-.36.06-.23.07-.34.12c-.11.05-.21.12-.3.2s-.15.18-.19.29c-.04.12-.06.23-.06.35,0,.14.03.29.08.43.06.14.14.26.25.36.11.1.24.16.39.2.15.04.3.05.45.05Z"/>
    <path class="cls-3" d="M190.93,56.66c-.18,0-.37-.01-.55-.04-.18-.03-.35-.08-.52-.14-.17-.07-.32-.16-.47-.28-.14-.12-.27-.25-.37-.4-.1-.15-.18-.32-.23-.49-.05-.18-.08-.36-.09-.54h.94c0,.16.05.31.11.45.07.14.16.26.29.35s.26.16.41.2c.15.04.31.05.47.05.14,0,.27-.02.4-.05.13-.03.25-.09.36-.17.11-.08.2-.18.28-.29.08-.11.14-.23.18-.36.04-.13.07-.26.09-.39.02-.13.02-.27.02-.4v-1.27c-.06.17-.15.33-.25.49-.1.16-.23.29-.38.4-.15.11-.31.19-.49.23-.18.05-.36.07-.55.07-.2,0-.4-.03-.59-.08-.2-.06-.37-.14-.53-.26s-.29-.26-.4-.43c-.11-.17-.19-.35-.26-.53-.06-.19-.11-.38-.13-.58-.02-.2-.04-.4-.04-.6v-1.44c0-.2.01-.4.04-.6.02-.2.07-.39.13-.58.06-.19.15-.37.26-.53.11-.17.24-.31.4-.43.16-.12.34-.21.53-.26s.39-.08.59-.08c.18,0,.37.02.55.07.18.05.34.13.49.23.15.11.27.24.38.4.1.16.19.32.25.49v-1.09h.94v6.42c0,.22-.02.43-.05.64-.03.21-.09.42-.17.61-.08.2-.2.38-.34.54-.14.16-.3.3-.49.41-.18.11-.38.18-.59.23-.21.04-.42.07-.63.07ZM190.96,53.24c.14,0,.27-.02.4-.05.13-.03.25-.09.35-.17s.19-.18.27-.29c.08-.12.13-.24.17-.36s.07-.25.08-.38c.02-.13.02-.27.02-.4v-1.44c0-.14,0-.27-.02-.4-.02-.13-.04-.26-.08-.38s-.1-.24-.17-.36c-.08-.12-.17-.21-.27-.29s-.22-.14-.35-.17c-.13-.03-.27-.05-.4-.05s-.27.02-.4.05c-.13.03-.25.09-.37.16-.11.08-.21.17-.29.28s-.15.23-.2.36-.08.26-.1.4c-.02.14-.02.27-.02.41v1.44c0,.14,0,.27.02.41.02.14.05.27.1.4.05.13.11.25.2.36.08.11.18.21.29.28.11.08.23.13.37.16.13.03.27.05.4.05Z"/>
    <path class="cls-3" d="M196.99,54.08c-.22,0-.43-.02-.65-.06s-.42-.11-.61-.22c-.19-.11-.36-.24-.5-.41-.15-.16-.27-.34-.36-.54-.09-.2-.15-.4-.19-.62-.03-.22-.05-.43-.05-.65v-1.44c0-.22.02-.43.05-.65.03-.22.09-.42.18-.62.09-.2.21-.38.35-.54.15-.16.31-.3.5-.4.18-.1.38-.18.6-.22s.43-.07.65-.07.43.02.65.07.42.12.6.22c.18.1.35.24.5.4s.27.34.35.54c.09.2.15.4.18.62.03.22.05.43.05.65v1.14h-3.72v.3c0,.14,0,.27.02.41.02.14.05.27.1.4.05.13.12.25.2.36.08.11.18.21.3.28.12.08.24.13.38.16.14.03.27.05.41.05.15,0,.31-.02.46-.05.16-.03.3-.09.43-.17s.23-.19.32-.32c.08-.14.13-.28.14-.44h.94c0,.18-.04.36-.1.53-.06.17-.14.33-.25.48s-.24.28-.38.38c-.15.11-.31.19-.47.26s-.34.11-.53.13c-.18.02-.36.04-.54.04ZM198.36,50.44v-.3c0-.14,0-.27-.02-.41-.02-.14-.05-.27-.1-.4s-.11-.25-.2-.36-.18-.21-.29-.28c-.11-.08-.24-.13-.37-.16-.14-.03-.27-.05-.41-.05s-.27.02-.41.05c-.14.03-.26.09-.37.16-.11.08-.21.17-.29.28s-.15.23-.2.36-.08.26-.1.4c-.02.14-.02.27-.02.41v.3h2.78Z"/>
  </g>
  <g>
    <path class="cls-3" d="M569.98,51.51l-1.02-8.82h.94l.58,7.55.64-5.08h.94l.64,5.08.58-7.55h.94l-1.02,8.82h-.92l-.67-4.73-.67,4.73h-.92Z"/>
    <path class="cls-3" d="M577.57,51.61c-.22,0-.43-.02-.65-.07-.21-.04-.42-.12-.6-.22s-.35-.24-.5-.4c-.15-.16-.27-.34-.35-.54-.09-.2-.15-.4-.18-.62-.03-.22-.05-.43-.05-.65v-1.44c0-.22.02-.43.05-.65.03-.22.09-.42.18-.62.09-.2.21-.38.35-.54s.31-.3.5-.4.38-.18.6-.22c.22-.04.43-.07.65-.07s.43.02.65.07c.21.04.42.12.6.22s.35.24.5.4.27.34.35.54c.09.2.15.4.18.62.03.22.05.43.05.65v1.44c0,.22-.02.43-.05.65-.03.22-.09.42-.18.62-.09.2-.21.38-.35.54-.15.16-.31.3-.5.4s-.38.18-.6.22c-.22.04-.43.07-.65.07ZM577.57,50.77c.14,0,.27-.02.41-.05.14-.03.26-.09.37-.16.11-.08.21-.17.29-.28.08-.11.15-.23.2-.36.05-.13.08-.26.1-.4.02-.14.02-.27.02-.41v-1.44c0-.14,0-.27-.02-.41-.02-.14-.05-.27-.1-.4-.05-.13-.11-.25-.2-.36s-.18-.21-.29-.28c-.11-.08-.24-.13-.37-.16-.14-.03-.27-.05-.41-.05s-.27.02-.41.05c-.14.03-.26.09-.37.16-.11.08-.21.17-.29.28s-.15.23-.2.36c-.05.13-.08.26-.1.4-.02.14-.02.27-.02.41v1.44c0,.14,0,.27.02.41.02.14.05.27.1.4.05.13.11.25.2.36.08.11.18.21.29.28.11.08.24.13.37.16.14.03.27.05.41.05Z"/>
    <path class="cls-3" d="M582.06,51.51v-6.24h.94v1.3c.06-.18.13-.35.21-.52s.19-.32.32-.46c.13-.14.28-.24.46-.31.18-.07.36-.11.54-.11.15,0,.3.02.45.05.15.04.28.1.4.18s.22.19.3.32c.08.13.14.26.19.4s.08.28.1.43c.02.15.02.3.02.45h-.94c0-.12-.01-.24-.03-.35-.02-.12-.06-.23-.12-.33s-.14-.18-.25-.23c-.11-.05-.22-.08-.34-.08-.16,0-.31.03-.46.1-.15.07-.27.16-.37.28-.1.12-.18.25-.25.4-.06.15-.11.3-.14.46-.03.16-.05.31-.07.47-.01.16-.02.32-.02.47v3.31h-.94Z"/>
    <path class="cls-3" d="M587.53,51.51v-8.82h.92v5.48l2.29-2.9h1.14l-2.24,2.84,2.24,3.4h-1.08l-1.75-2.65-.6.76v1.9h-.92Z"/>
    <path class="cls-3" d="M595.6,51.61c-.21,0-.43-.02-.65-.06s-.42-.11-.61-.22c-.19-.11-.36-.24-.5-.41-.15-.16-.27-.34-.36-.54-.09-.2-.15-.4-.19-.62-.03-.22-.05-.43-.05-.65v-1.44c0-.22.02-.43.05-.65.03-.22.09-.42.18-.62.09-.2.21-.38.35-.54s.31-.3.5-.4.38-.18.6-.22c.22-.04.43-.07.65-.07s.43.02.65.07c.21.04.42.12.6.22s.35.24.5.4.27.34.35.54c.09.2.15.4.18.62.03.22.05.43.05.65v1.14h-3.72v.3c0,.14,0,.27.02.41.02.14.05.27.1.4.05.13.12.25.2.36.08.11.18.21.3.28.12.08.24.13.38.16.14.03.27.05.41.05.15,0,.31-.02.46-.05.16-.03.3-.09.43-.17s.23-.19.32-.32c.08-.14.13-.28.14-.44h.94c0,.18-.04.36-.1.53s-.14.33-.25.48-.24.28-.38.38c-.15.11-.31.19-.47.26s-.34.11-.53.13c-.18.02-.37.04-.54.04ZM596.97,47.97v-.3c0-.14,0-.27-.02-.41-.02-.14-.05-.27-.1-.4-.05-.13-.11-.25-.2-.36s-.18-.21-.29-.28c-.11-.08-.24-.13-.37-.16-.14-.03-.27-.05-.41-.05s-.27.02-.41.05c-.14.03-.26.09-.37.16-.11.08-.21.17-.29.28s-.15.23-.2.36c-.05.13-.08.26-.1.4-.02.14-.02.27-.02.41v.3h2.79Z"/>
    <path class="cls-3" d="M600.06,51.51v-6.24h.94v1.3c.06-.18.13-.35.21-.52s.19-.32.32-.46c.13-.14.28-.24.46-.31.18-.07.36-.11.54-.11.15,0,.3.02.45.05.15.04.28.1.4.18s.22.19.3.32c.08.13.14.26.19.4s.08.28.1.43c.02.15.02.3.02.45h-.94c0-.12-.01-.24-.03-.35-.02-.12-.06-.23-.12-.33s-.14-.18-.25-.23c-.11-.05-.22-.08-.34-.08-.16,0-.31.03-.46.1-.15.07-.27.16-.37.28-.1.12-.18.25-.25.4-.06.15-.11.3-.14.46-.03.16-.05.31-.07.47-.01.16-.02.32-.02.47v3.31h-.94Z"/>
    <path class="cls-3" d="M605.34,51.51v-8.82h2.3c.22,0,.43.02.64.07s.41.13.59.25c.18.12.34.26.48.43s.25.36.33.56c.08.2.14.41.17.62.03.22.04.43.04.65,0,.27-.02.54-.07.82-.05.27-.14.52-.28.76-.14.23-.31.43-.54.6-.22.17-.46.29-.72.36l1.8,3.71h-1.02l-1.76-3.65h-1.03v3.65h-.94ZM606.28,47.02h1.37c.14,0,.27-.02.41-.06.13-.04.26-.1.37-.19.11-.08.2-.19.27-.31.07-.12.13-.25.17-.38s.07-.27.08-.4c.02-.14.02-.28.02-.42,0-.14,0-.27-.02-.41-.02-.14-.04-.27-.08-.4-.04-.13-.1-.26-.17-.38-.07-.12-.16-.22-.27-.31-.11-.08-.23-.15-.37-.19-.14-.04-.27-.06-.41-.06h-1.37v3.49Z"/>
    <path class="cls-3" d="M614.37,51.61c-.18,0-.35-.02-.53-.07-.18-.04-.34-.12-.49-.23-.15-.11-.27-.24-.38-.39-.1-.15-.19-.31-.25-.49-.06-.17-.1-.35-.12-.53-.02-.18-.03-.36-.03-.55v-3.25h-1.15v-.84h1.15v-2.58h.94v2.58h2.11v.84h-2.11v3.25c0,.1,0,.21.01.31s.02.21.05.31c.02.1.06.2.1.29.04.1.09.18.16.26.07.08.15.13.25.17.1.04.2.06.29.06s.19-.02.28-.05c.09-.03.17-.08.24-.14.07-.06.12-.14.17-.23.04-.09.08-.18.11-.26.03-.09.05-.18.06-.28.01-.1.02-.19.02-.29v-.07h.94v.12c0,.17-.02.34-.05.51-.03.17-.08.34-.14.49-.06.16-.15.3-.26.44-.11.14-.23.26-.38.35-.14.09-.3.16-.47.19s-.34.05-.52.05Z"/>
    <path class="cls-3" d="M619.54,51.61c-.21,0-.42-.02-.64-.07-.22-.04-.42-.12-.6-.23-.18-.11-.35-.24-.49-.41-.14-.16-.25-.34-.34-.54-.09-.2-.15-.4-.18-.61-.03-.21-.05-.43-.05-.64v-1.44c0-.22.02-.43.05-.64.03-.21.09-.42.18-.61.09-.2.2-.38.34-.54.14-.16.3-.3.49-.41.18-.11.38-.18.6-.23.22-.04.43-.07.64-.07s.4.02.6.05c.2.04.39.1.57.19.18.09.34.2.49.34s.26.3.36.47c.1.18.17.36.21.56.04.2.07.39.07.59v.02h-.94c0-.2-.03-.38-.08-.55-.06-.18-.15-.33-.28-.46-.13-.13-.28-.23-.46-.29-.18-.06-.36-.09-.54-.09-.14,0-.27.02-.4.05-.13.03-.25.09-.37.17-.11.08-.21.18-.28.29-.08.11-.14.23-.19.35-.05.12-.08.25-.1.39-.02.14-.02.27-.02.41v1.44c0,.14,0,.27.02.41.02.14.05.27.1.39.05.12.11.24.19.35.08.11.17.21.28.29.11.08.23.14.37.17.13.03.27.05.4.05.18,0,.36-.03.54-.09s.33-.16.46-.29.22-.29.28-.46c.06-.18.08-.36.08-.54h0s.94-.01.94-.01v.02c0,.2-.02.4-.07.59-.04.2-.11.38-.21.56-.1.18-.22.33-.36.47s-.31.25-.49.34c-.18.09-.37.15-.57.19-.2.04-.4.05-.6.05Z"/>
    <path class="cls-3" d="M623.15,51.51v-8.82h1.13l1.3,4.84,1.3-4.84h1.13v8.82h-.94v-1.76c0-.92.01-1.84.04-2.75.03-.92.05-1.83.07-2.74l-1.24,4.61h-.72l-1.24-4.61c.02.91.04,1.83.07,2.74.03.92.04,1.83.04,2.75v1.76h-.94Z"/>
    <path class="cls-3" d="M631.6,51.61c-.21,0-.43-.02-.65-.06s-.42-.11-.61-.22c-.19-.11-.36-.24-.5-.41-.15-.16-.27-.34-.36-.54-.09-.2-.15-.4-.19-.62-.03-.22-.05-.43-.05-.65v-1.44c0-.22.02-.43.05-.65.03-.22.09-.42.18-.62.09-.2.21-.38.35-.54s.31-.3.5-.4.38-.18.6-.22c.22-.04.43-.07.65-.07s.43.02.65.07c.21.04.42.12.6.22s.35.24.5.4.27.34.35.54c.09.2.15.4.18.62.03.22.05.43.05.65v1.14h-3.72v.3c0,.14,0,.27.02.41.02.14.05.27.1.4.05.13.12.25.2.36.08.11.18.21.3.28.12.08.24.13.38.16.14.03.27.05.41.05.15,0,.31-.02.46-.05.16-.03.3-.09.43-.17s.23-.19.32-.32c.08-.14.13-.28.14-.44h.94c0,.18-.04.36-.1.53s-.14.33-.25.48-.24.28-.38.38c-.15.11-.31.19-.47.26s-.34.11-.53.13c-.18.02-.37.04-.54.04ZM632.97,47.97v-.3c0-.14,0-.27-.02-.41-.02-.14-.05-.27-.1-.4-.05-.13-.11-.25-.2-.36s-.18-.21-.29-.28c-.11-.08-.24-.13-.37-.16-.14-.03-.27-.05-.41-.05s-.27.02-.41.05c-.14.03-.26.09-.37.16-.11.08-.21.17-.29.28s-.15.23-.2.36c-.05.13-.08.26-.1.4-.02.14-.02.27-.02.41v.3h2.79Z"/>
    <path class="cls-3" d="M637.56,51.61c-.18,0-.35-.01-.53-.03s-.35-.06-.52-.12c-.17-.06-.33-.14-.48-.23-.15-.1-.28-.21-.39-.35-.11-.14-.19-.3-.25-.47-.06-.17-.08-.35-.08-.52v-.04h.94c0,.16.04.3.13.43s.19.23.32.31c.13.08.27.13.41.15.15.02.3.04.45.04.14,0,.29-.01.44-.04.15-.02.29-.07.41-.14s.24-.16.33-.29.14-.26.14-.4-.04-.28-.12-.4-.17-.23-.28-.31c-.11-.08-.23-.14-.37-.19s-.27-.08-.4-.11c-.14-.03-.27-.06-.4-.1-.13-.03-.26-.07-.4-.12-.13-.05-.26-.1-.38-.16s-.24-.13-.35-.22c-.11-.08-.21-.18-.31-.28-.09-.1-.17-.22-.23-.34-.06-.12-.11-.25-.15-.39-.04-.14-.05-.27-.05-.41,0-.18.03-.35.08-.51.05-.16.13-.32.23-.46.1-.14.23-.26.37-.35.14-.1.3-.17.46-.23s.33-.1.5-.12c.17-.02.34-.03.51-.03s.35.01.52.03c.17.02.33.06.5.12s.32.14.46.24c.14.1.26.22.37.35.1.14.18.29.23.46.05.17.08.34.08.5v.04h-.94c0-.16-.04-.29-.11-.41-.07-.12-.17-.22-.29-.3-.12-.08-.25-.13-.39-.15-.14-.02-.28-.04-.43-.04-.14,0-.27.01-.41.04-.14.02-.27.07-.39.14-.12.07-.22.17-.3.29-.08.12-.12.25-.12.4,0,.17.05.32.16.46.1.14.23.25.37.33.14.08.3.14.46.17s.33.07.49.11.32.09.48.14c.16.05.31.12.45.2s.28.18.41.29c.13.11.24.23.33.37.09.14.16.29.22.45.05.16.08.32.08.49s-.03.35-.08.52c-.06.17-.14.32-.25.46-.11.14-.24.26-.39.35-.15.1-.31.17-.47.23-.17.06-.34.09-.52.11s-.35.03-.53.03Z"/>
    <path class="cls-3" d="M643.56,51.61c-.18,0-.35-.01-.53-.03s-.35-.06-.52-.12c-.17-.06-.33-.14-.48-.23-.15-.1-.28-.21-.39-.35-.11-.14-.19-.3-.25-.47-.06-.17-.08-.35-.08-.52v-.04h.94c0,.16.04.3.13.43s.19.23.32.31c.13.08.27.13.41.15.15.02.3.04.45.04.14,0,.29-.01.44-.04.15-.02.29-.07.41-.14s.24-.16.33-.29.14-.26.14-.4-.04-.28-.12-.4-.17-.23-.28-.31c-.11-.08-.23-.14-.37-.19s-.27-.08-.4-.11c-.14-.03-.27-.06-.4-.1-.13-.03-.26-.07-.4-.12-.13-.05-.26-.1-.38-.16s-.24-.13-.35-.22c-.11-.08-.21-.18-.31-.28-.09-.1-.17-.22-.23-.34-.06-.12-.11-.25-.15-.39-.04-.14-.05-.27-.05-.41,0-.18.03-.35.08-.51.05-.16.13-.32.23-.46.1-.14.23-.26.37-.35.14-.1.3-.17.46-.23s.33-.1.5-.12c.17-.02.34-.03.51-.03s.35.01.52.03c.17.02.33.06.5.12s.32.14.46.24c.14.1.26.22.37.35.1.14.18.29.23.46.05.17.08.34.08.5v.04h-.94c0-.16-.04-.29-.11-.41-.07-.12-.17-.22-.29-.3-.12-.08-.25-.13-.39-.15-.14-.02-.28-.04-.43-.04-.14,0-.27.01-.41.04-.14.02-.27.07-.39.14-.12.07-.22.17-.3.29-.08.12-.12.25-.12.4,0,.17.05.32.16.46.1.14.23.25.37.33.14.08.3.14.46.17s.33.07.49.11.32.09.48.14c.16.05.31.12.45.2s.28.18.41.29c.13.11.24.23.33.37.09.14.16.29.22.45.05.16.08.32.08.49s-.03.35-.08.52c-.06.17-.14.32-.25.46-.11.14-.24.26-.39.35-.15.1-.31.17-.47.23-.17.06-.34.09-.52.11s-.35.03-.53.03Z"/>
    <path class="cls-3" d="M649,51.61c-.24,0-.48-.04-.71-.11-.23-.07-.43-.2-.59-.37-.16-.18-.28-.38-.35-.61-.07-.23-.1-.47-.1-.71,0-.2.03-.4.08-.6.05-.2.14-.38.27-.54.13-.16.28-.29.45-.4.17-.11.36-.19.55-.26.2-.06.39-.11.59-.13.2-.02.4-.04.61-.04h1.07v-.59c0-.17-.03-.34-.08-.5s-.15-.31-.28-.42c-.13-.11-.28-.19-.44-.24-.17-.05-.34-.07-.5-.07s-.32.02-.47.05c-.16.03-.3.09-.43.18-.13.09-.23.2-.3.35-.07.14-.11.29-.11.44h-.94c0-.18.03-.36.08-.54.05-.18.13-.34.23-.49.1-.15.23-.28.38-.39s.31-.2.47-.26c.17-.07.34-.11.53-.14.18-.02.37-.04.55-.04s.38.01.58.04c.19.03.38.08.55.16.18.08.34.18.49.31.15.13.27.28.37.44.1.17.16.35.2.54s.06.38.06.58v4.26h-.94v-1.03c-.07.18-.17.34-.31.49-.13.15-.28.27-.45.37s-.35.17-.54.21-.38.06-.58.06ZM649.36,50.77c.19,0,.39-.03.58-.08.2-.05.37-.14.51-.28.14-.13.25-.29.32-.48.07-.19.1-.38.1-.58v-.67h-1.07c-.12,0-.24,0-.37.02-.12.01-.24.03-.36.06-.12.03-.23.07-.34.12-.11.05-.21.12-.3.2s-.15.18-.19.29c-.04.12-.06.23-.06.35,0,.14.03.29.08.43.06.14.14.26.25.36.11.1.24.16.39.2.15.04.3.05.45.05Z"/>
    <path class="cls-3" d="M655.54,54.19c-.18,0-.37-.01-.55-.04-.18-.03-.35-.08-.52-.14-.17-.07-.32-.16-.47-.28-.14-.12-.27-.25-.37-.4-.1-.15-.18-.32-.23-.49-.05-.18-.08-.36-.09-.54h.94c0,.16.05.31.11.45s.16.26.29.35.26.16.41.2c.15.04.31.05.47.05.14,0,.27-.02.4-.05.13-.03.25-.09.36-.17.11-.08.2-.18.28-.29.08-.11.14-.23.18-.36.04-.13.07-.26.09-.39.02-.13.02-.27.02-.4v-1.27c-.06.17-.15.33-.25.49-.1.16-.23.29-.38.4s-.31.19-.49.23-.36.07-.55.07c-.2,0-.4-.03-.59-.08-.2-.06-.37-.14-.53-.26s-.29-.26-.4-.43c-.11-.17-.19-.35-.26-.53s-.11-.38-.13-.58c-.02-.2-.04-.4-.04-.6v-1.44c0-.2.01-.4.04-.6.02-.2.07-.39.13-.58s.15-.37.26-.53c.11-.17.24-.31.4-.43.16-.12.34-.21.53-.26s.39-.08.59-.08c.18,0,.37.02.55.07.18.05.34.13.49.23.15.11.27.24.38.4.1.16.19.32.25.49v-1.09h.94v6.42c0,.22-.02.43-.05.64-.03.21-.09.42-.17.61-.08.2-.2.38-.34.54-.14.16-.3.3-.49.41-.18.11-.38.18-.59.23s-.42.07-.63.07ZM655.56,50.77c.14,0,.27-.02.4-.05.13-.03.25-.09.35-.17s.19-.18.27-.29.13-.24.17-.36c.04-.12.07-.25.08-.38.02-.13.02-.27.02-.4v-1.44c0-.14,0-.27-.02-.4-.02-.13-.04-.26-.08-.38-.04-.12-.1-.24-.17-.36-.08-.12-.17-.21-.27-.29s-.22-.14-.35-.17c-.13-.03-.27-.05-.4-.05s-.27.02-.4.05c-.13.03-.25.09-.37.16-.11.08-.21.17-.29.28s-.15.23-.2.36c-.05.13-.08.26-.1.4-.02.14-.02.27-.02.41v1.44c0,.14,0,.27.02.41.02.14.05.27.1.4.05.13.11.25.2.36.08.11.18.21.29.28.11.08.23.13.37.16.13.03.27.05.4.05Z"/>
    <path class="cls-3" d="M661.6,51.61c-.21,0-.43-.02-.65-.06s-.42-.11-.61-.22c-.19-.11-.36-.24-.5-.41-.15-.16-.27-.34-.36-.54-.09-.2-.15-.4-.19-.62-.03-.22-.05-.43-.05-.65v-1.44c0-.22.02-.43.05-.65.03-.22.09-.42.18-.62.09-.2.21-.38.35-.54s.31-.3.5-.4.38-.18.6-.22c.22-.04.43-.07.65-.07s.43.02.65.07c.21.04.42.12.6.22s.35.24.5.4.27.34.35.54c.09.2.15.4.18.62.03.22.05.43.05.65v1.14h-3.72v.3c0,.14,0,.27.02.41.02.14.05.27.1.4.05.13.12.25.2.36.08.11.18.21.3.28.12.08.24.13.38.16.14.03.27.05.41.05.15,0,.31-.02.46-.05.16-.03.3-.09.43-.17s.23-.19.32-.32c.08-.14.13-.28.14-.44h.94c0,.18-.04.36-.1.53s-.14.33-.25.48-.24.28-.38.38c-.15.11-.31.19-.47.26s-.34.11-.53.13c-.18.02-.37.04-.54.04ZM662.97,47.97v-.3c0-.14,0-.27-.02-.41-.02-.14-.05-.27-.1-.4-.05-.13-.11-.25-.2-.36s-.18-.21-.29-.28c-.11-.08-.24-.13-.37-.16-.14-.03-.27-.05-.41-.05s-.27.02-.41.05c-.14.03-.26.09-.37.16-.11.08-.21.17-.29.28s-.15.23-.2.36c-.05.13-.08.26-.1.4-.02.14-.02.27-.02.41v.3h2.79Z"/>
  </g>
  <rect class="cls-2" x="684.75" y="13.03" width="73" height="38.48"/>
  <g>
    <path class="cls-3" d="M704.65,35.16l-1.02-6.24h.95l.56,5.33.64-3.58h.94l.64,3.58.56-5.33h.95l-1.02,6.24h-.92l-.67-3.34-.67,3.34h-.92Z"/>
    <path class="cls-3" d="M712.25,35.26c-.22,0-.43-.02-.65-.07-.22-.04-.42-.12-.6-.22-.18-.1-.35-.24-.5-.4-.15-.16-.27-.34-.35-.54-.09-.2-.15-.4-.18-.62-.03-.22-.05-.43-.05-.65v-1.44c0-.22.02-.43.05-.65.03-.22.09-.42.18-.62.09-.2.21-.38.35-.54.15-.16.31-.3.5-.4.18-.1.38-.18.6-.22s.43-.07.65-.07.43.02.65.07.42.12.6.22c.18.1.35.24.5.4s.27.34.35.54c.09.2.15.4.18.62.03.22.05.43.05.65v1.44c0,.22-.02.43-.05.65s-.09.42-.18.62c-.09.2-.21.38-.35.54-.15.16-.31.3-.5.4-.18.1-.38.18-.6.22-.22.04-.43.07-.65.07ZM712.25,34.42c.14,0,.27-.02.41-.05.14-.03.26-.09.37-.16.11-.08.21-.17.29-.28.08-.11.15-.23.2-.36.05-.13.08-.26.1-.4.02-.14.02-.27.02-.41v-1.44c0-.14,0-.27-.02-.41-.02-.14-.05-.27-.1-.4s-.11-.25-.2-.36-.18-.21-.29-.28c-.11-.08-.24-.13-.37-.16-.14-.03-.27-.05-.41-.05s-.27.02-.41.05c-.14.03-.26.09-.37.16-.11.08-.21.17-.29.28s-.15.23-.2.36-.08.26-.1.4c-.02.14-.02.27-.02.41v1.44c0,.14,0,.27.02.41.02.14.05.27.1.4.05.13.11.25.2.36.08.11.18.21.29.28.11.08.24.13.37.16.14.03.27.05.41.05Z"/>
    <path class="cls-3" d="M716.73,35.16v-6.24h.94v1.3c.06-.18.13-.35.21-.52s.19-.32.32-.46c.13-.14.28-.24.46-.31.18-.07.36-.11.54-.11.15,0,.3.02.45.05.15.04.28.1.4.18.12.08.22.19.3.32.08.13.14.26.19.4s.08.28.1.43c.02.15.02.3.02.45h-.94c0-.12-.01-.24-.03-.35-.02-.12-.06-.23-.12-.33-.06-.1-.14-.18-.25-.23-.11-.05-.22-.08-.34-.08-.16,0-.31.03-.46.1-.15.07-.27.16-.37.28-.1.12-.18.25-.25.4-.06.15-.11.3-.14.46-.03.16-.05.31-.07.47-.01.16-.02.32-.02.47v3.31h-.94Z"/>
    <path class="cls-3" d="M722.21,35.16v-8.82h.92v5.48l2.29-2.9h1.14l-2.24,2.84,2.24,3.4h-1.08l-1.75-2.65-.6.76v1.9h-.92Z"/>
    <path class="cls-3" d="M730.27,35.26c-.22,0-.43-.02-.65-.06s-.42-.11-.61-.22c-.19-.11-.36-.24-.5-.41-.15-.16-.27-.34-.36-.54-.09-.2-.15-.4-.19-.62-.03-.22-.05-.43-.05-.65v-1.44c0-.22.02-.43.05-.65.03-.22.09-.42.18-.62.09-.2.21-.38.35-.54.15-.16.31-.3.5-.4.18-.1.38-.18.6-.22s.43-.07.65-.07.43.02.65.07.42.12.6.22c.18.1.35.24.5.4s.27.34.35.54c.09.2.15.4.18.62.03.22.05.43.05.65v1.14h-3.72v.3c0,.14,0,.27.02.41.02.14.05.27.1.4.05.13.12.25.2.36.08.11.18.21.3.28.12.08.24.13.38.16.14.03.27.05.41.05.15,0,.31-.02.46-.05.16-.03.3-.09.43-.17s.23-.19.32-.32c.08-.14.13-.28.14-.44h.94c0,.18-.04.36-.1.53-.06.17-.14.33-.25.48s-.24.28-.38.38c-.15.11-.31.19-.47.26s-.34.11-.53.13c-.18.02-.36.04-.54.04ZM731.64,31.62v-.3c0-.14,0-.27-.02-.41-.02-.14-.05-.27-.1-.4s-.11-.25-.2-.36-.18-.21-.29-.28c-.11-.08-.24-.13-.37-.16-.14-.03-.27-.05-.41-.05s-.27.02-.41.05c-.14.03-.26.09-.37.16-.11.08-.21.17-.29.28s-.15.23-.2.36-.08.26-.1.4c-.02.14-.02.27-.02.41v.3h2.78Z"/>
    <path class="cls-3" d="M734.73,35.16v-6.24h.94v1.3c.06-.18.13-.35.21-.52s.19-.32.32-.46c.13-.14.28-.24.46-.31.18-.07.36-.11.54-.11.15,0,.3.02.45.05.15.04.28.1.4.18.12.08.22.19.3.32.08.13.14.26.19.4s.08.28.1.43c.02.15.02.3.02.45h-.94c0-.12-.01-.24-.03-.35-.02-.12-.06-.23-.12-.33-.06-.1-.14-.18-.25-.23-.11-.05-.22-.08-.34-.08-.16,0-.31.03-.46.1-.15.07-.27.16-.37.28-.1.12-.18.25-.25.4-.06.15-.11.3-.14.46-.03.16-.05.31-.07.47-.01.16-.02.32-.02.47v3.31h-.94Z"/>
  </g>
  <rect class="cls-2" x="220.14" y="13.1" width="92.88" height="38.48"/>
  <g>
    <path class="cls-3" d="M236.21,35.33c-.2,0-.4-.03-.59-.08-.2-.06-.37-.14-.53-.26s-.29-.26-.4-.43c-.11-.17-.2-.35-.26-.53s-.11-.38-.13-.58c-.02-.2-.04-.4-.04-.6v-1.44c0-.2.01-.4.04-.6.02-.2.07-.39.13-.58s.15-.37.26-.53c.11-.17.24-.31.4-.43.16-.12.34-.21.53-.26.2-.06.39-.08.59-.08.18,0,.37.02.55.07.18.05.34.13.49.23.15.11.27.24.38.4.1.16.19.32.25.49v-3.67h.94v8.82h-.94v-1.09c-.06.17-.15.33-.25.49-.1.16-.23.29-.38.4s-.31.19-.49.23c-.18.05-.36.07-.55.07ZM236.57,34.49c.14,0,.27-.02.4-.05.13-.04.25-.09.35-.17.1-.08.19-.18.27-.29.08-.11.13-.23.17-.35.04-.12.07-.25.08-.38.02-.13.02-.27.02-.4v-1.44c0-.14,0-.27-.02-.4-.02-.13-.04-.26-.08-.38-.04-.12-.1-.24-.17-.36-.08-.12-.17-.21-.27-.29-.1-.08-.22-.14-.35-.17-.13-.03-.27-.05-.4-.05s-.27.02-.4.05c-.13.03-.25.09-.37.16-.11.08-.21.17-.29.28s-.15.23-.2.36c-.05.13-.08.26-.1.4-.02.14-.02.27-.02.41v1.44c0,.14,0,.27.02.41.02.14.05.27.1.4.05.13.11.25.2.36.08.11.18.21.29.28.11.08.23.13.37.16.13.03.27.05.4.05Z"/>
    <path class="cls-3" d="M240.48,35.23v-.84h1.72v-4.56h-1.55v-.84h2.48v5.4h1.55v.84h-4.2ZM242.64,27.94c-.1,0-.2-.01-.3-.04-.1-.03-.18-.08-.25-.15-.07-.07-.12-.16-.15-.25-.03-.1-.04-.2-.04-.3s.01-.2.04-.3c.03-.1.08-.18.15-.25.07-.07.16-.12.25-.16.1-.03.2-.05.3-.05s.21.02.3.05c.1.03.18.08.25.16.07.07.12.16.16.25.03.1.05.2.05.3s-.02.2-.05.3c-.03.1-.08.18-.16.25-.07.07-.16.12-.25.15s-.2.04-.3.04Z"/>
    <path class="cls-3" d="M248.57,35.33c-.18,0-.35-.01-.53-.03s-.35-.06-.52-.12c-.17-.06-.33-.14-.48-.23-.15-.1-.28-.21-.39-.35-.11-.14-.19-.3-.25-.47s-.08-.35-.08-.52v-.04h.94c0,.16.04.3.12.43s.19.23.32.31c.13.08.27.13.41.15.15.02.3.04.45.04s.29-.01.44-.04c.15-.02.29-.07.41-.14s.24-.16.33-.29.14-.26.14-.4-.04-.28-.11-.4-.17-.23-.28-.31-.23-.14-.37-.19c-.13-.04-.27-.08-.4-.11-.14-.03-.27-.06-.4-.1s-.26-.07-.4-.12c-.13-.05-.26-.1-.38-.16s-.24-.13-.35-.22c-.11-.08-.21-.18-.31-.28-.09-.1-.17-.22-.23-.34-.06-.12-.11-.25-.15-.39-.04-.14-.05-.27-.05-.41,0-.18.03-.35.08-.51.05-.16.13-.32.23-.46.1-.14.23-.26.37-.35.14-.1.3-.17.46-.23s.33-.1.5-.12c.17-.02.34-.03.51-.03s.35.01.52.03c.17.02.33.06.5.12s.32.14.46.24c.14.1.26.22.37.35.1.14.18.29.23.46.05.17.08.34.08.5v.04h-.94c0-.16-.04-.29-.11-.41s-.17-.22-.29-.3c-.12-.08-.25-.13-.39-.15-.14-.02-.28-.04-.43-.04s-.28.01-.41.04c-.14.02-.27.07-.39.14-.12.07-.22.17-.3.29-.08.12-.12.25-.12.4,0,.17.05.32.16.46.1.14.23.25.37.33.14.08.3.14.46.17s.33.07.49.11.32.09.48.14c.16.05.31.12.45.2s.28.18.41.29c.13.11.24.23.33.37.09.14.16.29.21.45.05.16.08.32.08.49s-.03.35-.08.52c-.06.17-.14.32-.25.46-.11.14-.24.26-.39.35-.15.1-.31.17-.47.23-.17.06-.34.09-.52.11-.18.02-.35.03-.53.03Z"/>
    <path class="cls-3" d="M255.37,35.33c-.18,0-.35-.02-.53-.07-.18-.04-.34-.12-.49-.23-.15-.11-.28-.24-.38-.39s-.19-.31-.25-.49c-.06-.17-.1-.35-.12-.53-.02-.18-.03-.36-.03-.55v-3.25h-1.15v-.84h1.15v-2.58h.94v2.58h2.11v.84h-2.11v3.25c0,.1,0,.21.01.31s.02.21.05.31c.03.1.06.2.1.29.04.1.09.18.16.26.07.08.15.13.25.17.1.04.2.06.29.06s.19-.02.28-.05c.09-.03.17-.08.24-.14.07-.06.12-.14.17-.23.04-.09.08-.18.11-.26.03-.09.05-.18.06-.28.01-.1.02-.19.02-.29v-.07h.94v.12c0,.17-.02.34-.05.51-.03.17-.08.34-.14.49-.06.16-.15.3-.26.44-.11.14-.23.26-.38.35-.14.09-.3.16-.47.19s-.34.05-.52.05Z"/>
    <path class="cls-3" d="M259.07,35.23v-6.24h.94v1.3c.06-.18.13-.35.21-.52s.19-.32.32-.46c.13-.14.28-.24.46-.31.18-.07.36-.11.54-.11.15,0,.3.02.45.05.15.04.28.1.4.18.12.08.22.19.3.32.08.13.14.26.19.4s.08.28.1.43c.02.15.02.3.02.45h-.94c0-.12,0-.24-.03-.35-.02-.12-.06-.23-.12-.33s-.14-.18-.25-.23c-.11-.05-.22-.08-.34-.08-.16,0-.31.03-.46.1-.15.07-.27.16-.37.28-.1.12-.18.25-.25.4-.06.15-.11.3-.14.46-.03.16-.05.31-.07.47-.01.16-.02.32-.02.47v3.31h-.94Z"/>
    <path class="cls-3" d="M264.48,35.23v-.84h1.72v-4.56h-1.55v-.84h2.48v5.4h1.55v.84h-4.2ZM266.64,27.94c-.1,0-.2-.01-.3-.04-.1-.03-.18-.08-.25-.15-.07-.07-.12-.16-.15-.25-.03-.1-.04-.2-.04-.3s.01-.2.04-.3c.03-.1.08-.18.15-.25.07-.07.16-.12.25-.16.1-.03.2-.05.3-.05s.21.02.3.05c.1.03.18.08.25.16.07.07.12.16.16.25.03.1.05.2.05.3s-.02.2-.05.3c-.03.1-.08.18-.16.25-.07.07-.16.12-.25.15s-.2.04-.3.04Z"/>
    <path class="cls-3" d="M272.95,35.33c-.18,0-.37-.02-.55-.07-.18-.05-.34-.13-.49-.23s-.27-.24-.38-.4c-.1-.16-.19-.32-.25-.49v1.09h-.94v-8.82h.94v3.67c.06-.17.15-.33.25-.49.1-.16.23-.29.38-.4.15-.11.31-.19.49-.23.18-.05.36-.07.55-.07.2,0,.4.03.59.08.2.06.37.14.53.26.16.12.29.26.4.43.11.17.19.35.26.53.06.19.11.38.13.58.02.2.04.4.04.6v1.44c0,.2-.01.4-.04.6-.02.2-.07.39-.13.58-.06.19-.15.37-.26.53-.11.17-.24.31-.4.43s-.34.21-.53.26c-.2.06-.39.08-.59.08ZM272.59,34.49c.13,0,.27-.02.4-.05.13-.03.25-.09.37-.16.11-.08.21-.17.29-.28.08-.11.15-.23.2-.36.05-.13.08-.26.1-.4.02-.14.02-.27.02-.41v-1.44c0-.14,0-.27-.02-.41-.02-.14-.05-.27-.1-.4-.05-.13-.11-.25-.2-.36s-.18-.21-.29-.28c-.11-.08-.23-.13-.37-.16-.13-.03-.27-.05-.4-.05s-.27.02-.4.05c-.13.03-.25.09-.35.17s-.19.18-.27.29c-.08.12-.13.24-.17.36-.04.12-.07.25-.08.38-.02.13-.02.27-.02.4v1.44c0,.14,0,.27.02.4.02.13.04.26.08.38.04.12.1.24.17.36s.17.21.27.29.22.14.35.17c.13.03.27.05.4.05Z"/>
    <path class="cls-3" d="M278.22,35.33c-.2,0-.4-.03-.59-.08-.19-.06-.36-.15-.51-.27s-.27-.27-.38-.44c-.1-.17-.19-.35-.25-.54-.06-.19-.1-.38-.12-.58-.02-.2-.03-.39-.03-.58v-3.84h.94v3.84c0,.14,0,.27.02.4.02.13.04.26.08.38.04.12.1.24.17.35.08.11.17.21.27.29.1.08.22.14.35.17.13.04.26.05.4.05s.27-.02.4-.05c.13-.04.24-.09.35-.17.1-.08.19-.18.27-.29.08-.11.13-.23.17-.35.04-.12.07-.25.08-.38.02-.13.02-.27.02-.4v-3.84h.94v6.24h-.94v-1.09c-.06.17-.15.33-.25.48s-.23.28-.38.4c-.15.11-.31.19-.49.24-.18.05-.36.07-.53.07Z"/>
    <path class="cls-3" d="M285.37,35.33c-.18,0-.35-.02-.53-.07-.18-.04-.34-.12-.49-.23-.15-.11-.28-.24-.38-.39s-.19-.31-.25-.49c-.06-.17-.1-.35-.12-.53-.02-.18-.03-.36-.03-.55v-3.25h-1.15v-.84h1.15v-2.58h.94v2.58h2.11v.84h-2.11v3.25c0,.1,0,.21.01.31s.02.21.05.31c.03.1.06.2.1.29.04.1.09.18.16.26.07.08.15.13.25.17.1.04.2.06.29.06s.19-.02.28-.05c.09-.03.17-.08.24-.14.07-.06.12-.14.17-.23.04-.09.08-.18.11-.26.03-.09.05-.18.06-.28.01-.1.02-.19.02-.29v-.07h.94v.12c0,.17-.02.34-.05.51-.03.17-.08.34-.14.49-.06.16-.15.3-.26.44-.11.14-.23.26-.38.35-.14.09-.3.16-.47.19s-.34.05-.52.05Z"/>
    <path class="cls-3" d="M290.58,35.33c-.22,0-.43-.02-.65-.07-.22-.04-.42-.12-.6-.22s-.35-.24-.5-.4c-.15-.16-.27-.34-.35-.54-.09-.2-.15-.4-.18-.62-.03-.22-.05-.43-.05-.65v-1.44c0-.22.02-.43.05-.65.03-.22.09-.42.18-.62.09-.2.21-.38.35-.54s.31-.3.5-.4.38-.18.6-.22c.21-.04.43-.07.65-.07s.43.02.65.07c.22.04.42.12.6.22s.35.24.5.4c.15.16.27.34.35.54.09.2.15.4.18.62.03.22.05.43.05.65v1.44c0,.22-.02.43-.05.65-.03.22-.09.42-.18.62-.09.2-.21.38-.35.54-.15.16-.31.3-.5.4s-.38.18-.6.22c-.21.04-.43.07-.65.07ZM290.58,34.49c.14,0,.27-.02.41-.05.14-.03.26-.09.37-.16.11-.08.21-.17.29-.28.08-.11.15-.23.2-.36.05-.13.08-.26.1-.4.02-.14.02-.27.02-.41v-1.44c0-.14,0-.27-.02-.41-.02-.14-.05-.27-.1-.4-.05-.13-.11-.25-.2-.36s-.18-.21-.29-.28c-.11-.08-.24-.13-.37-.16-.14-.03-.27-.05-.41-.05s-.27.02-.41.05c-.14.03-.26.09-.37.16-.11.08-.21.17-.29.28s-.15.23-.2.36c-.05.13-.08.26-.1.4-.02.14-.02.27-.02.41v1.44c0,.14,0,.27.02.41.02.14.05.27.1.4.05.13.11.25.2.36.08.11.18.21.29.28.11.08.24.13.37.16.14.03.27.05.41.05Z"/>
    <path class="cls-3" d="M295.07,35.23v-6.24h.94v1.3c.06-.18.13-.35.21-.52s.19-.32.32-.46c.13-.14.28-.24.46-.31.18-.07.36-.11.54-.11.15,0,.3.02.45.05.15.04.28.1.4.18.12.08.22.19.3.32.08.13.14.26.19.4s.08.28.1.43c.02.15.02.3.02.45h-.94c0-.12,0-.24-.03-.35-.02-.12-.06-.23-.12-.33s-.14-.18-.25-.23c-.11-.05-.22-.08-.34-.08-.16,0-.31.03-.46.1-.15.07-.27.16-.37.28-.1.12-.18.25-.25.4-.06.15-.11.3-.14.46-.03.16-.05.31-.07.47-.01.16-.02.32-.02.47v3.31h-.94Z"/>
  </g>
  <rect class="cls-2" x="455.52" y="13.03" width="92.88" height="38.48"/>
  <g>
    <path class="cls-3" d="M471.59,35.26c-.2,0-.4-.03-.59-.08-.2-.06-.37-.14-.53-.26s-.29-.26-.4-.43c-.11-.17-.19-.35-.26-.53-.06-.19-.11-.38-.13-.58-.02-.2-.04-.4-.04-.6v-1.44c0-.2.01-.4.04-.6.02-.2.07-.39.13-.58.06-.19.15-.37.26-.53.11-.17.24-.31.4-.43.16-.12.34-.21.53-.26.2-.06.39-.08.59-.08.18,0,.37.02.55.07.18.05.34.13.49.23.15.11.27.24.38.4.1.16.19.32.25.49v-3.67h.94v8.82h-.94v-1.09c-.06.17-.15.33-.25.49-.1.16-.23.29-.38.4-.15.11-.31.19-.49.23s-.36.07-.55.07ZM471.95,34.42c.14,0,.27-.02.4-.05.13-.04.25-.09.35-.17.1-.08.19-.18.27-.29.08-.11.13-.23.17-.35s.07-.25.08-.38c.02-.13.02-.27.02-.4v-1.44c0-.14,0-.27-.02-.4-.02-.13-.04-.26-.08-.38s-.1-.24-.17-.36c-.08-.12-.17-.21-.27-.29-.1-.08-.22-.14-.35-.17-.13-.03-.27-.05-.4-.05s-.27.02-.4.05c-.13.03-.25.09-.37.16-.11.08-.21.17-.29.28s-.15.23-.2.36-.08.26-.1.4c-.02.14-.02.27-.02.41v1.44c0,.14,0,.27.02.41.02.14.05.27.1.4.05.13.11.25.2.36.08.11.18.21.29.28.11.08.23.13.37.16.13.03.27.05.4.05Z"/>
    <path class="cls-3" d="M475.86,35.16v-.84h1.72v-4.56h-1.55v-.84h2.48v5.4h1.55v.84h-4.2ZM478.02,27.87c-.1,0-.2-.01-.3-.04s-.18-.08-.25-.15c-.07-.07-.12-.16-.15-.25-.03-.1-.04-.2-.04-.3s.01-.2.04-.3c.03-.1.08-.18.15-.25.07-.07.16-.12.25-.16.1-.03.2-.05.3-.05s.2.02.3.05c.1.03.18.08.25.16.07.07.12.16.16.25.03.1.05.2.05.3s-.02.2-.05.3c-.03.1-.08.18-.16.25-.07.07-.16.12-.25.15-.1.03-.2.04-.3.04Z"/>
    <path class="cls-3" d="M483.95,35.26c-.18,0-.35-.01-.53-.03s-.35-.06-.52-.12c-.17-.06-.33-.14-.48-.23-.15-.1-.28-.21-.39-.35-.11-.14-.19-.3-.25-.47-.06-.17-.08-.35-.08-.52v-.04h.94c0,.16.04.3.13.43s.19.23.32.31c.13.08.27.13.41.15.15.02.3.04.45.04s.29-.01.44-.04c.15-.02.29-.07.41-.14s.24-.16.33-.29.14-.26.14-.4-.04-.28-.11-.4-.17-.23-.28-.31c-.11-.08-.23-.14-.37-.19s-.27-.08-.4-.11c-.14-.03-.27-.06-.4-.1-.13-.03-.26-.07-.4-.12s-.26-.1-.38-.16-.24-.13-.35-.22c-.11-.08-.21-.18-.31-.28-.09-.1-.17-.22-.23-.34-.06-.12-.11-.25-.15-.39-.04-.14-.05-.27-.05-.41,0-.18.03-.35.08-.51.05-.16.13-.32.23-.46.1-.14.23-.26.37-.35.14-.1.3-.17.46-.23s.33-.1.5-.12c.17-.02.34-.03.51-.03s.35.01.52.03c.17.02.33.06.5.12s.32.14.46.24c.14.1.26.22.37.35.1.14.18.29.23.46.05.17.08.34.08.5v.04h-.94c0-.16-.04-.29-.11-.41-.07-.12-.17-.22-.29-.3-.12-.08-.25-.13-.39-.15s-.28-.04-.43-.04c-.14,0-.27.01-.41.04s-.27.07-.39.14c-.12.07-.22.17-.3.29-.08.12-.12.25-.12.4,0,.17.05.32.16.46.1.14.23.25.37.33.14.08.3.14.46.17s.33.07.49.11.32.09.48.14c.16.05.31.12.45.2.14.08.28.18.41.29s.24.23.33.37c.09.14.16.29.22.45.05.16.08.32.08.49s-.03.35-.08.52c-.06.17-.14.32-.25.46s-.24.26-.39.35c-.15.1-.31.17-.47.23-.17.06-.34.09-.52.11s-.35.03-.53.03Z"/>
    <path class="cls-3" d="M490.76,35.26c-.18,0-.35-.02-.53-.07-.18-.04-.34-.12-.49-.23-.15-.11-.27-.24-.38-.39s-.19-.31-.25-.49c-.06-.17-.1-.35-.12-.53-.02-.18-.03-.36-.03-.55v-3.25h-1.15v-.84h1.15v-2.58h.94v2.58h2.11v.84h-2.11v3.25c0,.1,0,.21.01.31s.02.21.05.31c.02.1.06.2.1.29.04.1.09.18.16.26.07.08.15.13.25.17.1.04.2.06.29.06s.19-.02.28-.05c.09-.03.17-.08.24-.14.07-.06.12-.14.17-.23.04-.09.08-.18.11-.26.03-.09.05-.18.06-.28.01-.1.02-.19.02-.29v-.07h.94v.12c0,.17-.02.34-.05.51-.03.17-.08.34-.14.49-.06.16-.15.3-.26.44-.11.14-.23.26-.38.35-.14.09-.3.16-.47.19s-.34.05-.52.05Z"/>
    <path class="cls-3" d="M494.45,35.16v-6.24h.94v1.3c.06-.18.13-.35.21-.52s.19-.32.32-.46c.13-.14.28-.24.46-.31.18-.07.36-.11.54-.11.15,0,.3.02.45.05.15.04.28.1.4.18s.22.19.3.32c.08.13.14.26.19.4s.08.28.1.43c.02.15.02.3.02.45h-.94c0-.12,0-.24-.03-.35-.02-.12-.06-.23-.12-.33-.06-.1-.14-.18-.25-.23-.11-.05-.22-.08-.34-.08-.16,0-.31.03-.46.1-.15.07-.27.16-.37.28-.1.12-.18.25-.25.4-.06.15-.11.3-.14.46-.03.16-.05.31-.07.47-.01.16-.02.32-.02.47v3.31h-.94Z"/>
    <path class="cls-3" d="M499.86,35.16v-.84h1.72v-4.56h-1.55v-.84h2.48v5.4h1.55v.84h-4.2ZM502.02,27.87c-.1,0-.2-.01-.3-.04s-.18-.08-.25-.15c-.07-.07-.12-.16-.15-.25-.03-.1-.04-.2-.04-.3s.01-.2.04-.3c.03-.1.08-.18.15-.25.07-.07.16-.12.25-.16.1-.03.2-.05.3-.05s.2.02.3.05c.1.03.18.08.25.16.07.07.12.16.16.25.03.1.05.2.05.3s-.02.2-.05.3c-.03.1-.08.18-.16.25-.07.07-.16.12-.25.15-.1.03-.2.04-.3.04Z"/>
    <path class="cls-3" d="M508.34,35.26c-.18,0-.37-.02-.55-.07-.18-.05-.34-.13-.49-.23-.15-.11-.27-.24-.38-.4-.1-.16-.19-.32-.25-.49v1.09h-.94v-8.82h.94v3.67c.06-.17.15-.33.25-.49.1-.16.23-.29.38-.4.15-.11.31-.19.49-.23.18-.05.36-.07.55-.07.2,0,.4.03.59.08s.37.14.53.26c.16.12.29.26.4.43.11.17.19.35.26.53.06.19.11.38.13.58.02.2.04.4.04.6v1.44c0,.2-.01.4-.04.6-.02.2-.07.39-.13.58-.06.19-.15.37-.26.53-.11.17-.24.31-.4.43s-.34.21-.53.26c-.2.06-.39.08-.59.08ZM507.98,34.42c.14,0,.27-.02.4-.05.13-.03.25-.09.37-.16.11-.08.21-.17.29-.28.08-.11.15-.23.2-.36.05-.13.08-.26.1-.4.02-.14.02-.27.02-.41v-1.44c0-.14,0-.27-.02-.41-.02-.14-.05-.27-.1-.4s-.11-.25-.2-.36-.18-.21-.29-.28c-.11-.08-.23-.13-.37-.16-.13-.03-.27-.05-.4-.05s-.27.02-.4.05c-.13.03-.25.09-.35.17-.1.08-.19.18-.27.29-.08.12-.13.24-.17.36s-.07.25-.08.38c-.02.13-.02.27-.02.4v1.44c0,.14,0,.27.02.4.02.13.04.26.08.38s.1.24.17.36.17.21.27.29c.1.08.22.14.35.17.13.03.27.05.4.05Z"/>
    <path class="cls-3" d="M513.6,35.26c-.2,0-.4-.03-.59-.08-.19-.06-.36-.15-.51-.27-.15-.12-.27-.27-.38-.44-.1-.17-.19-.35-.25-.54-.06-.19-.1-.38-.12-.58-.02-.2-.03-.39-.03-.58v-3.84h.94v3.84c0,.14,0,.27.02.4.02.13.04.26.08.38s.1.24.17.35c.08.11.17.21.27.29.1.08.22.14.35.17.13.04.26.05.4.05s.27-.02.4-.05c.13-.04.24-.09.35-.17.1-.08.19-.18.27-.29.08-.11.13-.23.17-.35s.07-.25.08-.38c.02-.13.02-.27.02-.4v-3.84h.94v6.24h-.94v-1.09c-.06.17-.15.33-.25.48-.1.15-.23.28-.38.4-.15.11-.31.19-.49.24s-.36.07-.53.07Z"/>
    <path class="cls-3" d="M520.76,35.26c-.18,0-.35-.02-.53-.07-.18-.04-.34-.12-.49-.23-.15-.11-.27-.24-.38-.39s-.19-.31-.25-.49c-.06-.17-.1-.35-.12-.53-.02-.18-.03-.36-.03-.55v-3.25h-1.15v-.84h1.15v-2.58h.94v2.58h2.11v.84h-2.11v3.25c0,.1,0,.21.01.31s.02.21.05.31c.02.1.06.2.1.29.04.1.09.18.16.26.07.08.15.13.25.17.1.04.2.06.29.06s.19-.02.28-.05c.09-.03.17-.08.24-.14.07-.06.12-.14.17-.23.04-.09.08-.18.11-.26.03-.09.05-.18.06-.28.01-.1.02-.19.02-.29v-.07h.94v.12c0,.17-.02.34-.05.51-.03.17-.08.34-.14.49-.06.16-.15.3-.26.44-.11.14-.23.26-.38.35-.14.09-.3.16-.47.19s-.34.05-.52.05Z"/>
    <path class="cls-3" d="M525.96,35.26c-.22,0-.43-.02-.65-.07-.22-.04-.42-.12-.6-.22-.18-.1-.35-.24-.5-.4-.15-.16-.27-.34-.35-.54-.09-.2-.15-.4-.18-.62s-.05-.43-.05-.65v-1.44c0-.22.02-.43.05-.65.03-.22.09-.42.18-.62.09-.2.21-.38.35-.54.15-.16.31-.3.5-.4.18-.1.38-.18.6-.22s.43-.07.65-.07.43.02.65.07.42.12.6.22c.18.1.35.24.5.4.15.16.27.34.35.54.09.2.15.4.18.62.03.22.05.43.05.65v1.44c0,.22-.02.43-.05.65-.03.22-.09.42-.18.62-.09.2-.21.38-.35.54-.15.16-.31.3-.5.4-.18.1-.38.18-.6.22-.22.04-.43.07-.65.07ZM525.96,34.42c.14,0,.27-.02.41-.05.14-.03.26-.09.37-.16.11-.08.21-.17.29-.28.08-.11.15-.23.2-.36.05-.13.08-.26.1-.4.02-.14.02-.27.02-.41v-1.44c0-.14,0-.27-.02-.41-.02-.14-.05-.27-.1-.4s-.11-.25-.2-.36-.18-.21-.29-.28c-.11-.08-.24-.13-.37-.16-.14-.03-.27-.05-.41-.05s-.27.02-.41.05c-.14.03-.26.09-.37.16-.11.08-.21.17-.29.28s-.15.23-.2.36-.08.26-.1.4c-.02.14-.02.27-.02.41v1.44c0,.14,0,.27.02.41.02.14.05.27.1.4.05.13.11.25.2.36.08.11.18.21.29.28.11.08.24.13.37.16.14.03.27.05.41.05Z"/>
    <path class="cls-3" d="M530.45,35.16v-6.24h.94v1.3c.06-.18.13-.35.21-.52s.19-.32.32-.46c.13-.14.28-.24.46-.31.18-.07.36-.11.54-.11.15,0,.3.02.45.05.15.04.28.1.4.18s.22.19.3.32c.08.13.14.26.19.4s.08.28.1.43c.02.15.02.3.02.45h-.94c0-.12,0-.24-.03-.35-.02-.12-.06-.23-.12-.33-.06-.1-.14-.18-.25-.23-.11-.05-.22-.08-.34-.08-.16,0-.31.03-.46.1-.15.07-.27.16-.37.28-.1.12-.18.25-.25.4-.06.15-.11.3-.14.46-.03.16-.05.31-.07.47-.01.16-.02.32-.02.47v3.31h-.94Z"/>
  </g>
  <g>
    <line class="cls-1" x1="83.79" y1="26.41" x2="214.1" y2="26.41"/>
    <path class="cls-3" d="M220.14,26.41c-2.84,1.05-6.36,2.85-8.55,4.76l1.72-4.76-1.72-4.75c2.18,1.9,5.71,3.7,8.55,4.75Z"/>
  </g>
  <g>
    <line class="cls-1" x1="89.83" y1="37.15" x2="220.14" y2="37.15"/>
    <path class="cls-3" d="M83.79,37.15c2.84,1.05,6.36,2.85,8.55,4.76l-1.72-4.76,1.72-4.75c-2.18,1.9-5.71,3.7-8.55,4.75Z"/>
  </g>
  <g>
    <line class="cls-1" x1="554.44" y1="37.08" x2="684.75" y2="37.08"/>
    <path class="cls-3" d="M548.4,37.08c2.84,1.05,6.36,2.85,8.55,4.76l-1.72-4.76,1.72-4.75c-2.18,1.9-5.71,3.7-8.55,4.75Z"/>
  </g>
  <g>
    <line class="cls-1" x1="548.4" y1="26.34" x2="678.71" y2="26.34"/>
    <path class="cls-3" d="M684.75,26.34c-2.84,1.05-6.36,2.85-8.55,4.76l1.72-4.76-1.72-4.75c2.18,1.9,5.71,3.7,8.55,4.75Z"/>
  </g>
  <g>
    <line class="cls-1" x1="319.05" y1="37.08" x2="455.52" y2="37.08"/>
    <path class="cls-3" d="M313.02,37.08c2.84,1.05,6.36,2.85,8.55,4.76l-1.72-4.76,1.72-4.75c-2.18,1.9-5.71,3.7-8.55,4.75Z"/>
  </g>
  <g>
    <line class="cls-1" x1="313.02" y1="26.34" x2="449.49" y2="26.34"/>
    <path class="cls-3" d="M455.52,26.34c-2.84,1.05-6.36,2.85-8.55,4.76l1.72-4.76-1.72-4.75c2.18,1.9,5.71,3.7,8.55,4.75Z"/>
  </g>
</svg>