<?xml version="1.0" encoding="UTF-8"?>
<svg xmlns="http://www.w3.org/2000/svg" viewBox="0 0 362.25 483">
  <defs>
    <style>
      .cls-1 {
        fill: #f8e7d0;
      }

      .cls-2 {
        fill: #a67941;
      }

      .cls-3 {
        fill: #e42e26;
      }

      .cls-4 {
        fill: none;
        stroke: #d5b580;
      }

      .cls-4, .cls-5 {
        stroke-miterlimit: 10;
      }

      .cls-6 {
        fill: #d5b580;
      }

      .cls-7 {
        fill: #2a2311;
      }

      .cls-5 {
        fill: #fbfaec;
        stroke: #45130d;
      }
    </style>
  </defs>
  <g id="Layer_1" data-name="Layer 1">
    <g id="planet">
      <polygon class="cls-5" points="111.53 191.45 101.24 196.72 86.75 208.64 82.3 213.2 80.08 215.07 72.01 224.78 62.78 242.55 58.34 254.24 57.17 259.39 57.17 263.95 55.53 268.15 55.53 271.43 54.01 274.35 53.07 280.55 51.67 292.47 52.96 295.51 52.61 298.67 54.16 304.87 56 310.66 57.93 321.09 60.56 330.12 64.33 338.89 68.8 347.84 73.1 353.45 78.45 361.08 81.6 364.5 82.3 366.78 84.06 368.44 90.99 374.93 98.7 380.19 103.09 382.56 108.44 386.68 117.2 391.16 126.32 394.84 137.81 398.7 147.63 400.98 157.63 403.43 169.99 403.43 188.67 401.41 207.26 397.64 221.12 392.91 226.64 390.19 233.04 386.16 240.32 382.82 242.6 380.37 249.09 376.25 258.12 368.97 268.47 357.57 273.62 349.39 277.47 340.79 281.98 329.98 284.26 320.33 285.54 316.47 286.42 304.25 286.42 288.94 284.61 270.99 280.92 254.33 276.01 242.23 269.7 230.07 262.1 218.49 253.91 208.2 246.02 200.84 237.31 195.4 230.71 192.07 226.61 190.96 219.89 187.86 213.75 186.4 207.2 183.94 202.41 182.77 190.13 181.19 181.66 180.55 169.04 180.26 155.88 180.79 145.82 180.84 140.44 181.43 130.1 183.88 119.46 187.1 111.53 191.45"/>
      <path class="cls-1" d="M284.61,270.99l-3.68-16.66-4.91-12.1-6.31-12.16-7.6-11.58-8.18-10.29-7.89-7.37-8.71-5.44-6.61-3.33-4.09-1.11-6.72-3.1-6.14-1.46-6.55-2.46-4.79-1.17-12.28-1.58-8.48-.64-12.61-.29-13.17.53-10.06.06-5.38.58-10.35,2.46-10.64,3.22-7.92,4.36-10.29,5.26-14.5,11.93-4.44,4.56-2.22,1.87-8.07,9.7-9.24,17.77-4.44,11.69-1.17,5.14v4.56l-1.64,4.21v3.27l-1.52,2.92-.94,6.2-1.4,11.93,1.29,3.04-.35,3.16,1.55,6.2,1.84,5.79,1.93,10.44,2.63,9.03,3.77,8.77,4.47,8.94,4.3,5.61,5.35,7.63,3.16,3.42.7,2.28,1.75,1.67,6.93,6.49,7.72,5.26,4.38,2.37,5.35,4.12,8.77,4.47,9.12,3.68,11.49,3.86,9.82,2.28,10,2.46h12.36l18.68-2.02,18.59-3.77,13.86-4.74,5.52-2.72,6.4-4.03,7.28-3.33,2.28-2.46,6.49-4.12,9.03-7.28,10.35-11.4,5.14-8.18,3.86-8.59,4.5-10.82,2.28-9.65,1.29-3.86.88-12.22v-15.32l-1.81-17.95ZM281.23,311.58l-2.98,11.84-2.98,2.19-2.37,11.05v6.49l-6.14,9.82-6.31,4.3-7.19,9.65s-7.37,5.35-7.63,5.44-11.58,2.54-11.58,2.54l-8.42,6.66-4.3,1.75-7.37,3.77-10.44,4.12-11.14,4.74-13.24,1.4-10.96.44h-9.47l-3.68-1.75h-4.82l-10.79-1.93-6.4-1.84-1.75-1.84-2.02.44-6.05-3.6-1.75-3.51-3.6-2.72-10.52-.79-3.95-4.03-5.09-2.98-1.58-1.67-2.98-2.28-4.56-1.05-.53-2.1-3.07-4.38-5.17-4.47-.61-3.95-2.72-5v-2.89l-1.93-3.6-4.38-1.58-3.16-5.52-.96-8.42-1.75-7.1-3.42-7.45-1.75-5-.79-8.94.88-6.58-.44-8.68.88-5,.96-7.19.96-8.51,1.14-6.14,2.28-3.68,1.84-3.16.88-5.79.88-4.65,1.05-2.37v-2.02l2.89-4.12,5.09-3.33,4.03-4.38,1.93-5.17,6.05-2.72,3.51-6.75,8.33-4.56,8.33-4.21,7.89-2.89,14.82-6.31,5.88-2.28,7.89.7,8.33-1.58,14.56-.35,9.91-.61,3.77-1.58,5.61.44,10.7,1.84,5.61,1.49,3.51,1.58,4.3.61,2.72,1.84h3.42l9.21,4.38,1.84,2.37h3.24l5.09,4.03h3.77l1.84,2.28-.35,4.38,4.38,3.86,9.65,5.35,5.44,8.07,3.95,5.44,4.65,9.21,3.51,7.8.7,9.07v4.35l.35,3.68s2.63,6.14,2.81,6.4c.18.26,1.05,3.07,1.05,3.07l.61,5.7-.88,5.88,1.84,11.22-.79,13.33Z"/>
    </g>
    <g id="rose">
      <path class="cls-7" d="M235.31,202.15c.09-.18,4.03-5.61,4.03-5.61l4.03-4.33.76.41-3.86,4.56-3.62,5.23-.96.15-.38-.41Z"/>
      <path class="cls-3" d="M243.38,192.21l-1.08-1.23-.61-3.1v-2.92l2.78-4.06,1.9-1.84,1.55-1.02,1.05.2,1.37-.2.44.56,1.43-.56,1.34.76,1.14.53,1.05,1.34.7,1.78s.73,1.55.76,1.64.58,2.08.58,2.08l-.73,2.86-.73,1.99-1.75,1.84-1.9,1.14-2.37.76h-2.1l-2.34-.96-1.72-1.17-.76-.41Z"/>
    </g>
    <path class="cls-2" d="M260.92,162.3c.11-.53.16-1.08.13-1.62-.01-.26-.22-.51-.5-.5-.26.01-.51.22-.5.5.02.37,0,.73-.05,1.09l.02-.13c-.02.13-.04.27-.07.4s-.02.27.05.39c.06.1.18.2.3.23.25.06.56-.08.62-.35h0Z"/>
    <path class="cls-2" d="M261,160.72c.59-1.14.73-2.45,1.22-3.62.1-.25.07-.54-.18-.68-.21-.12-.58-.07-.68.18-.26.61-.44,1.24-.61,1.88-.16.6-.33,1.19-.61,1.74-.12.24-.06.54.18.68.22.13.56.06.68-.18h0Z"/>
    <path class="cls-2" d="M262.42,156.61l1.2-3.31c.09-.25-.1-.56-.35-.62-.28-.06-.52.09-.62.35l-1.2,3.31c-.09.25.1.56.35.62.28.06.52-.09.62-.35h0Z"/>
    <path class="cls-2" d="M263.67,152.97c.48-1.43.85-2.89,1.11-4.38.05-.27-.07-.54-.35-.62-.24-.07-.57.08-.62.35-.25,1.49-.62,2.95-1.11,4.38-.09.26.1.55.35.62.27.08.53-.09.62-.35h0Z"/>
    <path class="cls-2" d="M264.77,148.54s0-.02.01-.03l-.05.12s.03-.06.05-.09l-.08.1s.05-.05.07-.07l-.1.08s0,0,0,0c.06-.03.11-.07.14-.13.04-.05.07-.1.09-.17.02-.07.02-.13,0-.2,0-.07-.02-.13-.06-.19l-.08-.1c-.06-.06-.14-.1-.22-.13l-.13-.02c-.09,0-.17.02-.25.07-.04.03-.08.06-.12.1,0,0-.02.02-.02.02s-.01.02-.02.02c0,0,0,0-.01.01-.03.04-.06.07-.09.11-.01.02-.02.04-.03.06-.03.06-.06.12-.07.18-.02.07-.02.13,0,.2,0,.07.02.13.06.19.03.06.07.11.13.14.05.04.1.07.17.09l.13.02c.09,0,.17-.02.25-.07l.1-.08c.06-.06.1-.14.13-.22h0Z"/>
    <path class="cls-2" d="M264.97,148.37l.26-.41c.04-.06.06-.12.06-.19.01-.07.01-.13,0-.2-.02-.07-.05-.12-.09-.17-.04-.05-.08-.1-.14-.13l-.12-.05c-.09-.02-.18-.02-.27,0l-.12.05c-.08.04-.13.1-.18.18l-.26.41c-.04.06-.06.12-.06.19-.01.07-.01.13,0,.2.02.07.05.12.09.17.04.05.08.1.14.13l.12.05c.09.02.18.02.27,0l.12-.05c.08-.04.13-.1.18-.18h0Z"/>
    <path class="cls-2" d="M265.31,146.96c.3-.67.43-1.36.57-2.08s.35-1.38.6-2.06c.53-1.45.72-2.97,1.19-4.44.2-.61-.77-.88-.96-.27-.46,1.41-.64,2.89-1.14,4.29-.25.68-.48,1.35-.62,2.07-.13.67-.22,1.36-.5,1.98-.26.58.61,1.09.86.5h0Z"/>
    <path class="cls-2" d="M267.7,138.23c.69-1.98,1.23-4,1.62-6.06.12-.63-.85-.9-.96-.27-.38,2.06-.93,4.09-1.62,6.06-.21.61.75.87.96.27h0Z"/>
    <path class="cls-2" d="M269.08,131.94c.04-.4,0-.82-.13-1.2-.04-.12-.12-.23-.23-.3s-.27-.09-.39-.05-.24.11-.3.23-.09.26-.05.39c.05.15.08.3.1.45l-.02-.13c.03.21.03.41.01.62-.01.12.06.27.15.35.09.09.23.15.35.15s.26-.05.35-.15l.08-.1c.05-.08.07-.16.07-.25h0Z"/>
    <path class="cls-2" d="M268.63,130.78s-.04-.03-.05-.05c.04.06.05.06.02.02.07.14,0,0,0-.01,0,.07.01.08,0,.03,0-.02,0-.05,0-.07,0-.02,0-.05,0-.07v.06c0-.22.1-.47.17-.68.15-.46.31-.92.46-1.38.08-.25-.1-.56-.35-.62-.28-.06-.53.08-.62.35-.18.52-.36,1.04-.52,1.56-.15.49-.31,1.19.16,1.57.2.17.51.21.71,0,.17-.18.22-.53,0-.71h0Z"/>
    <path class="cls-2" d="M269.1,128.87c.1-.53.09-1.07.1-1.61,0-.24,0-.49.04-.73-.01.08.02-.1.02-.12.01-.05.02-.1.03-.15.02-.07.04-.13.06-.2.01-.03.02-.06.04-.1-.02.04-.01.03.01-.02.11-.24.07-.55-.18-.68-.22-.12-.57-.07-.68.18-.25.53-.33,1.09-.34,1.67,0,.27,0,.53,0,.8s-.02.51-.06.71c-.05.26.07.55.35.62.24.06.56-.07.62-.35h0Z"/>
    <path class="cls-2" d="M269.44,125.79l1.63-3.07c.12-.23.07-.55-.18-.68-.23-.12-.55-.07-.68.18l-1.63,3.07c-.12.23-.07.55.18.68.23.12.55.07.68-.18h0Z"/>
    <path class="cls-2" d="M271.14,122.62c.07-.12.15-.24.24-.35l-.08.1c.11-.14.23-.27.36-.39.09-.08.15-.23.15-.35s-.05-.27-.15-.35-.22-.15-.35-.15-.25.05-.35.15c-.12.11-.23.23-.33.35-.12.16-.24.32-.34.49-.07.11-.08.26-.05.39.03.12.12.24.23.3.12.06.26.09.39.05s.23-.11.3-.23h0Z"/>
    <path class="cls-2" d="M271.18,121.87s-.05-.04-.01,0c.04.04.03.04,0-.01.02.03.04.12.02.02.01.05.02.09.04.14,0,.04,0,.03,0-.02,0,.03,0,.06,0,.09.01.22.01.45.03.67.03.5.1.99.19,1.48.05.26.37.43.62.35.28-.09.4-.34.35-.62-.02-.13-.05-.27-.07-.4,0-.03,0-.07-.01-.1,0,.05,0,.04,0-.02,0-.05-.01-.1-.02-.15-.03-.26-.05-.53-.06-.79s0-.54-.06-.8c-.07-.29-.24-.53-.48-.7-.22-.15-.56-.05-.68.18-.13.25-.05.53.18.68h0Z"/>
    <path class="cls-2" d="M271.37,122.34c.02,1.43.05,2.96-.56,4.29-.11.25-.07.54.18.68.21.13.57.07.68-.18.69-1.51.71-3.16.69-4.8,0-.64-1.01-.64-1,0h0Z"/>
    <path class="cls-2" d="M271.69,123.35v-.02c.1-.21-.05-.45-.22-.56l-.03-.02c-.16-.11-.48-.08-.61.08-.43.55-.47,1.49-.62,2.15-.17.77-.38,1.53-.81,2.2l.91.39c.29-.81.52-1.64.69-2.48.08-.38.13-.76.2-1.14.05-.28.1-.64.36-.82l-.73-.3c.16.44.03.96-.05,1.41-.09.48-.2.96-.31,1.43-.19.79-.31,1.78-.85,2.42l.84.22c-.18-.62-.47-1.29-.52-1.94s.39-1.14.57-1.71c.17-.54-.64-.88-.91-.39-.49.88-.96,1.77-1.1,2.78-.13.95.02,1.99-.38,2.89l.91.39c.18-.55.39-1.08.64-1.6l-.91-.12c.35,1-.45,2.03-.36,3.06.03.33.42.69.75.43.75-.57,1.37-1.27,1.79-2.12.51-1.03.86-2.16,1.27-3.23.16-.42-.38-.77-.73-.56-.74.44-1.02,1.45-1.32,2.2-.18.45-.31.93-.55,1.35-.23.39-.58.68-.79,1.08l.86.5c.44-.88.89-1.76,1.35-2.62.42-.78,1-1.57,1.25-2.42.18-.62-.79-.88-.96-.27-.11.4-.37.76-.56,1.11-.22.41-.44.81-.66,1.22-.44.82-.86,1.64-1.27,2.47-.28.57.56,1.08.86.5.17-.33.45-.58.66-.88.25-.36.4-.78.55-1.18s.31-.82.49-1.22c.14-.32.27-.79.59-.98l-.73-.56c-.64,1.69-1.11,3.6-2.61,4.75l.75.43c-.1-1.15.73-2.16.32-3.33-.13-.37-.72-.54-.91-.12-.28.6-.53,1.21-.74,1.84-.17.53.68.91.91.39.4-.9.39-1.84.46-2.81.07-1.06.52-1.95,1.02-2.86l-.91-.39c-.21.69-.64,1.22-.6,1.98s.34,1.5.56,2.21c.1.33.59.52.84.22.67-.81.87-1.86,1.1-2.86.13-.56.26-1.12.36-1.69s.21-1.15,0-1.69c-.1-.29-.44-.49-.73-.3-.72.47-.79,1.28-.93,2.06-.18,1.01-.44,2-.79,2.97-.2.55.62.85.91.39.41-.64.65-1.35.83-2.08.09-.36.16-.73.24-1.09.04-.19.09-.39.13-.58.02-.1.05-.19.08-.29.07-.14.07-.17,0-.12l-.61.08.03.02-.23-.56v.02c-.26.59.71.85.95.27h0Z"/>
    <path class="cls-2" d="M242.46,197.74c-.1.19-.21.37-.33.54-.03.05-.07.09-.1.13-.04.05.07-.09.01-.02-.02.02-.04.05-.06.07-.07.08-.14.16-.21.24-.15.15-.3.3-.47.43-.06.05-.02.01.02-.01-.02.02-.05.04-.07.05-.04.03-.08.06-.12.09-.09.06-.19.12-.28.18-.23.13-.33.46-.18.68s.44.32.68.18c.83-.49,1.53-1.21,1.97-2.07.12-.23.07-.55-.18-.68-.23-.12-.55-.07-.68.18h0Z"/>
    <path class="cls-6" d="M218.12,186.54c-.04.16-.1.32-.16.47l.05-.12c-.12.28-.27.54-.45.78l.08-.1s-.08.1-.12.15c-.09.1-.15.21-.15.35,0,.12.05.27.15.35s.22.15.35.15.27-.05.35-.15c.4-.47.7-1.01.86-1.61.07-.25-.09-.55-.35-.62s-.54.08-.62.35h0Z"/>
  </g>
  <g id="Layer_2" data-name="Layer 2">
    <path class="cls-6" d="M219.12,186.99c2.67-3.19,5.32-6.4,8.01-9.58,1.29-1.52,2.62-3.01,4.08-4.38s2.95-2.64,4.31-4.09c.44-.47-.27-1.18-.71-.71-1.36,1.45-2.86,2.74-4.31,4.09s-2.79,2.86-4.08,4.38c-2.69,3.17-5.34,6.38-8.01,9.58-.41.49.29,1.2.71.71h0Z"/>
    <path class="cls-6" d="M235.99,168.51c.23-.31.6-.5.91-.7.39-.25.75-.54,1.1-.85.65-.59,1.23-1.25,1.98-1.72.55-.34.04-1.2-.5-.86-.82.51-1.47,1.23-2.18,1.87-.32.3-.66.55-1.04.78-.43.27-.83.55-1.13.97-.16.22-.04.56.18.68.25.15.52.04.68-.18h0Z"/>
    <path class="cls-6" d="M240.14,164.87l.99-.48c.15-.07.31-.15.46-.22.12-.05-.07.02.03-.01.04-.02.08-.03.12-.05.08-.03.17-.06.26-.08.25-.07.43-.36.35-.62s-.34-.42-.62-.35c-.37.1-.72.27-1.07.44l-1.03.5c-.24.11-.32.47-.18.68.16.24.43.3.68.18h0Z"/>
    <path class="cls-6" d="M242.32,163.79c.94-.77,1.94-1.57,2.87-2.29.21-.16.34-.44.18-.68-.13-.2-.46-.35-.68-.18-1.04.8-2.06,1.61-3.08,2.44-.2.17-.19.54,0,.71.22.2.49.18.71,0h0Z"/>
    <path class="cls-6" d="M245.27,161.4s-.01.01.01,0c.03-.02.06-.05.1-.07.05-.04.1-.07.16-.11.12-.08.24-.16.35-.24.25-.17.49-.36.73-.55.43-.36.83-.74,1.23-1.13.19-.18.2-.53,0-.71s-.51-.19-.71,0c-.4.39-.8.77-1.23,1.13-.05.04-.1.08-.15.12,0,0-.1.08-.06.05.04-.03-.04.03-.04.03-.11.08-.22.16-.33.24-.26.18-.51.35-.76.54-.21.16-.18.54,0,.71.22.2.49.17.71,0h0Z"/>
    <path class="cls-6" d="M247.85,159.33c.85-.62,1.69-1.24,2.54-1.85.78-.56,1.59-1.13,2.48-1.49.25-.1.43-.33.35-.62-.06-.24-.36-.45-.62-.35-.95.39-1.81.94-2.64,1.54-.88.63-1.74,1.27-2.62,1.91-.22.16-.33.43-.18.68.13.21.46.34.68.18h0Z"/>
    <path class="cls-6" d="M252.16,156.16l3.89-2.6c.22-.15.32-.44.18-.68-.13-.22-.46-.33-.68-.18l-3.89,2.6c-.22.15-.32.44-.18.68.13.22.46.33.68.18h0Z"/>
    <path class="cls-6" d="M256.08,153.52c.7-.36,1.41-.73,2.07-1.18s1.26-.97,1.79-1.57c.18-.2.2-.51,0-.71-.18-.18-.53-.2-.71,0-.49.55-1.04,1.04-1.65,1.45s-1.33.78-2.01,1.14c-.24.12-.31.46-.18.68.14.24.44.3.68.18h0Z"/>
    <path class="cls-6" d="M259.59,151.08c1.31-1,2.66-1.94,4.05-2.82.23-.14.32-.45.18-.68s-.45-.32-.68-.18c-1.39.88-2.75,1.82-4.05,2.82-.21.16-.33.43-.18.68.12.21.47.34.68.18h0Z"/>
    <path class="cls-6" d="M263.66,148.22c.81-.51,1.63-1,2.47-1.47.23-.13.32-.46.18-.68s-.44-.32-.68-.18c-.84.47-1.66.96-2.47,1.47-.22.14-.33.45-.18.68s.45.33.68.18h0Z"/>
    <path class="cls-6" d="M266.21,146.57c1.42-.7,2.71-1.6,4-2.51.22-.16.32-.44.18-.68-.13-.22-.46-.34-.68-.18-1.29.91-2.58,1.81-4,2.51-.24.12-.31.46-.18.68.14.25.44.3.68.18h0Z"/>
    <path class="cls-6" d="M270.29,143.99c.11-.07.22-.13.34-.19.06-.03.11-.05.17-.08.12-.05-.06.02.01,0,.03-.01.06-.03.1-.04.24-.1.49-.18.74-.28.54-.21,1.05-.45,1.46-.87.18-.19.2-.52,0-.71s-.51-.2-.71,0c-.04.04-.09.09-.13.13-.03.02-.05.04-.08.06.03-.03.05-.04,0,0-.1.07-.21.14-.32.2s-.22.11-.33.16c-.05.03.08-.03-.01,0-.03.01-.05.02-.08.03-.06.03-.13.05-.19.07-.5.19-1.02.36-1.48.65-.22.14-.33.45-.18.68s.45.33.68.18h0Z"/>
    <path class="cls-6" d="M274.22,142.07c.38-.4.72-.85.99-1.33.06-.11.09-.26.05-.39-.03-.12-.12-.24-.23-.3-.24-.12-.55-.06-.68.18-.14.26-.31.5-.49.73l.08-.1c-.13.17-.28.34-.43.5-.09.09-.15.22-.15.35,0,.12.05.27.15.35.2.18.51.2.71,0h0Z"/>
    <path class="cls-6" d="M274.78,141.32s.06-.08.09-.12c.01-.02.03-.04.04-.06.05-.06.02,0-.01.02.07-.07.13-.16.19-.23.13-.15.27-.3.42-.43.07-.07.15-.14.23-.2.04-.03.08-.06.12-.1.02-.01.03-.02.05-.04-.1.09-.04.03-.02.01.16-.12.34-.24.51-.34.22-.13.33-.46.18-.68s-.44-.32-.68-.18c-.78.47-1.45,1.1-1.97,1.85-.15.22-.05.56.18.68.26.14.52.05.68-.18h0Z"/>
    <path class="cls-6" d="M276.31,139.95s.03-.04.04-.06c.05-.07,0,.02-.01.01,0,0,.09-.1.1-.11s.11-.1.11-.1c0,0-.08.06-.01.01.02-.01.04-.03.06-.04.17-.11.36-.21.54-.29.46-.22.93-.43,1.4-.63.24-.1.31-.48.18-.68-.16-.25-.43-.29-.68-.18-.49.21-.98.43-1.46.66-.44.21-.85.48-1.12.9-.14.22-.05.56.18.68.25.13.54.06.68-.18h0Z"/>
    <path class="cls-6" d="M277.78,139.05c.05-.02.05-.02-.01,0,.02,0,.05-.02.07-.03.04-.01.07-.03.11-.04.08-.03.17-.06.25-.09.16-.06.32-.11.49-.16.33-.1.68-.17,1.02-.22.12-.02.24-.13.3-.23.06-.11.09-.27.05-.39-.09-.28-.34-.39-.62-.35-.75.12-1.46.34-2.16.64-.11.05-.2.19-.23.3-.03.12-.02.28.05.39s.17.2.3.23c.14.03.25,0,.39-.05h0Z"/>
    <path class="cls-6" d="M278.3,138.66c.27-.17.44-.23.74-.32s.58-.15.87-.21c.61-.13,1.21-.27,1.76-.58.23-.13.31-.45.18-.68s-.45-.31-.68-.18c-.26.15-.44.22-.75.3-.29.08-.58.14-.87.2-.6.13-1.21.28-1.74.61-.23.14-.32.45-.18.68s.45.32.68.18h0Z"/>
    <path class="cls-4" d="M280,137.64c.37-.22.81-.29,1.21-.46.33-.14.63-.35.93-.56"/>
    <path class="cls-6" d="M282.32,137.15s.07-.06.1-.09l-.1.08c.15-.12.32-.22.5-.29l-.12.05c.17-.07.35-.13.53-.15l-.13.02s.06,0,.09,0l-.13-.02s.03,0,.05.01l-.12-.05s.02,0,.03.02l-.1-.08s.02.02.02.03c.08.09.24.15.35.15s.27-.05.35-.15.15-.22.15-.35-.06-.25-.15-.35c-.1-.12-.25-.17-.39-.19-.12-.02-.23,0-.35.02-.14.03-.28.06-.41.12-.33.13-.63.3-.9.54-.09.08-.15.23-.15.35s.05.27.15.35.22.15.35.15.25-.06.35-.15h0Z"/>
    <path class="cls-6" d="M282.84,136.42c.11.34.27.67.47.97.11.16.23.32.36.47.03.03.05.06.08.09.01.01.02.03.04.04.03.04.02.03-.02-.03,0,.03.04.07.06.1.02.05.02.03-.02-.05,0,.02,0,.03.01.05l-.02-.13s0,.05,0,.07l.02-.13c-.02.09.06-.11.02-.03-.13.23-.06.56.18.68s.54.06.68-.18c.16-.27.12-.6-.05-.85-.07-.1-.14-.19-.22-.28-.03-.03-.06-.07-.09-.1-.02-.03-.12-.16-.04-.04-.11-.15-.21-.3-.3-.46-.05-.09-.09-.17-.13-.26-.03-.06.04.1.01.03,0-.02-.02-.05-.03-.07-.02-.05-.04-.1-.05-.14-.08-.25-.35-.44-.62-.35-.25.08-.44.35-.35.62h0Z"/>
    <path class="cls-6" d="M283.49,136.46c.03.31.16.56.31.83.01.03.03.05.04.08.03.06-.01-.06,0,0,0,.03.02.06.02.08,0,.03,0,.03,0,0,0-.03,0-.03,0,0,0,.03,0,.03,0,.01,0-.02,0-.02,0,0,0,.03-.02.07-.03.1,0,0-.03.09-.02.06s-.04.08-.04.08c-.12.24-.26.48-.41.7-.04.06-.08.11-.12.17,0,0-.08.11-.05.07.02-.03-.03.04-.04.05-.09.11-.19.22-.28.33-.18.19-.2.52,0,.71s.52.2.71,0c.43-.46.81-.99,1.09-1.56.16-.34.27-.71.15-1.08-.05-.15-.12-.3-.2-.44-.03-.06-.06-.12-.09-.18.02.04.01.04,0,0,0-.02-.03-.15-.02-.04-.03-.26-.21-.51-.5-.5-.25.01-.53.22-.5.5h0Z"/>
    <path class="cls-6" d="M283.23,137.03c-.26.4-.41.85-.61,1.27-.09.19-.19.37-.31.54-.04.05.06-.07,0,0-.02.02-.03.04-.05.05-.04.04-.07.08-.11.11-.02.02-.04.04-.07.06-.06.05,0-.02.02-.01,0,0-.05.03-.06.04-.06.03-.04.03.06,0,.1-.01.12-.02.07-.03l.25.07h-.02c.06.05.12.11.18.17v-.02c-.14-.23-.47-.32-.69-.18s-.31.44-.18.68c.15.28.51.34.78.2.13-.07.25-.17.36-.27.21-.19.38-.43.51-.68.27-.49.42-1.03.73-1.5.14-.22.05-.56-.18-.68-.25-.13-.53-.05-.68.18h0Z"/>
    <path class="cls-6" d="M282.9,136.68c-.69.48-.98,1.26-1.6,1.77-.56.46-1.31.73-2.01.98-.25.09-.42.34-.35.62.07.24.36.44.62.35.78-.28,1.59-.58,2.25-1.09.36-.27.65-.59.91-.95.11-.16.22-.32.33-.47.07-.09.25-.28.34-.34.22-.15.32-.44.18-.68-.13-.22-.46-.33-.68-.18h0Z"/>
    <path class="cls-6" d="M281.53,137.31c-1.13.69-2.3,1.33-3.49,1.92-.24.12-.31.46-.18.68.14.25.44.3.68.18,1.19-.59,2.35-1.23,3.49-1.92.23-.14.32-.45.18-.68s-.45-.32-.68-.18h0Z"/>
    <path class="cls-6" d="M280.05,138.39c-1.18.38-2.33.83-3.46,1.34-.25.11-.31.47-.18.68.15.25.44.29.68.18,1.05-.47,2.13-.89,3.22-1.24.26-.08.42-.35.35-.62-.07-.25-.36-.43-.62-.35h0Z"/>
    <path class="cls-6" d="M278.29,138.61c-1.18.2-2.29.85-3.04,1.78-.16.2-.21.51,0,.71.18.17.53.22.71,0s.35-.4.55-.58c.05-.04.1-.09.15-.13.04-.04-.05.04.02-.02.02-.02.05-.04.07-.05.11-.08.23-.16.35-.23.12-.07.23-.13.35-.19.03-.01.05-.03.08-.04.04-.02.09-.04.02-.01.06-.03.12-.05.19-.07.26-.09.53-.16.8-.21s.43-.38.35-.62c-.09-.28-.34-.4-.62-.35h0Z"/>
    <path class="cls-6" d="M277.9,138.99l-2.85,1.91c-.48.32-.17,1.02.39.91,1.43-.26,2.87-.55,4.16-1.24.57-.31.06-1.17-.5-.86-1.21.65-2.59.9-3.92,1.14l.39.91,2.85-1.91c.22-.15.32-.44.18-.68-.13-.22-.46-.33-.68-.18h0Z"/>
    <path class="cls-6" d="M276.72,141.24l2.28-.4-.39-.91c-.57.41-1.19.77-1.85,1.03-.42.17-.47.64-.12.91.31.23.69.13,1.01-.02.44-.2.87-.43,1.31-.65s.83-.41,1.24-.62c.31-.15.81-.48,1.17-.32l-.1-.79c-.17.17-.56.13-.78.17-.29.05-.58.12-.86.21-.6.2-1.13.5-1.64.86-.22.15-.44.31-.69.42-.31.13-.64.14-.97.15-.69.02-1.39.02-2.08.04-.64.01-.64,1.01,0,1,.76-.01,1.51,0,2.27-.04.71-.03,1.29-.23,1.88-.63.55-.37,1.09-.71,1.74-.9.61-.17,1.36-.08,1.83-.56.2-.21.2-.65-.1-.79-.85-.37-1.61.04-2.38.42-.41.21-.83.41-1.24.62-.22.11-.44.22-.65.32-.11.05-.22.11-.33.16l-.13.06c-.08.02-.07.03,0,.02l-.12.91c.74-.29,1.44-.66,2.09-1.13.46-.34.18-1.01-.39-.91l-2.28.4c-.63.11-.36,1.08.27.96h0Z"/>
    <path class="cls-6" d="M273.65,141.58c-.09-.03-.19-.04-.29-.05-.05,0-.1,0-.16,0-.09,0-.19.02-.28.03-.06,0-.11.02-.16.04-.07.02-.12.05-.17.09-.05.04-.1.08-.13.14-.04.06-.06.12-.06.19-.01.07-.01.13,0,.2.04.12.11.24.23.3s.26.09.39.05c.06-.02.13-.04.19-.05l-.13.02c.09-.01.18-.01.27,0l-.13-.02c.05,0,.1.02.15.03.07.02.13.02.2,0,.07,0,.13-.02.19-.06.06-.03.11-.07.14-.13.04-.05.07-.1.09-.17.03-.13.02-.27-.05-.39s-.17-.19-.3-.23h0Z"/>
    <path class="cls-6" d="M281.76,140.46c.4,0,.8-.12,1.13-.32.11-.07.2-.17.23-.3s.02-.28-.05-.39-.17-.2-.3-.23-.27-.02-.39.05c-.07.05-.15.09-.23.12l.12-.05c-.14.06-.28.1-.43.12l.13-.02c-.07,0-.14.01-.22.02-.13,0-.26.05-.35.15-.09.09-.15.23-.15.35s.05.26.15.35.22.15.35.15h0Z"/>
    <path class="cls-6" d="M240.39,165.11c.2.06.4.02.58-.07.08-.04.15-.09.23-.13.04-.02.07-.03.11-.05-.15.07-.01,0,.03,0,.08-.03.17-.06.25-.09.39-.13.78-.27,1.07-.56.18-.19.2-.52,0-.71s-.51-.2-.71,0c-.02.02-.05.05-.08.07-.07.06.08-.05.03-.02-.01,0-.03.02-.04.03-.06.04-.12.07-.19.11,0,0-.05.02-.05.02,0,0,.12-.05.05-.02-.04.01-.07.03-.11.04-.07.03-.14.05-.21.07-.16.05-.31.1-.46.17-.08.04-.17.07-.25.12-.04.02-.07.04-.11.06-.02,0-.08.04,0,0,.08-.03,0,0-.02,0l.13-.02s-.04,0-.05,0l.13.02s-.04,0-.05-.01c-.25-.08-.56.09-.62.35-.06.27.08.53.35.62h0Z"/>
    <path class="cls-6" d="M242.22,164c.23-.06.44-.12.66-.22s.37-.26.55-.4l-.1.08s.07-.05.11-.07c.11-.07.2-.18.23-.3s.02-.28-.05-.39-.17-.2-.3-.23-.27-.02-.39.05c-.16.1-.29.23-.44.34l.1-.08c-.08.06-.18.12-.27.16l.12-.05c-.16.07-.32.11-.49.15-.12.03-.24.12-.3.23s-.09.27-.05.39c.09.26.34.42.62.35h0Z"/>
    <path class="cls-6" d="M239.43,164.2c-.36.29-.71.6-1.03.92-.09.09-.15.23-.15.35s.05.27.15.35.22.15.35.15.26-.05.35-.15c.33-.33.67-.64,1.03-.92.09-.07.15-.24.15-.35,0-.12-.05-.27-.15-.35s-.22-.15-.35-.15l-.13.02c-.08.02-.16.07-.22.13h0Z"/>
    <path class="cls-6" d="M242.16,163.88c.36-.23.69-.52,1-.82.28-.26.55-.56.88-.77.15-.09.31-.14.48-.19.21-.07.42-.17.61-.29.37-.23.74-.48,1.09-.74l-.61-.79c-.35.28-.69.57-1,.9s-.6.65-.94.93c-.65.55-1.4.97-2.13,1.4-.55.33-.05,1.19.5.86.79-.46,1.57-.93,2.27-1.51.34-.28.65-.6.95-.93.32-.35.68-.65,1.05-.95.44-.35-.15-1.13-.61-.79-.34.26-.7.5-1.06.72s-.77.28-1.12.5c-.7.44-1.19,1.14-1.88,1.59-.23.15-.32.44-.18.68.13.23.46.33.68.18h0Z"/>
    <path class="cls-6" d="M279.04,138.9c1.17-.19,2.29-.65,3.41-1.05.25-.09.42-.34.35-.62-.07-.25-.36-.44-.62-.35-1.12.39-2.23.86-3.41,1.05-.27.04-.42.37-.35.62.08.28.35.39.62.35h0Z"/>
    <path class="cls-2" d="M243.4,198.33c.54-.63,1.13-1.25,1.6-1.93.44-.64.75-1.39,1.1-2.09.12-.24.06-.54-.18-.68-.22-.13-.56-.06-.68.18-.34.68-.64,1.4-1.06,2.03s-.98,1.2-1.48,1.79c-.18.21-.2.51,0,.71.18.18.53.21.71,0h0Z"/>
    <path class="cls-2" d="M254.54,178.91c2.26-5.33,4.27-10.76,6.01-16.28.19-.62-.77-.88-.96-.27-1.72,5.44-3.69,10.79-5.91,16.04-.25.59.61,1.1.86.5h0Z"/>
  </g>
</svg>